{"glyphs":{"0":{"ha":867,"x_min":0,"x_max":0,"o":"m 433 -17 b 36 463 163 -17 36 218 b 433 940 36 707 163 940 b 831 463 704 940 831 707 b 433 -17 831 218 704 -17 m 433 194 b 589 463 544 194 589 299 b 433 729 589 626 544 729 b 278 463 322 729 278 626 b 433 194 278 299 322 194 "},"1":{"ha":621,"x_min":0,"x_max":0,"o":"m 299 0 l 299 621 l 143 464 l 7 607 l 331 926 l 538 926 l 538 0 "},"2":{"ha":843,"x_min":0,"x_max":0,"o":"m 61 0 l 61 186 b 538 632 463 476 538 540 b 410 729 538 696 478 729 b 163 628 307 729 229 690 l 31 786 b 406 940 129 894 276 940 b 781 632 624 940 781 818 b 449 208 781 490 679 369 l 788 208 l 788 0 "},"3":{"ha":836,"x_min":0,"x_max":0,"o":"m 406 -17 b 22 129 228 -17 94 46 l 143 292 b 396 194 210 226 315 194 b 551 285 499 194 551 233 b 386 363 551 338 513 363 b 261 361 346 363 275 363 l 261 574 b 386 572 279 572 351 572 b 536 644 482 572 536 596 b 381 729 536 703 469 729 b 150 640 296 729 215 699 l 35 790 b 406 940 113 878 235 940 b 774 686 642 940 774 839 b 571 478 774 578 681 496 b 789 258 669 468 789 392 b 406 -17 789 96 636 -17 "},"4":{"ha":856,"x_min":0,"x_max":0,"o":"m 474 0 l 474 169 l 31 169 l 31 356 l 382 926 l 714 926 l 714 379 l 826 379 l 826 169 l 714 169 l 714 0 m 474 718 l 263 379 l 474 379 "},"5":{"ha":857,"x_min":0,"x_max":0,"o":"m 429 -17 b 56 118 265 -17 142 33 l 186 285 b 426 194 250 226 338 194 b 578 301 528 194 578 244 b 433 408 578 364 529 408 b 250 339 360 408 301 388 l 85 379 l 85 926 l 757 926 l 757 718 l 324 718 l 324 539 b 522 613 368 582 440 613 b 821 311 679 613 821 497 b 429 -17 821 111 669 -17 "},"6":{"ha":857,"x_min":0,"x_max":0,"o":"m 457 -17 b 36 461 164 -17 36 196 b 494 940 36 757 214 940 b 776 851 604 940 707 906 l 672 668 b 494 729 621 710 571 729 b 278 518 382 729 278 647 b 278 507 278 513 278 510 b 506 613 324 568 411 613 b 826 308 672 613 826 506 b 457 -17 826 118 672 -17 m 442 194 b 585 300 531 194 585 249 b 433 410 585 378 506 410 b 278 347 375 410 318 389 b 442 194 285 272 329 194 "},"7":{"ha":778,"x_min":0,"x_max":0,"o":"m 167 0 l 481 718 l 29 718 l 29 926 l 756 926 l 756 761 l 429 0 "},"8":{"ha":858,"x_min":0,"x_max":0,"o":"m 429 -17 b 36 244 229 -17 36 63 b 224 478 36 350 117 436 b 51 693 125 515 51 582 b 429 940 51 872 247 940 b 807 693 610 940 807 872 b 633 478 807 582 732 515 b 821 244 740 436 821 350 b 429 -17 821 64 629 -17 m 429 571 b 563 658 486 579 563 608 b 429 742 563 710 508 742 b 294 658 347 742 294 710 b 429 571 294 608 372 579 m 429 182 b 579 272 515 182 579 218 b 429 369 579 329 488 363 b 279 272 369 363 279 329 b 429 182 279 218 340 182 "},"9":{"ha":857,"x_min":0,"x_max":0,"o":"m 361 -15 b 81 74 253 -15 150 18 l 183 257 b 361 196 235 215 286 196 b 578 407 496 196 578 294 b 578 418 578 411 578 414 b 351 311 532 357 444 311 b 29 617 185 311 29 419 b 399 942 29 807 183 942 b 819 464 692 942 819 731 b 361 -15 819 169 642 -15 m 422 515 b 578 578 481 515 538 535 b 413 731 572 653 526 731 b 272 625 325 731 272 676 b 422 515 272 547 351 515 "},"\u0000":{"ha":0,"x_min":0,"x_max":0,"o":""},"\r":{"ha":0,"x_min":0,"x_max":0,"o":""}," ":{"ha":356,"x_min":0,"x_max":0,"o":""}," ":{"ha":356,"x_min":0,"x_max":0,"o":""}," ":{"ha":71,"x_min":0,"x_max":0,"o":""},"":{"ha":882,"x_min":0,"x_max":0,"o":"m 442 -17 b 44 463 171 -17 44 218 b 442 940 44 707 171 940 b 839 463 713 940 839 707 b 442 -17 839 218 713 -17 m 442 194 b 597 463 553 194 597 299 b 442 729 597 626 553 729 b 286 463 331 729 286 626 b 442 194 286 299 331 194 "},"":{"ha":882,"x_min":0,"x_max":0,"o":"m 442 -17 b 238 39 361 -17 293 4 l 211 0 l 50 0 l 139 133 b 44 463 75 222 44 342 b 442 940 44 707 171 940 b 643 885 521 940 589 919 l 671 926 l 832 926 l 742 792 b 839 463 807 703 839 583 b 442 -17 839 218 713 -17 m 442 194 b 597 463 553 194 597 299 b 590 565 597 500 594 535 l 360 221 b 442 194 381 203 408 194 m 286 463 b 293 363 286 426 288 392 l 522 704 b 442 729 500 721 474 729 b 286 463 331 729 286 626 "},"":{"ha":882,"x_min":0,"x_max":0,"o":"m 426 0 l 426 621 l 271 464 l 135 607 l 458 926 l 665 926 l 665 0 "},"":{"ha":882,"x_min":0,"x_max":0,"o":"m 93 0 l 93 186 b 569 632 494 476 569 540 b 442 729 569 696 510 729 b 194 628 339 729 261 690 l 63 786 b 438 940 161 894 308 940 b 813 632 656 940 813 818 b 481 208 813 490 711 369 l 819 208 l 819 0 "},"":{"ha":882,"x_min":0,"x_max":0,"o":"m 436 -17 b 53 129 258 -17 125 46 l 174 292 b 426 194 240 226 346 194 b 582 285 529 194 582 233 b 417 363 582 338 543 363 b 292 361 376 363 306 363 l 292 574 b 417 572 310 572 382 572 b 567 644 513 572 567 596 b 411 729 567 703 500 729 b 181 640 326 729 246 699 l 65 790 b 436 940 143 878 265 940 b 804 686 672 940 804 839 b 601 478 804 578 711 496 b 819 258 700 468 819 392 b 436 -17 819 96 667 -17 "},"":{"ha":882,"x_min":0,"x_max":0,"o":"m 482 0 l 482 169 l 39 169 l 39 356 l 390 926 l 722 926 l 722 379 l 835 379 l 835 169 l 722 169 l 722 0 m 482 718 l 271 379 l 482 379 "},"":{"ha":882,"x_min":0,"x_max":0,"o":"m 438 -17 b 64 118 274 -17 150 33 l 194 285 b 435 194 258 226 346 194 b 586 301 536 194 586 244 b 442 408 586 364 538 408 b 258 339 368 408 310 388 l 93 379 l 93 926 l 765 926 l 765 718 l 332 718 l 332 539 b 531 613 376 582 449 613 b 829 311 688 613 829 497 b 438 -17 829 111 678 -17 "},"":{"ha":882,"x_min":0,"x_max":0,"o":"m 474 -17 b 53 461 181 -17 53 196 b 511 940 53 757 231 940 b 793 851 621 940 724 906 l 689 668 b 511 729 638 710 588 729 b 294 518 399 729 294 647 b 294 507 294 513 294 510 b 522 613 340 568 428 613 b 843 308 689 613 843 506 b 474 -17 843 118 689 -17 m 458 194 b 601 300 547 194 601 249 b 450 410 601 378 522 410 b 294 347 392 410 335 389 b 458 194 301 272 346 194 "},"":{"ha":882,"x_min":0,"x_max":0,"o":"m 217 0 l 531 718 l 79 718 l 79 926 l 806 926 l 806 761 l 479 0 "},"":{"ha":882,"x_min":0,"x_max":0,"o":"m 442 -17 b 49 244 242 -17 49 63 b 236 478 49 350 129 436 b 64 693 138 515 64 582 b 442 940 64 872 260 940 b 819 693 622 940 819 872 b 646 478 819 582 744 515 b 833 244 753 436 833 350 b 442 -17 833 64 642 -17 m 442 571 b 575 658 499 579 575 608 b 442 742 575 710 521 742 b 307 658 360 742 307 710 b 442 571 307 608 385 579 m 442 182 b 592 272 528 182 592 218 b 442 369 592 329 500 363 b 292 272 382 363 292 329 b 442 182 292 218 353 182 "},"":{"ha":882,"x_min":0,"x_max":0,"o":"m 376 -15 b 96 74 268 -15 165 18 l 199 257 b 376 196 250 215 301 196 b 593 407 511 196 593 294 b 593 418 593 411 593 414 b 367 311 547 357 460 311 b 44 617 200 311 44 419 b 414 942 44 807 199 942 b 835 464 707 942 835 731 b 376 -15 835 169 657 -15 m 438 515 b 593 578 496 515 553 535 b 428 731 588 653 542 731 b 288 625 340 731 288 676 b 438 515 288 547 367 515 "},"":{"ha":882,"x_min":0,"x_max":0,"o":"m 839 382 b 442 -17 839 169 711 -17 b 44 382 172 -17 44 169 b 442 781 44 597 172 781 b 839 382 711 781 839 597 m 597 382 b 442 569 597 490 542 569 b 286 382 342 569 286 490 b 442 194 286 272 342 194 b 597 382 542 194 597 272 "},"":{"ha":882,"x_min":0,"x_max":0,"o":"m 426 0 l 426 458 l 271 301 l 135 444 l 458 764 l 665 764 l 665 0 "},"":{"ha":882,"x_min":0,"x_max":0,"o":"m 96 0 l 96 188 b 547 483 451 294 547 411 b 432 569 547 536 497 569 b 192 468 342 569 264 538 l 60 626 b 436 781 158 735 307 781 b 789 525 658 781 789 681 b 522 208 789 392 656 260 l 774 208 l 774 0 "},"":{"ha":882,"x_min":0,"x_max":0,"o":"m 436 -176 b 53 -31 258 -176 125 -114 l 174 132 b 426 35 240 67 346 35 b 582 125 529 35 582 74 b 417 203 582 178 543 203 b 292 201 376 203 306 203 l 292 414 b 417 413 310 413 382 413 b 567 485 513 413 567 436 b 411 569 567 543 500 569 b 181 481 326 569 246 539 l 65 631 b 436 781 143 718 265 781 b 804 526 672 781 804 679 b 601 318 804 418 711 336 b 819 99 700 308 819 232 b 436 -176 819 -64 667 -176 "},"":{"ha":882,"x_min":0,"x_max":0,"o":"m 722 19 l 722 -162 l 482 -162 l 482 19 l 39 19 l 39 204 l 390 764 l 722 764 l 722 228 l 835 228 l 835 19 m 482 556 l 271 228 l 482 228 "},"":{"ha":882,"x_min":0,"x_max":0,"o":"m 438 -179 b 64 -44 274 -179 150 -129 l 194 122 b 435 32 258 64 346 32 b 586 139 536 32 586 82 b 442 246 586 201 538 246 b 258 176 368 246 310 225 l 93 217 l 93 764 l 765 764 l 765 556 l 332 556 l 332 376 b 531 450 376 419 449 450 b 829 149 688 450 829 335 b 438 -179 829 -51 678 -179 "},"":{"ha":882,"x_min":0,"x_max":0,"o":"m 474 -17 b 53 461 181 -17 53 196 b 511 940 53 757 231 940 b 793 851 621 940 724 906 l 689 668 b 511 729 638 710 588 729 b 294 518 399 729 294 647 b 294 507 294 513 294 510 b 522 613 340 568 428 613 b 843 308 689 613 843 506 b 474 -17 843 118 689 -17 m 458 194 b 601 300 547 194 601 249 b 450 410 601 378 522 410 b 294 347 392 410 335 389 b 458 194 301 272 346 194 "},"":{"ha":882,"x_min":0,"x_max":0,"o":"m 217 -162 l 531 556 l 79 556 l 79 764 l 806 764 l 806 599 l 479 -162 "},"":{"ha":882,"x_min":0,"x_max":0,"o":"m 442 -17 b 49 244 242 -17 49 63 b 236 478 49 350 129 436 b 64 693 138 515 64 582 b 442 940 64 872 260 940 b 819 693 622 940 819 872 b 646 478 819 582 744 515 b 833 244 753 436 833 350 b 442 -17 833 64 642 -17 m 442 571 b 575 658 499 579 575 608 b 442 742 575 710 521 742 b 307 658 360 742 307 710 b 442 571 307 608 385 579 m 442 182 b 592 272 528 182 592 218 b 442 369 592 329 500 363 b 292 272 382 363 292 329 b 442 182 292 218 353 182 "},"":{"ha":882,"x_min":0,"x_max":0,"o":"m 376 -176 b 96 -87 268 -176 165 -143 l 199 96 b 376 35 250 54 301 35 b 593 246 511 35 593 133 b 593 257 593 250 593 253 b 367 150 547 196 460 150 b 44 456 200 150 44 258 b 414 781 44 646 199 781 b 835 303 707 781 835 569 b 376 -176 835 8 657 -176 m 438 354 b 593 417 496 354 553 374 b 428 569 588 492 542 569 b 288 464 340 569 288 515 b 438 354 288 386 367 354 "},"":{"ha":867,"x_min":0,"x_max":0,"o":"m 831 382 b 433 -17 831 169 703 -17 b 36 382 164 -17 36 169 b 433 781 36 597 164 781 b 831 382 703 781 831 597 m 589 382 b 433 569 589 490 533 569 b 278 382 333 569 278 490 b 433 194 278 272 333 194 b 589 382 533 194 589 272 "},"":{"ha":621,"x_min":0,"x_max":0,"o":"m 299 0 l 299 458 l 143 301 l 7 444 l 331 764 l 538 764 l 538 0 "},"":{"ha":813,"x_min":0,"x_max":0,"o":"m 64 0 l 64 188 b 515 483 419 294 515 411 b 400 569 515 536 465 569 b 160 468 310 569 232 538 l 28 626 b 404 781 126 735 275 781 b 757 525 626 781 757 681 b 490 208 757 392 624 260 l 742 208 l 742 0 "},"":{"ha":822,"x_min":0,"x_max":0,"o":"m 392 -178 b 8 -32 214 -178 81 -115 l 129 131 b 382 33 196 65 301 33 b 538 124 485 33 538 72 b 372 201 538 176 499 201 b 247 200 332 201 261 201 l 247 413 b 372 411 265 411 338 411 b 522 483 468 411 522 435 b 367 568 522 542 456 568 b 136 479 282 568 201 538 l 21 629 b 392 779 99 717 221 779 b 760 525 628 779 760 678 b 557 317 760 417 667 335 b 775 97 656 307 775 231 b 392 -178 775 -65 622 -178 "},"":{"ha":856,"x_min":0,"x_max":0,"o":"m 714 19 l 714 -162 l 474 -162 l 474 19 l 31 19 l 31 204 l 382 764 l 714 764 l 714 228 l 826 228 l 826 19 m 474 556 l 263 228 l 474 228 "},"":{"ha":857,"x_min":0,"x_max":0,"o":"m 429 -179 b 56 -44 265 -179 142 -129 l 186 122 b 426 32 250 64 338 32 b 578 139 528 32 578 82 b 433 246 578 201 529 246 b 250 176 360 246 301 225 l 85 217 l 85 764 l 757 764 l 757 556 l 324 556 l 324 376 b 522 450 368 419 440 450 b 821 149 679 450 821 335 b 429 -179 821 -51 669 -179 "},"":{"ha":857,"x_min":0,"x_max":0,"o":"m 457 -17 b 36 461 164 -17 36 196 b 494 940 36 757 214 940 b 776 851 604 940 707 906 l 672 668 b 494 729 621 710 571 729 b 278 518 382 729 278 647 b 278 507 278 513 278 510 b 506 613 324 568 411 613 b 826 308 672 613 826 506 b 457 -17 826 118 672 -17 m 442 194 b 585 300 531 194 585 249 b 433 410 585 378 506 410 b 278 347 375 410 318 389 b 442 194 285 272 329 194 "},"":{"ha":778,"x_min":0,"x_max":0,"o":"m 167 -162 l 481 556 l 29 556 l 29 764 l 756 764 l 756 599 l 429 -162 "},"":{"ha":858,"x_min":0,"x_max":0,"o":"m 429 -17 b 36 244 229 -17 36 63 b 224 478 36 350 117 436 b 51 693 125 515 51 582 b 429 940 51 872 247 940 b 807 693 610 940 807 872 b 633 478 807 582 732 515 b 821 244 740 436 821 350 b 429 -17 821 64 629 -17 m 429 571 b 563 658 486 579 563 608 b 429 742 563 710 508 742 b 294 658 347 742 294 710 b 429 571 294 608 372 579 m 429 182 b 579 272 515 182 579 218 b 429 369 579 329 488 363 b 279 272 369 363 279 329 b 429 182 279 218 340 182 "},"":{"ha":857,"x_min":0,"x_max":0,"o":"m 361 -178 b 81 -89 253 -178 150 -144 l 183 94 b 361 33 235 53 286 33 b 578 244 496 33 578 132 b 578 256 578 249 578 251 b 351 149 532 194 444 149 b 29 454 185 149 29 257 b 399 779 29 644 183 779 b 819 301 692 779 819 568 b 361 -178 819 7 642 -178 m 422 353 b 578 415 481 353 538 372 b 413 568 572 490 526 568 b 272 463 325 568 272 514 b 422 353 272 385 351 353 "},"A":{"ha":968,"x_min":0,"x_max":0,"o":"m 713 0 l 667 133 l 301 133 l 256 0 l -15 0 l 333 926 l 633 926 l 983 0 m 483 690 l 365 342 l 601 342 "},"B":{"ha":944,"x_min":0,"x_max":0,"o":"m 83 0 l 83 926 l 608 926 b 879 690 792 926 879 807 b 721 478 879 575 808 497 b 897 251 819 463 897 368 b 625 0 897 117 807 0 m 554 571 b 636 649 603 571 636 603 b 554 725 636 693 603 725 l 322 725 l 322 571 l 554 571 m 563 201 b 654 285 619 201 654 235 b 563 368 654 331 621 368 l 322 368 l 322 201 l 563 201 "},"C":{"ha":961,"x_min":0,"x_max":0,"o":"m 538 -17 b 36 463 253 -17 36 178 b 538 942 36 749 253 942 b 942 693 761 942 881 815 l 736 596 b 538 731 706 669 626 731 b 279 463 386 731 279 614 b 538 194 279 311 386 194 b 736 329 626 194 706 256 l 942 232 b 538 -17 882 113 761 -17 "},"D":{"ha":1010,"x_min":0,"x_max":0,"o":"m 83 0 l 83 926 l 472 926 b 974 464 764 926 974 751 b 474 0 974 176 764 0 m 472 208 b 729 464 635 208 729 326 b 474 718 729 607 643 718 l 322 718 l 322 208 l 472 208 "},"E":{"ha":818,"x_min":0,"x_max":0,"o":"m 83 0 l 83 926 l 763 926 l 763 718 l 322 718 l 322 574 l 753 574 l 753 365 l 322 365 l 322 208 l 763 208 l 763 0 "},"F":{"ha":808,"x_min":0,"x_max":0,"o":"m 83 0 l 83 926 l 763 926 l 763 718 l 322 718 l 322 574 l 753 574 l 753 365 l 322 365 l 322 0 "},"G":{"ha":1004,"x_min":0,"x_max":0,"o":"m 538 -17 b 36 463 261 -17 36 168 b 538 942 36 757 261 942 b 933 717 744 942 869 832 l 733 613 b 538 731 699 674 628 731 b 279 463 386 731 279 614 b 538 194 279 311 386 194 b 708 250 606 194 675 222 l 708 322 l 500 322 l 500 532 l 947 532 l 947 164 b 538 -17 847 54 713 -17 "},"H":{"ha":1029,"x_min":0,"x_max":0,"o":"m 707 0 l 707 372 l 322 372 l 322 0 l 83 0 l 83 926 l 322 926 l 322 581 l 707 581 l 707 926 l 946 926 l 946 0 "},"I":{"ha":406,"x_min":0,"x_max":0,"o":"m 83 0 l 83 926 l 322 926 l 322 0 "},"J":{"ha":683,"x_min":0,"x_max":0,"o":"m 258 -17 b 4 67 165 -17 74 6 l 104 249 b 238 194 138 221 182 194 b 361 321 313 194 361 243 l 361 926 l 600 926 l 600 318 b 258 -17 600 89 461 -17 "},"K":{"ha":908,"x_min":0,"x_max":0,"o":"m 628 0 l 385 349 l 322 271 l 322 0 l 83 0 l 83 926 l 322 926 l 322 546 l 607 926 l 901 926 l 542 493 l 921 0 "},"L":{"ha":735,"x_min":0,"x_max":0,"o":"m 83 0 l 83 926 l 322 926 l 322 208 l 694 208 l 694 0 "},"M":{"ha":1218,"x_min":0,"x_max":0,"o":"m 896 0 l 896 603 l 661 0 l 556 0 l 322 603 l 322 0 l 83 0 l 83 926 l 415 926 l 608 424 l 803 926 l 1135 926 l 1135 0 "},"N":{"ha":1028,"x_min":0,"x_max":0,"o":"m 714 0 l 322 536 l 322 0 l 83 0 l 83 926 l 329 926 l 704 417 l 704 926 l 944 926 l 944 0 "},"O":{"ha":1064,"x_min":0,"x_max":0,"o":"m 532 -17 b 36 463 249 -17 36 181 b 532 942 36 744 249 942 b 1026 463 815 942 1026 744 b 532 -17 1026 181 815 -17 m 532 194 b 783 463 685 194 783 313 b 532 731 783 614 685 731 b 279 463 378 731 279 614 b 532 194 279 313 378 194 "},"P":{"ha":893,"x_min":0,"x_max":0,"o":"m 83 0 l 83 926 l 547 926 b 869 618 756 926 869 786 b 547 311 869 451 756 311 l 322 311 l 322 0 m 515 519 b 626 618 579 519 626 556 b 515 718 626 682 579 718 l 322 718 l 322 519 l 515 519 "},"Q":{"ha":1064,"x_min":0,"x_max":0,"o":"m 532 -17 b 36 463 249 -17 36 181 b 532 942 36 744 249 942 b 1026 463 815 942 1026 744 b 910 142 1026 335 983 224 l 968 71 l 801 -62 l 733 21 b 532 -17 672 -3 604 -17 m 532 194 b 586 200 550 194 568 196 l 501 303 l 667 436 l 754 331 b 783 463 772 369 783 414 b 532 731 783 614 685 731 b 279 463 378 731 279 614 b 532 194 279 313 378 194 "},"R":{"ha":918,"x_min":0,"x_max":0,"o":"m 600 0 l 444 311 l 322 311 l 322 0 l 83 0 l 83 926 l 547 926 b 869 618 753 926 869 790 b 685 340 869 457 771 371 l 874 0 m 511 519 b 626 619 574 519 626 554 b 511 718 626 682 574 718 l 322 718 l 322 519 l 511 519 "},"S":{"ha":842,"x_min":0,"x_max":0,"o":"m 428 -17 b 17 131 240 -17 110 42 l 143 310 b 439 188 210 243 313 188 b 571 264 521 188 571 219 b 46 646 571 390 46 289 b 415 940 46 801 178 940 b 792 811 564 940 693 896 l 661 640 b 390 736 583 704 482 736 b 290 669 321 736 290 708 b 814 293 290 551 814 638 b 428 -17 814 107 676 -17 "},"T":{"ha":818,"x_min":0,"x_max":0,"o":"m 290 0 l 290 718 l 31 718 l 31 926 l 788 926 l 788 718 l 529 718 l 529 0 "},"U":{"ha":1042,"x_min":0,"x_max":0,"o":"m 522 -17 b 83 375 224 -17 83 147 l 83 926 l 326 926 l 326 383 b 522 194 326 274 392 194 b 717 383 650 194 717 274 l 717 926 l 958 926 l 958 376 b 522 -17 958 146 818 -17 "},"V":{"ha":968,"x_min":0,"x_max":0,"o":"m 333 0 l -15 926 l 256 926 l 483 258 l 713 926 l 983 926 l 633 0 "},"W":{"ha":1300,"x_min":0,"x_max":0,"o":"m 790 0 l 650 581 l 510 0 l 257 0 l -8 926 l 260 926 l 400 308 l 558 926 l 742 926 l 900 308 l 1039 926 l 1308 926 l 1043 0 "},"X":{"ha":939,"x_min":0,"x_max":0,"o":"m 671 0 l 469 311 l 268 0 l -15 0 l 308 475 l 6 926 l 288 926 l 469 636 l 649 926 l 932 926 l 631 476 l 953 0 "},"Y":{"ha":910,"x_min":0,"x_max":0,"o":"m 336 0 l 336 374 l -15 926 l 254 926 l 456 585 l 654 926 l 925 926 l 575 374 l 575 0 "},"Z":{"ha":828,"x_min":0,"x_max":0,"o":"m 54 0 l 54 190 l 449 718 l 54 718 l 54 926 l 764 926 l 764 736 l 368 208 l 774 208 l 774 0 "},"a":{"ha":765,"x_min":0,"x_max":0,"o":"m 474 0 l 474 67 b 265 -17 432 17 351 -17 b 35 204 163 -17 35 53 b 265 419 35 367 163 419 b 474 342 354 419 433 392 l 474 422 b 338 519 474 481 424 519 b 147 449 271 519 201 494 l 71 583 b 375 688 157 657 272 688 b 688 419 536 688 688 628 l 688 0 m 354 124 b 474 172 401 124 451 140 l 474 232 b 354 279 451 263 401 279 b 247 201 297 279 247 254 b 354 124 247 149 297 124 "},"b":{"ha":821,"x_min":0,"x_max":0,"o":"m 292 232 b 419 172 318 196 374 172 b 568 336 504 172 568 235 b 419 499 568 436 504 499 b 292 438 374 499 318 474 l 292 232 m 78 0 l 78 926 l 292 926 l 292 592 b 490 688 344 658 417 688 b 786 336 657 688 786 556 b 490 -17 786 108 656 -17 b 292 78 415 -17 347 14 l 292 0 "},"c":{"ha":694,"x_min":0,"x_max":0,"o":"m 400 -17 b 33 336 190 -17 33 125 b 400 688 33 546 190 688 b 675 564 544 688 635 624 l 536 435 b 410 499 510 474 467 499 b 253 336 321 499 253 438 b 410 172 253 235 321 172 b 536 238 467 172 510 200 l 675 107 b 400 -17 635 49 544 -17 "},"d":{"ha":821,"x_min":0,"x_max":0,"o":"m 529 0 l 529 78 b 331 -17 474 14 406 -17 b 33 336 165 -17 33 108 b 331 688 33 556 163 688 b 529 592 404 688 475 658 l 529 926 l 742 926 l 742 0 m 400 172 b 529 233 446 172 501 197 l 529 439 b 400 499 501 475 446 499 b 253 336 315 499 253 436 b 400 172 253 236 315 172 "},"e":{"ha":761,"x_min":0,"x_max":0,"o":"m 400 -17 b 33 336 193 -17 33 118 b 390 688 33 531 181 688 b 733 314 589 688 733 542 l 733 268 l 256 268 b 424 149 268 206 326 149 b 590 206 471 149 553 169 l 681 72 b 400 -17 614 13 503 -17 m 529 407 b 390 522 524 454 489 522 b 253 407 297 522 261 456 l 529 407 "},"f":{"ha":485,"x_min":0,"x_max":0,"o":"m 124 0 l 124 485 l 13 485 l 13 671 l 124 671 l 124 704 b 364 940 124 846 224 940 b 557 874 436 940 511 921 l 478 751 b 411 778 461 769 442 778 b 338 704 371 778 338 751 l 338 671 l 474 671 l 474 485 l 338 485 l 338 0 "},"g":{"ha":819,"x_min":0,"x_max":0,"o":"m 357 -272 b 60 -172 242 -272 146 -243 l 153 -19 b 357 -97 204 -75 279 -97 b 528 57 428 -97 528 -68 l 528 108 b 329 11 472 43 406 11 b 33 350 165 11 33 124 b 329 688 33 571 161 688 b 528 592 404 688 474 658 l 528 671 l 740 671 l 740 60 b 357 -272 740 -214 524 -272 m 400 200 b 528 260 444 200 501 224 l 528 439 b 400 499 501 475 444 499 b 253 350 315 499 253 447 b 400 200 253 251 315 200 "},"h":{"ha":825,"x_min":0,"x_max":0,"o":"m 533 0 l 533 390 b 422 499 533 472 490 499 b 293 433 360 499 318 464 l 293 0 l 79 0 l 79 926 l 293 926 l 293 589 b 525 688 333 636 413 688 b 747 478 678 688 747 601 l 747 0 "},"i":{"ha":369,"x_min":0,"x_max":0,"o":"m 185 731 b 63 854 117 731 63 786 b 185 976 63 922 117 976 b 307 854 253 976 307 922 b 185 731 307 786 253 731 m 78 0 l 78 671 l 292 671 l 292 0 "},"j":{"ha":369,"x_min":0,"x_max":0,"o":"m 185 731 b 63 854 117 731 63 786 b 185 976 63 922 117 976 b 307 854 253 976 307 922 b 185 731 307 786 253 731 m 32 -272 b -144 -225 -61 -272 -93 -258 l -90 -68 b -4 -97 -64 -89 -44 -97 b 78 6 46 -97 78 -64 l 78 671 l 292 671 l 292 6 b 32 -272 292 -157 211 -272 "},"k":{"ha":758,"x_min":0,"x_max":0,"o":"m 503 0 l 356 238 l 292 161 l 292 0 l 78 0 l 78 926 l 292 926 l 292 403 l 496 671 l 754 671 l 507 365 l 767 0 "},"l":{"ha":369,"x_min":0,"x_max":0,"o":"m 78 0 l 78 926 l 292 926 l 292 0 "},"m":{"ha":1215,"x_min":0,"x_max":0,"o":"m 924 0 l 924 408 b 835 499 924 460 899 499 b 714 433 776 499 735 461 l 714 0 l 500 0 l 500 408 b 411 499 500 460 476 499 b 292 433 354 499 314 461 l 292 0 l 78 0 l 78 671 l 292 671 l 292 589 b 513 688 321 628 407 688 b 703 568 608 688 675 647 b 935 688 742 626 829 688 b 1136 486 1058 688 1136 624 l 1136 0 "},"n":{"ha":824,"x_min":0,"x_max":0,"o":"m 532 0 l 532 388 b 422 499 532 469 489 499 b 292 433 358 499 317 464 l 292 0 l 78 0 l 78 671 l 292 671 l 292 589 b 524 688 332 636 411 688 b 746 475 676 688 746 599 l 746 0 "},"o":{"ha":800,"x_min":0,"x_max":0,"o":"m 399 -17 b 33 336 171 -17 33 147 b 399 688 33 525 171 688 b 765 336 629 688 765 525 b 399 -17 765 147 629 -17 m 399 172 b 546 336 493 172 546 246 b 399 499 546 425 493 499 b 254 336 306 499 254 425 b 399 172 254 246 306 172 "},"p":{"ha":818,"x_min":0,"x_max":0,"o":"m 490 -17 b 292 79 415 -17 347 13 l 292 -256 l 78 -256 l 78 671 l 292 671 l 292 593 b 490 688 344 657 414 688 b 785 336 658 688 785 563 b 490 -17 785 108 658 -17 m 419 172 b 567 336 503 172 567 235 b 419 499 567 436 503 499 b 292 438 374 499 318 474 l 292 233 b 419 172 318 199 374 172 "},"q":{"ha":818,"x_min":0,"x_max":0,"o":"m 400 172 b 526 233 444 172 501 199 l 526 438 b 400 499 500 474 444 499 b 251 336 315 499 251 436 b 400 172 251 235 315 172 m 328 -17 b 33 336 160 -17 33 108 b 328 688 33 563 160 688 b 526 593 404 688 474 657 l 526 671 l 740 671 l 740 -256 l 526 -256 l 526 79 b 328 -17 471 13 403 -17 "},"r":{"ha":521,"x_min":0,"x_max":0,"o":"m 78 0 l 78 671 l 292 671 l 292 589 b 501 689 336 643 421 689 l 501 483 b 449 489 489 486 471 489 b 292 428 393 489 319 465 l 292 0 "},"s":{"ha":672,"x_min":0,"x_max":0,"o":"m 335 -17 b 21 86 215 -17 92 24 l 110 233 b 346 144 160 189 267 144 b 436 196 410 144 436 165 b 46 467 436 283 46 197 b 333 688 46 585 147 688 b 614 599 446 688 542 651 l 532 457 b 335 531 492 496 415 531 b 250 482 285 531 250 510 b 640 206 250 404 640 481 b 335 -17 640 78 528 -17 "},"t":{"ha":500,"x_min":0,"x_max":0,"o":"m 332 -17 b 122 181 196 -17 122 51 l 122 485 l 11 485 l 11 671 l 122 671 l 122 854 l 335 854 l 335 671 l 471 671 l 471 485 l 335 485 l 335 240 b 394 172 335 201 357 172 b 449 189 418 172 442 181 l 490 28 b 332 -17 464 3 411 -17 "},"u":{"ha":822,"x_min":0,"x_max":0,"o":"m 531 0 l 531 81 b 299 -17 489 33 411 -17 b 78 193 146 -17 78 69 l 78 671 l 292 671 l 292 281 b 403 172 292 200 333 172 b 531 238 464 172 506 206 l 531 671 l 744 671 l 744 0 "},"v":{"ha":728,"x_min":0,"x_max":0,"o":"m 250 0 l -14 671 l 211 671 l 363 246 l 515 671 l 742 671 l 478 0 "},"w":{"ha":1093,"x_min":0,"x_max":0,"o":"m 672 0 l 546 415 l 421 0 l 190 0 l -8 671 l 211 671 l 319 260 l 451 671 l 642 671 l 774 260 l 881 671 l 1101 671 l 903 0 "},"x":{"ha":711,"x_min":0,"x_max":0,"o":"m 485 0 l 356 203 l 225 0 l -8 0 l 221 344 l 6 671 l 240 671 l 356 489 l 469 671 l 704 671 l 490 344 l 719 0 "},"y":{"ha":728,"x_min":0,"x_max":0,"o":"m 94 -71 b 147 -83 110 -79 131 -83 b 238 -46 196 -83 226 -74 l 253 -10 l -14 671 l 211 671 l 363 246 l 515 671 l 742 671 l 439 -96 b 156 -272 385 -237 283 -269 b 64 -261 136 -272 86 -268 "},"z":{"ha":671,"x_min":0,"x_max":0,"o":"m 53 0 l 53 157 l 322 485 l 53 485 l 53 671 l 613 671 l 613 519 l 338 185 l 618 185 l 618 0 "},"":{"ha":846,"x_min":0,"x_max":0,"o":"m 558 764 l 861 0 l 614 0 l 575 106 l 271 106 l 233 0 l -15 0 l 289 764 m 424 543 l 333 297 l 513 297 "},"":{"ha":836,"x_min":0,"x_max":0,"o":"m 78 0 l 78 764 l 538 764 b 778 568 700 764 778 665 b 647 394 778 478 721 415 b 794 208 732 376 794 301 b 553 0 794 97 714 0 m 506 182 b 569 239 544 182 569 206 b 506 297 569 271 544 297 l 300 297 l 300 182 l 506 182 m 497 478 b 553 529 531 478 553 500 b 497 582 553 558 531 582 l 300 582 l 300 478 l 497 478 "},"":{"ha":815,"x_min":0,"x_max":0,"o":"m 454 -17 b 33 382 211 -17 33 147 b 454 781 33 618 211 781 b 797 567 632 781 744 679 l 613 481 b 454 586 586 540 526 586 b 257 382 339 586 257 499 b 454 178 257 267 339 178 b 613 282 526 178 586 222 l 797 197 b 454 -17 746 86 632 -17 "},"":{"ha":876,"x_min":0,"x_max":0,"o":"m 78 0 l 78 764 l 421 764 b 843 382 676 764 843 619 b 422 0 843 146 676 0 m 421 192 b 619 382 554 192 619 281 b 422 572 619 488 564 572 l 300 572 l 300 192 l 421 192 "},"":{"ha":729,"x_min":0,"x_max":0,"o":"m 78 0 l 78 764 l 678 764 l 678 578 l 300 578 l 300 481 l 669 481 l 669 294 l 300 294 l 300 186 l 678 186 l 678 0 "},"":{"ha":718,"x_min":0,"x_max":0,"o":"m 78 0 l 78 764 l 678 764 l 678 578 l 300 578 l 300 481 l 669 481 l 669 294 l 300 294 l 300 0 "},"":{"ha":849,"x_min":0,"x_max":0,"o":"m 458 -17 b 33 382 219 -17 33 140 b 458 781 33 626 219 781 b 782 606 615 781 728 694 l 601 504 b 458 585 574 550 524 585 b 258 382 339 585 258 499 b 458 176 258 267 339 176 b 581 218 514 176 556 197 l 581 272 l 426 272 l 426 446 l 801 446 l 801 135 b 458 -17 715 43 599 -17 "},"":{"ha":914,"x_min":0,"x_max":0,"o":"m 615 0 l 615 294 l 300 294 l 300 0 l 78 0 l 78 764 l 300 764 l 300 486 l 615 486 l 615 764 l 836 764 l 836 0 "},"":{"ha":378,"x_min":0,"x_max":0,"o":"m 78 0 l 78 764 l 300 764 l 300 0 "},"":{"ha":608,"x_min":0,"x_max":0,"o":"m 218 -17 b 3 60 140 -17 61 7 l 86 228 b 200 178 115 199 156 178 b 308 281 267 178 308 217 l 308 764 l 531 764 l 531 260 b 218 -17 531 68 408 -17 "},"":{"ha":808,"x_min":0,"x_max":0,"o":"m 550 0 l 344 278 l 300 225 l 300 0 l 78 0 l 78 764 l 300 764 l 300 471 l 532 764 l 799 764 l 489 407 l 817 0 "},"":{"ha":658,"x_min":0,"x_max":0,"o":"m 78 0 l 78 764 l 300 764 l 300 192 l 619 192 l 619 0 "},"":{"ha":1076,"x_min":0,"x_max":0,"o":"m 778 0 l 778 457 l 590 0 l 488 0 l 300 457 l 300 0 l 78 0 l 78 764 l 371 764 l 539 353 l 704 764 l 999 764 l 999 0 "},"":{"ha":913,"x_min":0,"x_max":0,"o":"m 607 0 l 299 421 l 299 0 l 78 0 l 78 764 l 318 764 l 613 363 l 613 764 l 833 764 l 833 0 "},"":{"ha":904,"x_min":0,"x_max":0,"o":"m 451 -17 b 33 382 207 -17 33 150 b 451 781 33 614 207 781 b 869 382 696 781 869 614 b 451 -17 869 150 696 -17 m 451 178 b 644 382 569 178 644 267 b 451 586 644 497 569 586 b 257 382 333 586 257 497 b 451 178 257 267 333 178 "},"":{"ha":790,"x_min":0,"x_max":0,"o":"m 78 0 l 78 764 l 493 764 b 771 504 669 764 771 644 b 493 244 771 364 678 244 l 300 244 l 300 0 m 467 436 b 546 504 515 436 546 465 b 467 572 546 544 515 572 l 300 572 l 300 436 l 467 436 "},"":{"ha":904,"x_min":0,"x_max":0,"o":"m 451 -17 b 33 382 207 -17 33 150 b 451 781 33 614 207 781 b 869 382 696 781 869 614 b 768 111 869 274 832 181 l 818 53 l 686 -51 l 629 17 b 451 -17 576 -4 515 -17 m 451 178 b 492 181 465 178 479 179 l 433 251 l 564 356 l 624 283 b 644 382 636 313 644 346 b 451 586 644 497 569 586 b 257 382 333 586 257 497 b 451 178 257 267 333 178 "},"":{"ha":817,"x_min":0,"x_max":0,"o":"m 525 0 l 397 244 l 300 244 l 300 0 l 78 0 l 78 764 l 493 764 b 771 504 668 764 771 646 b 610 268 771 363 682 290 l 775 0 m 467 436 b 546 504 515 436 546 465 b 467 572 546 544 515 572 l 300 572 l 300 436 l 467 436 "},"":{"ha":725,"x_min":0,"x_max":0,"o":"m 358 -17 b 14 96 207 -17 85 33 l 111 260 b 367 164 165 208 267 164 b 478 225 440 164 478 189 b 40 533 478 321 40 239 b 361 781 40 663 161 781 b 688 671 496 781 606 740 l 586 519 b 360 600 528 569 431 600 b 265 544 297 600 265 575 b 701 239 265 456 701 532 b 358 -17 701 81 576 -17 "},"":{"ha":686,"x_min":0,"x_max":0,"o":"m 232 0 l 232 572 l 25 572 l 25 764 l 661 764 l 661 572 l 454 572 l 454 0 "},"":{"ha":913,"x_min":0,"x_max":0,"o":"m 457 -17 b 78 307 200 -17 78 118 l 78 764 l 301 764 l 301 328 b 457 178 301 240 357 178 b 611 328 556 178 611 240 l 611 764 l 835 764 l 835 308 b 457 -17 835 118 714 -17 "},"":{"ha":846,"x_min":0,"x_max":0,"o":"m 289 0 l -15 764 l 236 764 l 424 239 l 614 764 l 861 764 l 558 0 "},"":{"ha":1131,"x_min":0,"x_max":0,"o":"m 679 0 l 565 446 l 451 0 l 221 0 l -8 764 l 239 764 l 351 288 l 481 764 l 650 764 l 779 286 l 893 764 l 1140 764 l 910 0 "},"":{"ha":824,"x_min":0,"x_max":0,"o":"m 579 0 l 411 246 l 244 0 l -15 0 l 265 392 l 4 764 l 263 764 l 411 538 l 560 764 l 818 764 l 557 393 l 838 0 "},"":{"ha":797,"x_min":0,"x_max":0,"o":"m 290 0 l 290 310 l -15 764 l 233 764 l 400 494 l 565 764 l 813 764 l 510 310 l 510 0 "},"":{"ha":732,"x_min":0,"x_max":0,"o":"m 47 0 l 47 158 l 368 569 l 47 569 l 47 764 l 676 764 l 676 606 l 356 194 l 685 194 l 685 0 "},"Á":{"ha":968,"x_min":0,"x_max":0,"o":"m 713 0 l 667 133 l 301 133 l 256 0 l -15 0 l 333 926 l 633 926 l 983 0 m 483 690 l 365 342 l 601 342 m 536 1004 l 392 1004 l 568 1204 l 757 1204 "},"Ă":{"ha":968,"x_min":0,"x_max":0,"o":"m 713 0 l 667 133 l 301 133 l 256 0 l -15 0 l 333 926 l 633 926 l 983 0 m 483 690 l 365 342 l 601 342 m 726 1088 b 483 965 671 1013 583 965 b 239 1088 385 965 296 1013 l 331 1163 b 483 1082 365 1115 417 1082 b 635 1163 547 1082 600 1111 l 726 1088 "},"Â":{"ha":968,"x_min":0,"x_max":0,"o":"m 579 1004 l 483 1117 l 392 1004 l 265 1004 l 390 1204 l 578 1204 l 707 1004 m 713 0 l 667 133 l 301 133 l 256 0 l -15 0 l 333 926 l 633 926 l 983 0 m 483 690 l 365 342 l 601 342 "},"Ä":{"ha":968,"x_min":0,"x_max":0,"o":"m 742 1086 b 632 976 742 1024 693 976 b 524 1086 572 976 524 1024 b 632 1194 524 1146 572 1194 b 742 1086 693 1194 742 1146 m 444 1086 b 335 976 444 1024 396 976 b 226 1086 274 976 226 1024 b 335 1194 226 1146 274 1194 b 444 1086 396 1194 444 1146 m 713 0 l 667 133 l 301 133 l 256 0 l -15 0 l 333 926 l 633 926 l 983 0 m 483 690 l 365 342 l 601 342 "},"À":{"ha":968,"x_min":0,"x_max":0,"o":"m 713 0 l 667 133 l 301 133 l 256 0 l -15 0 l 333 926 l 633 926 l 983 0 m 483 690 l 365 342 l 601 342 m 431 1004 l 210 1204 l 399 1204 l 575 1004 "},"Ā":{"ha":968,"x_min":0,"x_max":0,"o":"m 713 0 l 667 133 l 301 133 l 256 0 l -15 0 l 333 926 l 633 926 l 983 0 m 483 690 l 365 342 l 601 342 m 231 1004 l 231 1122 l 735 1122 l 735 1004 "},"Ą":{"ha":968,"x_min":0,"x_max":0,"o":"m 1071 -182 b 935 -258 1043 -228 999 -258 b 789 -131 858 -258 789 -221 b 847 0 789 -81 808 -36 l 713 0 l 667 133 l 301 133 l 256 0 l -15 0 l 333 926 l 633 926 l 983 0 b 889 -121 915 -35 889 -76 b 935 -174 889 -161 913 -174 b 989 -131 963 -174 979 -156 m 483 690 l 365 342 l 601 342 "},"Å":{"ha":968,"x_min":0,"x_max":0,"o":"m 713 0 l 667 133 l 301 133 l 256 0 l -15 0 l 333 926 l 633 926 l 983 0 m 483 690 l 365 342 l 601 342 m 486 954 b 335 1104 403 954 335 1022 b 486 1256 335 1188 403 1256 b 633 1104 568 1256 633 1188 b 486 954 633 1022 568 954 m 486 1049 b 540 1104 517 1049 540 1074 b 486 1161 540 1136 517 1161 b 429 1104 454 1161 429 1136 b 486 1049 429 1074 454 1049 "},"Ã":{"ha":968,"x_min":0,"x_max":0,"o":"m 713 0 l 667 133 l 301 133 l 256 0 l -15 0 l 333 926 l 633 926 l 983 0 m 483 690 l 365 342 l 601 342 m 560 1001 b 403 1078 469 1001 447 1078 b 361 1010 381 1078 361 1057 l 253 1010 b 410 1196 253 1133 307 1196 b 567 1119 499 1196 522 1119 b 608 1188 589 1119 608 1140 l 717 1188 b 560 1001 717 1065 663 1001 "},"Ạ":{"ha":968,"x_min":0,"x_max":0,"o":"m 713 0 l 667 133 l 301 133 l 256 0 l -15 0 l 333 926 l 633 926 l 983 0 m 483 690 l 365 342 l 601 342 m 485 -282 b 376 -172 425 -282 376 -233 b 485 -64 376 -112 425 -64 b 593 -172 544 -64 593 -112 b 485 -282 593 -233 544 -282 "},"Ả":{"ha":968,"x_min":0,"x_max":0,"o":"m 713 0 l 667 133 l 301 133 l 256 0 l -15 0 l 333 926 l 633 926 l 983 0 m 483 690 l 365 342 l 601 342 m 368 1060 b 483 1139 386 1113 432 1139 b 600 1036 544 1139 600 1108 b 581 968 600 1010 592 990 l 494 968 b 519 1032 513 988 519 1010 b 483 1072 519 1061 501 1072 b 440 1036 461 1072 447 1056 "},"Ấ":{"ha":968,"x_min":0,"x_max":0,"o":"m 579 947 l 483 1032 l 392 947 l 265 947 l 390 1097 l 578 1097 l 707 947 m 713 0 l 667 133 l 301 133 l 256 0 l -15 0 l 333 926 l 633 926 l 983 0 m 483 690 l 365 342 l 601 342 m 803 1021 l 658 1021 l 835 1171 l 1024 1171 "},"Ậ":{"ha":968,"x_min":0,"x_max":0,"o":"m 713 0 l 667 133 l 301 133 l 256 0 l -15 0 l 333 926 l 633 926 l 983 0 m 483 690 l 365 342 l 601 342 m 578 1004 l 482 1117 l 390 1004 l 264 1004 l 389 1204 l 576 1204 l 706 1004 m 485 -282 b 376 -172 425 -282 376 -233 b 485 -64 376 -112 425 -64 b 593 -172 544 -64 593 -112 b 485 -282 593 -233 544 -282 "},"Ầ":{"ha":968,"x_min":0,"x_max":0,"o":"m 579 947 l 483 1032 l 392 947 l 265 947 l 390 1097 l 578 1097 l 707 947 m 713 0 l 667 133 l 301 133 l 256 0 l -15 0 l 333 926 l 633 926 l 983 0 m 483 690 l 365 342 l 601 342 m 171 1021 l -50 1171 l 139 1171 l 315 1021 "},"Ẩ":{"ha":968,"x_min":0,"x_max":0,"o":"m 579 947 l 483 1032 l 392 947 l 265 947 l 390 1097 l 578 1097 l 707 947 m 713 0 l 667 133 l 301 133 l 256 0 l -15 0 l 333 926 l 633 926 l 983 0 m 483 690 l 365 342 l 601 342 m 604 1104 b 719 1163 622 1143 668 1163 b 836 1086 781 1163 836 1140 b 817 1035 836 1067 828 1051 l 731 1035 b 756 1083 749 1050 756 1067 b 719 1113 756 1104 738 1113 b 676 1086 697 1113 683 1100 "},"Ắ":{"ha":968,"x_min":0,"x_max":0,"o":"m 713 0 l 667 133 l 301 133 l 256 0 l -15 0 l 333 926 l 633 926 l 983 0 m 483 690 l 365 342 l 601 342 m 539 1042 l 394 1042 l 571 1151 l 760 1151 m 726 1022 b 483 950 671 978 583 950 b 239 1022 385 950 296 978 l 331 1067 b 483 1019 365 1039 417 1019 b 635 1067 547 1019 600 1036 l 726 1022 "},"Ẫ":{"ha":968,"x_min":0,"x_max":0,"o":"m 579 942 l 483 997 l 392 942 l 265 942 l 390 1042 l 578 1042 l 707 942 m 713 0 l 667 133 l 301 133 l 256 0 l -15 0 l 333 926 l 633 926 l 983 0 m 483 690 l 365 342 l 601 342 m 558 1051 b 401 1089 468 1051 446 1089 b 360 1056 379 1089 360 1079 l 251 1056 b 408 1149 251 1117 306 1149 b 565 1110 497 1149 521 1110 b 607 1144 588 1110 607 1121 l 715 1144 b 558 1051 715 1083 661 1051 "},"Ằ":{"ha":968,"x_min":0,"x_max":0,"o":"m 713 0 l 667 133 l 301 133 l 256 0 l -15 0 l 333 926 l 633 926 l 983 0 m 483 690 l 365 342 l 601 342 m 432 1042 l 211 1151 l 400 1151 l 576 1042 m 726 1017 b 483 944 671 972 583 944 b 239 1017 385 944 296 972 l 331 1061 b 483 1014 365 1033 417 1014 b 635 1061 547 1014 600 1031 l 726 1017 "},"Ẳ":{"ha":968,"x_min":0,"x_max":0,"o":"m 713 0 l 667 133 l 301 133 l 256 0 l -15 0 l 333 926 l 633 926 l 983 0 m 483 690 l 365 342 l 601 342 m 368 1094 b 483 1138 386 1122 432 1138 b 600 1081 544 1138 600 1121 b 581 1044 600 1067 592 1056 l 494 1044 b 519 1079 513 1054 519 1067 b 483 1100 519 1094 501 1100 b 440 1081 461 1100 447 1092 m 726 1017 b 483 944 671 972 583 944 b 239 1017 385 944 296 972 l 331 1061 b 483 1014 365 1033 417 1014 b 635 1061 547 1014 600 1031 l 726 1017 "},"Ẵ":{"ha":968,"x_min":0,"x_max":0,"o":"m 713 0 l 667 133 l 301 133 l 256 0 l -15 0 l 333 926 l 633 926 l 983 0 m 483 690 l 365 342 l 601 342 m 728 1006 b 485 942 672 967 585 942 b 240 1006 386 942 297 967 l 332 1046 b 485 1003 367 1021 418 1003 b 636 1046 549 1003 601 1018 l 728 1006 m 558 1051 b 401 1089 468 1051 446 1089 b 360 1056 379 1089 360 1079 l 251 1056 b 408 1149 251 1117 306 1149 b 565 1110 497 1149 521 1110 b 607 1144 588 1110 607 1121 l 715 1144 b 558 1051 715 1083 661 1051 "},"Ặ":{"ha":968,"x_min":0,"x_max":0,"o":"m 713 0 l 667 133 l 301 133 l 256 0 l -15 0 l 333 926 l 633 926 l 983 0 m 483 690 l 365 342 l 601 342 m 485 -282 b 376 -172 425 -282 376 -233 b 485 -64 376 -112 425 -64 b 593 -172 544 -64 593 -112 b 485 -282 593 -233 544 -282 m 726 1088 b 483 965 671 1013 583 965 b 239 1088 385 965 296 1013 l 331 1163 b 483 1082 365 1115 417 1082 b 635 1163 547 1082 600 1111 l 726 1088 "},"Æ":{"ha":1360,"x_min":0,"x_max":0,"o":"m 631 0 l 631 133 l 324 133 l 249 0 l -24 0 l 532 926 l 1310 926 l 1310 718 l 869 718 l 869 574 l 1300 574 l 1300 365 l 869 365 l 869 208 l 1310 208 l 1310 0 m 631 690 l 435 342 l 631 342 "},"Ǽ":{"ha":1360,"x_min":0,"x_max":0,"o":"m 804 1004 l 660 1004 l 836 1204 l 1025 1204 m 631 0 l 631 133 l 324 133 l 249 0 l -24 0 l 532 926 l 1310 926 l 1310 718 l 869 718 l 869 574 l 1300 574 l 1300 365 l 869 365 l 869 208 l 1310 208 l 1310 0 m 631 690 l 435 342 l 631 342 "},"Ḃ":{"ha":944,"x_min":0,"x_max":0,"o":"m 83 0 l 83 926 l 608 926 b 879 690 792 926 879 807 b 721 478 879 575 808 497 b 897 251 819 463 897 368 b 625 0 897 117 807 0 m 554 571 b 636 649 603 571 636 603 b 554 725 636 693 603 725 l 322 725 l 322 571 l 554 571 m 563 201 b 654 285 619 201 654 235 b 563 368 654 331 621 368 l 322 368 l 322 201 l 563 201 m 472 976 b 364 1086 413 976 364 1025 b 472 1194 364 1146 413 1194 b 581 1086 532 1194 581 1146 b 472 976 581 1025 532 976 "},"Ć":{"ha":961,"x_min":0,"x_max":0,"o":"m 589 1004 l 444 1004 l 621 1204 l 810 1204 m 538 -17 b 36 463 253 -17 36 178 b 538 942 36 749 253 942 b 942 693 761 942 881 815 l 736 596 b 538 731 706 669 626 731 b 279 463 386 731 279 614 b 538 194 279 311 386 194 b 736 329 626 194 706 256 l 942 232 b 538 -17 882 113 761 -17 "},"Ç":{"ha":961,"x_min":0,"x_max":0,"o":"m 529 -269 b 371 -224 460 -269 400 -247 l 410 -143 b 524 -185 446 -169 486 -185 b 589 -146 557 -185 589 -172 b 554 -115 589 -126 576 -115 b 514 -133 538 -115 524 -124 l 440 -92 l 469 -12 b 36 463 219 15 36 200 b 538 942 36 749 253 942 b 942 693 761 942 881 815 l 736 596 b 538 731 706 669 626 731 b 279 463 386 731 279 614 b 538 194 279 311 386 194 b 736 329 626 194 706 256 l 942 232 b 567 -15 885 118 771 -6 l 547 -62 b 594 -49 561 -54 576 -49 b 689 -149 646 -49 689 -90 b 529 -269 689 -225 617 -269 "},"Ĉ":{"ha":961,"x_min":0,"x_max":0,"o":"m 629 1004 l 533 1117 l 442 1004 l 315 1004 l 440 1204 l 628 1204 l 757 1004 m 538 -17 b 36 463 253 -17 36 178 b 538 942 36 749 253 942 b 942 693 761 942 881 815 l 736 596 b 538 731 706 669 626 731 b 279 463 386 731 279 614 b 538 194 279 311 386 194 b 736 329 626 194 706 256 l 942 232 b 538 -17 882 113 761 -17 "},"Ċ":{"ha":961,"x_min":0,"x_max":0,"o":"m 538 -17 b 36 463 253 -17 36 178 b 538 942 36 749 253 942 b 942 693 761 942 881 815 l 736 596 b 538 731 706 669 626 731 b 279 463 386 731 279 614 b 538 194 279 311 386 194 b 736 329 626 194 706 256 l 942 232 b 538 -17 882 113 761 -17 m 540 976 b 432 1086 481 976 432 1025 b 540 1194 432 1146 481 1194 b 649 1086 600 1194 649 1146 b 540 976 649 1025 600 976 "},"Č":{"ha":961,"x_min":0,"x_max":0,"o":"m 444 1004 l 315 1204 l 442 1204 l 538 1092 l 629 1204 l 757 1204 l 632 1004 m 538 -17 b 36 463 253 -17 36 178 b 538 942 36 749 253 942 b 942 693 761 942 881 815 l 736 596 b 538 731 706 669 626 731 b 279 463 386 731 279 614 b 538 194 279 311 386 194 b 736 329 626 194 706 256 l 942 232 b 538 -17 882 113 761 -17 "},"Ď":{"ha":1010,"x_min":0,"x_max":0,"o":"m 419 1004 l 290 1204 l 417 1204 l 513 1092 l 604 1204 l 732 1204 l 607 1004 m 83 0 l 83 926 l 472 926 b 974 464 764 926 974 751 b 474 0 974 176 764 0 m 472 208 b 729 464 635 208 729 326 b 474 718 729 607 643 718 l 322 718 l 322 208 l 472 208 "},"Đ":{"ha":1042,"x_min":0,"x_max":0,"o":"m 115 0 l 115 369 l 11 369 l 11 551 l 115 551 l 115 926 l 504 926 b 1006 464 796 926 1006 751 b 506 0 1006 176 796 0 m 504 208 b 761 464 667 208 761 326 b 506 718 761 607 675 718 l 354 718 l 354 551 l 549 551 l 549 369 l 354 369 l 354 208 l 504 208 "},"Ḋ":{"ha":1010,"x_min":0,"x_max":0,"o":"m 83 0 l 83 926 l 472 926 b 974 464 764 926 974 751 b 474 0 974 176 764 0 m 472 208 b 729 464 635 208 729 326 b 474 718 729 607 643 718 l 322 718 l 322 208 l 472 208 m 504 976 b 396 1086 444 976 396 1025 b 504 1194 396 1146 444 1194 b 613 1086 564 1194 613 1146 b 504 976 613 1025 564 976 "},"É":{"ha":818,"x_min":0,"x_max":0,"o":"m 476 1004 l 332 1004 l 508 1204 l 697 1204 m 83 0 l 83 926 l 763 926 l 763 718 l 322 718 l 322 574 l 753 574 l 753 365 l 322 365 l 322 208 l 763 208 l 763 0 "},"Ĕ":{"ha":818,"x_min":0,"x_max":0,"o":"m 83 0 l 83 926 l 763 926 l 763 718 l 322 718 l 322 574 l 753 574 l 753 365 l 322 365 l 322 208 l 763 208 l 763 0 m 663 1088 b 419 965 607 1013 519 965 b 175 1088 321 965 232 1013 l 267 1163 b 419 1082 301 1115 353 1082 b 571 1163 483 1082 536 1111 l 663 1088 "},"Ê":{"ha":818,"x_min":0,"x_max":0,"o":"m 517 1004 l 421 1117 l 329 1004 l 203 1004 l 328 1204 l 515 1204 l 644 1004 m 83 0 l 83 926 l 763 926 l 763 718 l 322 718 l 322 574 l 753 574 l 753 365 l 322 365 l 322 208 l 763 208 l 763 0 "},"Ë":{"ha":818,"x_min":0,"x_max":0,"o":"m 683 1086 b 574 976 683 1024 635 976 b 465 1086 514 976 465 1024 b 574 1194 465 1146 514 1194 b 683 1086 635 1194 683 1146 m 386 1086 b 276 976 386 1024 338 976 b 168 1086 215 976 168 1024 b 276 1194 168 1146 215 1194 b 386 1086 338 1194 386 1146 m 83 0 l 83 926 l 763 926 l 763 718 l 322 718 l 322 574 l 753 574 l 753 365 l 322 365 l 322 208 l 763 208 l 763 0 "},"Ė":{"ha":818,"x_min":0,"x_max":0,"o":"m 83 0 l 83 926 l 763 926 l 763 718 l 322 718 l 322 574 l 753 574 l 753 365 l 322 365 l 322 208 l 763 208 l 763 0 m 422 976 b 314 1086 363 976 314 1025 b 422 1194 314 1146 363 1194 b 531 1086 482 1194 531 1146 b 422 976 531 1025 482 976 "},"È":{"ha":818,"x_min":0,"x_max":0,"o":"m 83 0 l 83 926 l 763 926 l 763 718 l 322 718 l 322 574 l 753 574 l 753 365 l 322 365 l 322 208 l 763 208 l 763 0 m 365 1004 l 144 1204 l 333 1204 l 510 1004 "},"Ē":{"ha":818,"x_min":0,"x_max":0,"o":"m 83 0 l 83 926 l 763 926 l 763 718 l 322 718 l 322 574 l 753 574 l 753 365 l 322 365 l 322 208 l 763 208 l 763 0 m 168 1004 l 168 1122 l 672 1122 l 672 1004 "},"Ę":{"ha":818,"x_min":0,"x_max":0,"o":"m 763 0 b 668 -121 694 -35 668 -76 b 714 -174 668 -161 692 -174 b 768 -131 742 -174 758 -156 l 850 -182 b 714 -258 822 -228 778 -258 b 568 -131 638 -258 568 -221 b 626 0 568 -81 588 -36 l 83 0 l 83 926 l 763 926 l 763 718 l 322 718 l 322 574 l 753 574 l 753 365 l 322 365 l 322 208 l 763 208 l 763 0 "},"Ě":{"ha":818,"x_min":0,"x_max":0,"o":"m 332 1004 l 203 1204 l 329 1204 l 425 1092 l 517 1204 l 644 1204 l 519 1004 m 83 0 l 83 926 l 763 926 l 763 718 l 322 718 l 322 574 l 753 574 l 753 365 l 322 365 l 322 208 l 763 208 l 763 0 "},"Ẹ":{"ha":818,"x_min":0,"x_max":0,"o":"m 83 0 l 83 926 l 763 926 l 763 718 l 322 718 l 322 574 l 753 574 l 753 365 l 322 365 l 322 208 l 763 208 l 763 0 m 422 -282 b 314 -172 363 -282 314 -233 b 422 -64 314 -112 363 -64 b 531 -172 482 -64 531 -112 b 422 -282 531 -233 482 -282 "},"Ẻ":{"ha":818,"x_min":0,"x_max":0,"o":"m 83 0 l 83 926 l 763 926 l 763 718 l 322 718 l 322 574 l 753 574 l 753 365 l 322 365 l 322 208 l 763 208 l 763 0 m 299 1060 b 414 1139 317 1113 363 1139 b 531 1036 475 1139 531 1108 b 511 968 531 1010 522 990 l 425 968 b 450 1032 443 988 450 1010 b 414 1072 450 1061 432 1072 b 371 1036 392 1072 378 1056 "},"Ẽ":{"ha":818,"x_min":0,"x_max":0,"o":"m 83 0 l 83 926 l 763 926 l 763 718 l 322 718 l 322 574 l 753 574 l 753 365 l 322 365 l 322 208 l 763 208 l 763 0 m 511 1001 b 354 1078 421 1001 399 1078 b 313 1010 332 1078 313 1057 l 204 1010 b 361 1196 204 1133 258 1196 b 518 1119 450 1196 474 1119 b 560 1188 540 1119 560 1140 l 668 1188 b 511 1001 668 1065 614 1001 "},"Ế":{"ha":818,"x_min":0,"x_max":0,"o":"m 525 947 l 429 1032 l 338 947 l 211 947 l 336 1097 l 524 1097 l 653 947 m 749 1021 l 604 1021 l 781 1171 l 969 1171 m 83 0 l 83 926 l 763 926 l 763 718 l 322 718 l 322 574 l 753 574 l 753 365 l 322 365 l 322 208 l 763 208 l 763 0 "},"Ề":{"ha":818,"x_min":0,"x_max":0,"o":"m 528 947 l 432 1032 l 340 947 l 214 947 l 339 1097 l 526 1097 l 656 947 m 83 0 l 83 926 l 763 926 l 763 718 l 322 718 l 322 574 l 753 574 l 753 365 l 322 365 l 322 208 l 763 208 l 763 0 m 118 1021 l -103 1171 l 86 1171 l 263 1021 "},"Ể":{"ha":818,"x_min":0,"x_max":0,"o":"m 522 947 l 426 1032 l 335 947 l 208 947 l 333 1097 l 521 1097 l 650 947 m 83 0 l 83 926 l 763 926 l 763 718 l 322 718 l 322 574 l 753 574 l 753 365 l 322 365 l 322 208 l 763 208 l 763 0 m 549 1104 b 664 1163 567 1143 613 1163 b 781 1086 725 1163 781 1140 b 761 1035 781 1067 772 1051 l 675 1035 b 700 1083 693 1050 700 1067 b 664 1113 700 1104 682 1113 b 621 1086 642 1113 628 1100 "},"Ễ":{"ha":818,"x_min":0,"x_max":0,"o":"m 524 942 l 428 997 l 336 942 l 210 942 l 335 1042 l 522 1042 l 651 942 m 83 0 l 83 926 l 763 926 l 763 718 l 322 718 l 322 574 l 753 574 l 753 365 l 322 365 l 322 208 l 763 208 l 763 0 m 503 1051 b 346 1089 413 1051 390 1089 b 304 1056 324 1089 304 1079 l 196 1056 b 353 1149 196 1117 250 1149 b 510 1110 442 1149 465 1110 b 551 1144 532 1110 551 1121 l 660 1144 b 503 1051 660 1083 606 1051 "},"Ệ":{"ha":818,"x_min":0,"x_max":0,"o":"m 517 1004 l 421 1117 l 329 1004 l 203 1004 l 328 1204 l 515 1204 l 644 1004 m 83 0 l 83 926 l 763 926 l 763 718 l 322 718 l 322 574 l 753 574 l 753 365 l 322 365 l 322 208 l 763 208 l 763 0 m 422 -282 b 314 -172 363 -282 314 -233 b 422 -64 314 -112 363 -64 b 531 -172 482 -64 531 -112 b 422 -282 531 -233 482 -282 "},"Ḟ":{"ha":808,"x_min":0,"x_max":0,"o":"m 426 976 b 318 1086 367 976 318 1025 b 426 1194 318 1146 367 1194 b 535 1086 486 1194 535 1146 b 426 976 535 1025 486 976 m 83 0 l 83 926 l 763 926 l 763 718 l 322 718 l 322 574 l 753 574 l 753 365 l 322 365 l 322 0 "},"Ĝ":{"ha":1004,"x_min":0,"x_max":0,"o":"m 633 1004 l 538 1117 l 446 1004 l 319 1004 l 444 1204 l 632 1204 l 761 1004 m 538 -17 b 36 463 261 -17 36 168 b 538 942 36 757 261 942 b 933 717 744 942 869 832 l 733 613 b 538 731 699 674 628 731 b 279 463 386 731 279 614 b 538 194 279 311 386 194 b 708 250 606 194 675 222 l 708 322 l 500 322 l 500 532 l 947 532 l 947 164 b 538 -17 847 54 713 -17 "},"Ğ":{"ha":1004,"x_min":0,"x_max":0,"o":"m 538 -17 b 36 463 261 -17 36 168 b 538 942 36 757 261 942 b 933 717 744 942 869 832 l 733 613 b 538 731 699 674 628 731 b 279 463 386 731 279 614 b 538 194 279 311 386 194 b 708 250 606 194 675 222 l 708 322 l 500 322 l 500 532 l 947 532 l 947 164 b 538 -17 847 54 713 -17 m 782 1088 b 539 965 726 1013 639 965 b 294 1088 440 965 351 1013 l 386 1163 b 539 1082 421 1115 472 1082 b 690 1163 603 1082 656 1111 l 782 1088 "},"Ġ":{"ha":1004,"x_min":0,"x_max":0,"o":"m 538 -17 b 36 463 261 -17 36 168 b 538 942 36 757 261 942 b 933 717 744 942 869 832 l 733 613 b 538 731 699 674 628 731 b 279 463 386 731 279 614 b 538 194 279 311 386 194 b 708 250 606 194 675 222 l 708 322 l 500 322 l 500 532 l 947 532 l 947 164 b 538 -17 847 54 713 -17 m 539 976 b 431 1086 479 976 431 1025 b 539 1194 431 1146 479 1194 b 647 1086 599 1194 647 1146 b 539 976 647 1025 599 976 "},"Ģ":{"ha":1004,"x_min":0,"x_max":0,"o":"m 647 -193 b 525 -411 647 -281 599 -358 l 457 -357 b 547 -250 492 -337 536 -290 b 524 -254 543 -253 533 -254 b 442 -167 478 -254 442 -219 b 539 -68 442 -112 486 -68 b 647 -193 596 -68 647 -114 m 538 -17 b 36 463 261 -17 36 168 b 538 942 36 757 261 942 b 933 717 744 942 869 832 l 733 613 b 538 731 699 674 628 731 b 279 463 386 731 279 614 b 538 194 279 311 386 194 b 708 250 606 194 675 222 l 708 322 l 500 322 l 500 532 l 947 532 l 947 164 b 538 -17 847 54 713 -17 "},"Ħ":{"ha":1051,"x_min":0,"x_max":0,"o":"m 718 0 l 718 372 l 333 372 l 333 0 l 94 0 l 94 693 l 11 693 l 11 811 l 94 811 l 94 926 l 333 926 l 333 811 l 718 811 l 718 926 l 957 926 l 957 811 l 1040 811 l 1040 693 l 957 693 l 957 0 m 718 581 l 718 693 l 333 693 l 333 581 "},"Ĥ":{"ha":1029,"x_min":0,"x_max":0,"o":"m 607 1004 l 511 1117 l 419 1004 l 293 1004 l 418 1204 l 606 1204 l 735 1004 m 707 0 l 707 372 l 322 372 l 322 0 l 83 0 l 83 926 l 322 926 l 322 581 l 707 581 l 707 926 l 946 926 l 946 0 "},"Ḣ":{"ha":1029,"x_min":0,"x_max":0,"o":"m 707 0 l 707 372 l 322 372 l 322 0 l 83 0 l 83 926 l 322 926 l 322 581 l 707 581 l 707 926 l 946 926 l 946 0 m 515 976 b 407 1086 456 976 407 1025 b 515 1194 407 1146 456 1194 b 624 1086 575 1194 624 1146 b 515 976 624 1025 575 976 "},"Í":{"ha":406,"x_min":0,"x_max":0,"o":"m 83 0 l 83 926 l 322 926 l 322 0 m 257 1004 l 113 1004 l 289 1204 l 478 1204 "},"Ĭ":{"ha":406,"x_min":0,"x_max":0,"o":"m 83 0 l 83 926 l 322 926 l 322 0 m 451 1088 b 208 965 396 1013 308 965 b -36 1088 110 965 21 1013 l 56 1163 b 208 1082 90 1115 142 1082 b 360 1163 272 1082 325 1111 l 451 1088 "},"Î":{"ha":406,"x_min":0,"x_max":0,"o":"m 296 1004 l 200 1117 l 108 1004 l -18 1004 l 107 1204 l 294 1204 l 424 1004 m 83 0 l 83 926 l 322 926 l 322 0 "},"Ï":{"ha":406,"x_min":0,"x_max":0,"o":"m 461 1086 b 351 976 461 1024 413 976 b 243 1086 292 976 243 1024 b 351 1194 243 1146 292 1194 b 461 1086 413 1194 461 1146 m 164 1086 b 54 976 164 1024 115 976 b -54 1086 -7 976 -54 1024 b 54 1194 -54 1146 -7 1194 b 164 1086 115 1194 164 1146 m 83 0 l 83 926 l 322 926 l 322 0 "},"İ":{"ha":406,"x_min":0,"x_max":0,"o":"m 83 0 l 83 926 l 322 926 l 322 0 m 206 976 b 97 1086 146 976 97 1025 b 206 1194 97 1146 146 1194 b 314 1086 265 1194 314 1146 b 206 976 314 1025 265 976 "},"Ì":{"ha":406,"x_min":0,"x_max":0,"o":"m 83 0 l 83 926 l 322 926 l 322 0 m 151 1004 l -69 1204 l 119 1204 l 296 1004 "},"Ī":{"ha":406,"x_min":0,"x_max":0,"o":"m 83 0 l 83 926 l 322 926 l 322 0 m -49 1004 l -49 1122 l 456 1122 l 456 1004 "},"Į":{"ha":406,"x_min":0,"x_max":0,"o":"m 411 -182 b 275 -258 383 -228 339 -258 b 129 -131 199 -258 129 -221 b 188 0 129 -81 149 -36 l 83 0 l 83 926 l 322 926 l 322 0 l 324 0 b 229 -121 256 -35 229 -76 b 275 -174 229 -161 253 -174 b 329 -131 303 -174 319 -156 "},"Ĩ":{"ha":406,"x_min":0,"x_max":0,"o":"m 83 0 l 83 926 l 322 926 l 322 0 m 279 1001 b 122 1078 189 1001 167 1078 b 81 1010 100 1078 81 1057 l -28 1010 b 129 1196 -28 1133 26 1196 b 286 1119 218 1196 242 1119 b 328 1188 308 1119 328 1140 l 436 1188 b 279 1001 436 1065 382 1001 "},"Ỉ":{"ha":406,"x_min":0,"x_max":0,"o":"m 83 0 l 83 926 l 322 926 l 322 0 m 88 1060 b 203 1139 106 1113 151 1139 b 319 1036 264 1139 319 1108 b 300 968 319 1010 311 990 l 214 968 b 239 1032 232 988 239 1010 b 203 1072 239 1061 221 1072 b 160 1036 181 1072 167 1056 "},"Ị":{"ha":406,"x_min":0,"x_max":0,"o":"m 83 0 l 83 926 l 322 926 l 322 0 m 207 -282 b 99 -172 147 -282 99 -233 b 207 -64 99 -112 147 -64 b 315 -172 267 -64 315 -112 b 207 -282 315 -233 267 -282 "},"Ĳ":{"ha":1089,"x_min":0,"x_max":0,"o":"m 83 0 l 83 926 l 322 926 l 322 0 m 664 -17 b 410 67 571 -17 479 6 l 510 249 b 643 194 543 221 588 194 b 767 321 718 194 767 243 l 767 926 l 1006 926 l 1006 318 b 664 -17 1006 89 867 -17 "},"Ĵ":{"ha":683,"x_min":0,"x_max":0,"o":"m 576 1004 l 481 1117 l 389 1004 l 263 1004 l 388 1204 l 575 1204 l 704 1004 m 258 -17 b 4 67 165 -17 74 6 l 104 249 b 238 194 138 221 182 194 b 361 321 313 194 361 243 l 361 926 l 600 926 l 600 318 b 258 -17 600 89 461 -17 "},"Ķ":{"ha":928,"x_min":0,"x_max":0,"o":"m 572 -193 b 450 -411 572 -281 524 -358 l 382 -357 b 472 -250 417 -337 461 -290 b 449 -254 468 -253 458 -254 b 367 -167 403 -254 367 -219 b 464 -68 367 -112 411 -68 b 572 -193 521 -68 572 -114 m 628 0 l 385 349 l 322 271 l 322 0 l 83 0 l 83 926 l 322 926 l 322 546 l 607 926 l 901 926 l 542 493 l 921 0 "},"Ĺ":{"ha":735,"x_min":0,"x_max":0,"o":"m 439 1004 l 294 1004 l 471 1204 l 660 1204 m 83 0 l 83 926 l 322 926 l 322 208 l 694 208 l 694 0 "},"Ľ":{"ha":735,"x_min":0,"x_max":0,"o":"m 629 821 b 507 603 629 733 581 656 l 439 657 b 529 764 474 676 518 724 b 506 760 525 761 515 760 b 424 847 460 760 424 794 b 521 946 424 901 468 946 b 629 821 578 946 629 900 m 83 0 l 83 926 l 322 926 l 322 208 l 694 208 l 694 0 "},"Ļ":{"ha":735,"x_min":0,"x_max":0,"o":"m 472 -193 b 350 -411 472 -281 424 -358 l 282 -357 b 372 -250 317 -337 361 -290 b 349 -254 368 -253 358 -254 b 267 -167 303 -254 267 -219 b 364 -68 267 -112 311 -68 b 472 -193 421 -68 472 -114 m 83 0 l 83 926 l 322 926 l 322 208 l 694 208 l 694 0 "},"Ŀ":{"ha":792,"x_min":0,"x_max":0,"o":"m 83 0 l 83 926 l 322 926 l 322 208 l 694 208 l 694 0 m 729 475 b 599 346 729 406 669 346 b 469 475 528 346 469 406 b 599 606 469 546 528 606 b 729 475 669 606 729 546 "},"Ł":{"ha":751,"x_min":0,"x_max":0,"o":"m 11 438 l 99 488 l 99 926 l 338 926 l 338 626 l 431 681 l 431 488 l 338 433 l 338 208 l 710 208 l 710 0 l 99 0 l 99 296 l 11 246 "},"Ń":{"ha":1028,"x_min":0,"x_max":0,"o":"m 567 1004 l 422 1004 l 599 1204 l 788 1204 m 714 0 l 322 536 l 322 0 l 83 0 l 83 926 l 329 926 l 704 417 l 704 926 l 944 926 l 944 0 "},"Ň":{"ha":1028,"x_min":0,"x_max":0,"o":"m 421 1004 l 292 1204 l 418 1204 l 514 1092 l 606 1204 l 733 1204 l 608 1004 m 714 0 l 322 536 l 322 0 l 83 0 l 83 926 l 329 926 l 704 417 l 704 926 l 944 926 l 944 0 "},"Ņ":{"ha":1028,"x_min":0,"x_max":0,"o":"m 621 -193 b 499 -411 621 -281 572 -358 l 431 -357 b 521 -250 465 -337 510 -290 b 497 -254 517 -253 507 -254 b 415 -167 451 -254 415 -219 b 513 -68 415 -112 460 -68 b 621 -193 569 -68 621 -114 m 714 0 l 322 536 l 322 0 l 83 0 l 83 926 l 329 926 l 704 417 l 704 926 l 944 926 l 944 0 "},"Ñ":{"ha":1028,"x_min":0,"x_max":0,"o":"m 586 1001 b 429 1078 496 1001 474 1078 b 388 1010 407 1078 388 1057 l 279 1010 b 436 1196 279 1133 333 1196 b 593 1119 525 1196 549 1119 b 635 1188 615 1119 635 1140 l 743 1188 b 586 1001 743 1065 689 1001 m 714 0 l 322 536 l 322 0 l 83 0 l 83 926 l 329 926 l 704 417 l 704 926 l 944 926 l 944 0 "},"Ŋ":{"ha":1028,"x_min":0,"x_max":0,"o":"m 601 -272 b 347 -189 510 -272 418 -250 l 447 -7 b 581 -61 481 -35 525 -61 b 699 21 640 -61 683 -31 l 322 536 l 322 0 l 83 0 l 83 926 l 329 926 l 704 417 l 704 926 l 944 926 l 944 61 b 601 -272 944 -167 804 -272 "},"Ó":{"ha":1064,"x_min":0,"x_max":0,"o":"m 583 1004 l 439 1004 l 615 1204 l 804 1204 m 532 -17 b 36 463 249 -17 36 181 b 532 942 36 744 249 942 b 1026 463 815 942 1026 744 b 532 -17 1026 181 815 -17 m 532 194 b 783 463 685 194 783 313 b 532 731 783 614 685 731 b 279 463 378 731 279 614 b 532 194 279 313 378 194 "},"Ŏ":{"ha":1064,"x_min":0,"x_max":0,"o":"m 532 -17 b 36 463 249 -17 36 181 b 532 942 36 744 249 942 b 1026 463 815 942 1026 744 b 532 -17 1026 181 815 -17 m 532 194 b 783 463 685 194 783 313 b 532 731 783 614 685 731 b 279 463 378 731 279 614 b 532 194 279 313 378 194 m 775 1088 b 532 965 719 1013 632 965 b 288 1088 433 965 344 1013 l 379 1163 b 532 1082 414 1115 465 1082 b 683 1163 596 1082 649 1111 l 775 1088 "},"Ô":{"ha":1064,"x_min":0,"x_max":0,"o":"m 629 1004 l 533 1117 l 442 1004 l 315 1004 l 440 1204 l 628 1204 l 757 1004 m 532 -17 b 36 463 249 -17 36 181 b 532 942 36 744 249 942 b 1026 463 815 942 1026 744 b 532 -17 1026 181 815 -17 m 532 194 b 783 463 685 194 783 313 b 532 731 783 614 685 731 b 279 463 378 731 279 614 b 532 194 279 313 378 194 "},"Ö":{"ha":1064,"x_min":0,"x_max":0,"o":"m 793 1086 b 683 976 793 1024 744 976 b 575 1086 624 976 575 1024 b 683 1194 575 1146 624 1194 b 793 1086 744 1194 793 1146 m 496 1086 b 386 976 496 1024 447 976 b 278 1086 325 976 278 1024 b 386 1194 278 1146 325 1194 b 496 1086 447 1194 496 1146 m 532 -17 b 36 463 249 -17 36 181 b 532 942 36 744 249 942 b 1026 463 815 942 1026 744 b 532 -17 1026 181 815 -17 m 532 194 b 783 463 685 194 783 313 b 532 731 783 614 685 731 b 279 463 378 731 279 614 b 532 194 279 313 378 194 "},"Ò":{"ha":1064,"x_min":0,"x_max":0,"o":"m 479 1004 l 258 1204 l 447 1204 l 624 1004 m 532 -17 b 36 463 249 -17 36 181 b 532 942 36 744 249 942 b 1026 463 815 942 1026 744 b 532 -17 1026 181 815 -17 m 532 194 b 783 463 685 194 783 313 b 532 731 783 614 685 731 b 279 463 378 731 279 614 b 532 194 279 313 378 194 "},"Ő":{"ha":1064,"x_min":0,"x_max":0,"o":"m 472 1004 l 351 1004 l 468 1204 l 632 1204 m 685 1004 l 564 1004 l 679 1204 l 844 1204 m 532 -17 b 36 463 249 -17 36 181 b 532 942 36 744 249 942 b 1026 463 815 942 1026 744 b 532 -17 1026 181 815 -17 m 532 194 b 783 463 685 194 783 313 b 532 731 783 614 685 731 b 279 463 378 731 279 614 b 532 194 279 313 378 194 "},"Ō":{"ha":1064,"x_min":0,"x_max":0,"o":"m 279 1004 l 279 1122 l 783 1122 l 783 1004 m 532 -17 b 36 463 249 -17 36 181 b 532 942 36 744 249 942 b 1026 463 815 942 1026 744 b 532 -17 1026 181 815 -17 m 532 194 b 783 463 685 194 783 313 b 532 731 783 614 685 731 b 279 463 378 731 279 614 b 532 194 279 313 378 194 "},"Ø":{"ha":1064,"x_min":0,"x_max":0,"o":"m 532 -17 b 268 50 433 -17 343 7 l 228 0 l 61 0 l 165 129 b 36 463 83 213 36 328 b 532 942 36 744 249 942 b 775 886 622 942 704 922 l 808 926 l 975 926 l 882 811 b 1026 463 972 726 1026 606 b 532 -17 1026 181 815 -17 m 532 194 b 783 463 685 194 783 313 b 735 628 783 525 765 583 l 408 224 b 532 194 444 206 485 194 m 279 463 b 315 315 279 408 292 357 l 633 710 b 532 731 603 724 569 731 b 279 463 378 731 279 614 "},"Ǿ":{"ha":1064,"x_min":0,"x_max":0,"o":"m 583 1004 l 439 1004 l 615 1204 l 804 1204 m 532 -17 b 268 50 433 -17 343 7 l 228 0 l 61 0 l 165 129 b 36 463 83 213 36 328 b 532 942 36 744 249 942 b 775 886 622 942 704 922 l 808 926 l 975 926 l 882 811 b 1026 463 972 726 1026 606 b 532 -17 1026 181 815 -17 m 532 194 b 783 463 685 194 783 313 b 735 628 783 525 765 583 l 408 224 b 532 194 444 206 485 194 m 279 463 b 315 315 279 408 292 357 l 633 710 b 532 731 603 724 569 731 b 279 463 378 731 279 614 "},"Õ":{"ha":1064,"x_min":0,"x_max":0,"o":"m 532 -17 b 36 463 249 -17 36 181 b 532 942 36 744 249 942 b 1026 463 815 942 1026 744 b 532 -17 1026 181 815 -17 m 532 194 b 783 463 685 194 783 313 b 532 731 783 614 685 731 b 279 463 378 731 279 614 b 532 194 279 313 378 194 m 607 1001 b 450 1078 517 1001 494 1078 b 408 1010 428 1078 408 1057 l 300 1010 b 457 1196 300 1133 354 1196 b 614 1119 546 1196 569 1119 b 656 1188 636 1119 656 1140 l 764 1188 b 607 1001 764 1065 710 1001 "},"Ọ":{"ha":1064,"x_min":0,"x_max":0,"o":"m 532 -17 b 36 463 249 -17 36 181 b 532 942 36 744 249 942 b 1026 463 815 942 1026 744 b 532 -17 1026 181 815 -17 m 532 194 b 783 463 685 194 783 313 b 532 731 783 614 685 731 b 279 463 378 731 279 614 b 532 194 279 313 378 194 m 535 -282 b 426 -172 475 -282 426 -233 b 535 -64 426 -112 475 -64 b 643 -172 594 -64 643 -112 b 535 -282 643 -233 594 -282 "},"Ỏ":{"ha":1064,"x_min":0,"x_max":0,"o":"m 532 -17 b 36 463 249 -17 36 181 b 532 942 36 744 249 942 b 1026 463 815 942 1026 744 b 532 -17 1026 181 815 -17 m 532 194 b 783 463 685 194 783 313 b 532 731 783 614 685 731 b 279 463 378 731 279 614 b 532 194 279 313 378 194 m 413 1060 b 528 1139 431 1113 476 1139 b 644 1036 589 1139 644 1108 b 625 968 644 1010 636 990 l 539 968 b 564 1032 557 988 564 1010 b 528 1072 564 1061 546 1072 b 485 1036 506 1072 492 1056 "},"Ố":{"ha":1064,"x_min":0,"x_max":0,"o":"m 619 947 l 524 1032 l 432 947 l 306 947 l 431 1097 l 618 1097 l 747 947 m 843 1021 l 699 1021 l 875 1171 l 1064 1171 m 532 -17 b 36 463 249 -17 36 181 b 532 942 36 744 249 942 b 1026 463 815 942 1026 744 b 532 -17 1026 181 815 -17 m 532 194 b 783 463 685 194 783 313 b 532 731 783 614 685 731 b 279 463 378 731 279 614 b 532 194 279 313 378 194 "},"Ồ":{"ha":1064,"x_min":0,"x_max":0,"o":"m 618 947 l 522 1032 l 431 947 l 304 947 l 429 1097 l 617 1097 l 746 947 m 532 -17 b 36 463 249 -17 36 181 b 532 942 36 744 249 942 b 1026 463 815 942 1026 744 b 532 -17 1026 181 815 -17 m 532 194 b 783 463 685 194 783 313 b 532 731 783 614 685 731 b 279 463 378 731 279 614 b 532 194 279 313 378 194 m 208 1021 l -12 1171 l 176 1171 l 353 1021 "},"Ổ":{"ha":1064,"x_min":0,"x_max":0,"o":"m 621 947 l 525 1032 l 433 947 l 307 947 l 432 1097 l 619 1097 l 749 947 m 532 -17 b 36 463 249 -17 36 181 b 532 942 36 744 249 942 b 1026 463 815 942 1026 744 b 532 -17 1026 181 815 -17 m 532 194 b 783 463 685 194 783 313 b 532 731 783 614 685 731 b 279 463 378 731 279 614 b 532 194 279 313 378 194 m 646 1104 b 761 1163 664 1143 710 1163 b 878 1086 822 1163 878 1140 b 858 1035 878 1067 869 1051 l 772 1035 b 797 1083 790 1050 797 1067 b 761 1113 797 1104 779 1113 b 718 1086 739 1113 725 1100 "},"Ỗ":{"ha":1064,"x_min":0,"x_max":0,"o":"m 622 942 l 526 997 l 435 942 l 308 942 l 433 1042 l 621 1042 l 750 942 m 532 -17 b 36 463 249 -17 36 181 b 532 942 36 744 249 942 b 1026 463 815 942 1026 744 b 532 -17 1026 181 815 -17 m 532 194 b 783 463 685 194 783 313 b 532 731 783 614 685 731 b 279 463 378 731 279 614 b 532 194 279 313 378 194 m 601 1051 b 444 1089 511 1051 489 1089 b 403 1056 422 1089 403 1079 l 294 1056 b 451 1149 294 1117 349 1149 b 608 1110 540 1149 564 1110 b 650 1144 631 1110 650 1121 l 758 1144 b 601 1051 758 1083 704 1051 "},"Ộ":{"ha":1064,"x_min":0,"x_max":0,"o":"m 629 1004 l 533 1117 l 442 1004 l 315 1004 l 440 1204 l 628 1204 l 757 1004 m 532 -17 b 36 463 249 -17 36 181 b 532 942 36 744 249 942 b 1026 463 815 942 1026 744 b 532 -17 1026 181 815 -17 m 532 194 b 783 463 685 194 783 313 b 532 731 783 614 685 731 b 279 463 378 731 279 614 b 532 194 279 313 378 194 m 535 -282 b 426 -172 475 -282 426 -233 b 535 -64 426 -112 475 -64 b 643 -172 594 -64 643 -112 b 535 -282 643 -233 594 -282 "},"Ơ":{"ha":1064,"x_min":0,"x_max":0,"o":"m 532 -17 b 36 463 249 -17 36 181 b 532 942 36 744 249 942 b 899 794 681 942 810 888 b 958 875 925 814 950 846 b 938 871 956 872 946 871 b 864 949 896 871 864 903 b 950 1036 864 997 903 1036 b 1046 925 1001 1036 1046 996 b 946 736 1046 850 1007 783 b 1026 463 997 660 1026 567 b 532 -17 1026 181 815 -17 m 532 194 b 783 463 685 194 783 313 b 532 731 783 614 685 731 b 279 463 378 731 279 614 b 532 194 279 313 378 194 "},"Ớ":{"ha":1064,"x_min":0,"x_max":0,"o":"m 583 1004 l 439 1004 l 615 1204 l 804 1204 m 532 -17 b 36 463 249 -17 36 181 b 532 942 36 744 249 942 b 899 794 681 942 810 888 b 958 875 925 814 950 846 b 938 871 956 872 946 871 b 864 949 896 871 864 903 b 950 1036 864 997 903 1036 b 1046 925 1001 1036 1046 996 b 946 736 1046 850 1007 783 b 1026 463 997 660 1026 567 b 532 -17 1026 181 815 -17 m 532 194 b 783 463 685 194 783 313 b 532 731 783 614 685 731 b 279 463 378 731 279 614 b 532 194 279 313 378 194 "},"Ờ":{"ha":1064,"x_min":0,"x_max":0,"o":"m 532 -17 b 36 463 249 -17 36 181 b 532 942 36 744 249 942 b 899 794 681 942 810 888 b 958 875 925 814 950 846 b 938 871 956 872 946 871 b 864 949 896 871 864 903 b 950 1036 864 997 903 1036 b 1046 925 1001 1036 1046 996 b 946 736 1046 850 1007 783 b 1026 463 997 660 1026 567 b 532 -17 1026 181 815 -17 m 532 194 b 783 463 685 194 783 313 b 532 731 783 614 685 731 b 279 463 378 731 279 614 b 532 194 279 313 378 194 m 479 1004 l 258 1204 l 447 1204 l 624 1004 "},"Ở":{"ha":1064,"x_min":0,"x_max":0,"o":"m 532 -17 b 36 463 249 -17 36 181 b 532 942 36 744 249 942 b 899 794 681 942 810 888 b 958 875 925 814 950 846 b 938 871 956 872 946 871 b 864 949 896 871 864 903 b 950 1036 864 997 903 1036 b 1046 925 1001 1036 1046 996 b 946 736 1046 850 1007 783 b 1026 463 997 660 1026 567 b 532 -17 1026 181 815 -17 m 532 194 b 783 463 685 194 783 313 b 532 731 783 614 685 731 b 279 463 378 731 279 614 b 532 194 279 313 378 194 m 415 1060 b 531 1139 433 1113 479 1139 b 647 1036 592 1139 647 1108 b 628 968 647 1010 639 990 l 542 968 b 567 1032 560 988 567 1010 b 531 1072 567 1061 549 1072 b 488 1036 508 1072 494 1056 "},"Ỡ":{"ha":1064,"x_min":0,"x_max":0,"o":"m 532 -17 b 36 463 249 -17 36 181 b 532 942 36 744 249 942 b 899 794 681 942 810 888 b 958 875 925 814 950 846 b 938 871 956 872 946 871 b 864 949 896 871 864 903 b 950 1036 864 997 903 1036 b 1046 925 1001 1036 1046 996 b 946 736 1046 850 1007 783 b 1026 463 997 660 1026 567 b 532 -17 1026 181 815 -17 m 532 194 b 783 463 685 194 783 313 b 532 731 783 614 685 731 b 279 463 378 731 279 614 b 532 194 279 313 378 194 m 607 1001 b 450 1078 517 1001 494 1078 b 408 1010 428 1078 408 1057 l 300 1010 b 457 1196 300 1133 354 1196 b 614 1119 546 1196 569 1119 b 656 1188 636 1119 656 1140 l 764 1188 b 607 1001 764 1065 710 1001 "},"Ợ":{"ha":1064,"x_min":0,"x_max":0,"o":"m 532 -17 b 36 463 249 -17 36 181 b 532 942 36 744 249 942 b 899 794 681 942 810 888 b 958 875 925 814 950 846 b 938 871 956 872 946 871 b 864 949 896 871 864 903 b 950 1036 864 997 903 1036 b 1046 925 1001 1036 1046 996 b 946 736 1046 850 1007 783 b 1026 463 997 660 1026 567 b 532 -17 1026 181 815 -17 m 532 194 b 783 463 685 194 783 313 b 532 731 783 614 685 731 b 279 463 378 731 279 614 b 532 194 279 313 378 194 m 535 -282 b 426 -172 475 -282 426 -233 b 535 -64 426 -112 475 -64 b 643 -172 594 -64 643 -112 b 535 -282 643 -233 594 -282 "},"Œ":{"ha":1490,"x_min":0,"x_max":0,"o":"m 761 0 l 761 79 b 506 -17 700 14 594 -17 b 36 463 236 -17 36 178 b 506 940 36 747 236 940 b 761 847 594 940 700 910 l 761 926 l 1440 926 l 1440 718 l 1000 718 l 1000 574 l 1431 574 l 1431 365 l 1000 365 l 1000 208 l 1440 208 l 1440 0 m 761 601 b 540 729 721 683 639 729 b 279 463 378 729 279 614 b 540 194 279 311 378 194 b 761 325 639 194 721 243 "},"Ṗ":{"ha":893,"x_min":0,"x_max":0,"o":"m 83 0 l 83 926 l 547 926 b 869 618 756 926 869 786 b 547 311 869 451 756 311 l 322 311 l 322 0 m 515 519 b 626 618 579 519 626 556 b 515 718 626 682 579 718 l 322 718 l 322 519 l 515 519 m 446 976 b 338 1086 386 976 338 1025 b 446 1194 338 1146 386 1194 b 554 1086 506 1194 554 1146 b 446 976 554 1025 506 976 "},"Ŕ":{"ha":918,"x_min":0,"x_max":0,"o":"m 525 1004 l 381 1004 l 557 1204 l 746 1204 m 600 0 l 444 311 l 322 311 l 322 0 l 83 0 l 83 926 l 547 926 b 869 618 753 926 869 790 b 685 340 869 457 771 371 l 874 0 m 511 519 b 626 619 574 519 626 554 b 511 718 626 682 574 718 l 322 718 l 322 519 l 511 519 "},"Ř":{"ha":918,"x_min":0,"x_max":0,"o":"m 371 1004 l 242 1204 l 368 1204 l 464 1092 l 556 1204 l 683 1204 l 558 1004 m 600 0 l 444 311 l 322 311 l 322 0 l 83 0 l 83 926 l 547 926 b 869 618 753 926 869 790 b 685 340 869 457 771 371 l 874 0 m 511 519 b 626 619 574 519 626 554 b 511 718 626 682 574 718 l 322 718 l 322 519 l 511 519 "},"Ŗ":{"ha":918,"x_min":0,"x_max":0,"o":"m 571 -193 b 449 -411 571 -281 522 -358 l 381 -357 b 471 -250 415 -337 460 -290 b 447 -254 467 -253 457 -254 b 365 -167 401 -254 365 -219 b 463 -68 365 -112 410 -68 b 571 -193 519 -68 571 -114 m 600 0 l 444 311 l 322 311 l 322 0 l 83 0 l 83 926 l 547 926 b 869 618 753 926 869 790 b 685 340 869 457 771 371 l 874 0 m 511 519 b 626 619 574 519 626 554 b 511 718 626 682 574 718 l 322 718 l 322 519 l 511 519 "},"Ś":{"ha":842,"x_min":0,"x_max":0,"o":"m 474 1004 l 329 1004 l 506 1204 l 694 1204 m 428 -17 b 17 131 240 -17 110 42 l 143 310 b 439 188 210 243 313 188 b 571 264 521 188 571 219 b 46 646 571 390 46 289 b 415 940 46 801 178 940 b 792 811 564 940 693 896 l 661 640 b 390 736 583 704 482 736 b 290 669 321 736 290 708 b 814 293 290 551 814 638 b 428 -17 814 107 676 -17 "},"Š":{"ha":842,"x_min":0,"x_max":0,"o":"m 319 1004 l 190 1204 l 317 1204 l 413 1092 l 504 1204 l 632 1204 l 507 1004 m 428 -17 b 17 131 240 -17 110 42 l 143 310 b 439 188 210 243 313 188 b 571 264 521 188 571 219 b 46 646 571 390 46 289 b 415 940 46 801 178 940 b 792 811 564 940 693 896 l 661 640 b 390 736 583 704 482 736 b 290 669 321 736 290 708 b 814 293 290 551 814 638 b 428 -17 814 107 676 -17 "},"Ŝ":{"ha":842,"x_min":0,"x_max":0,"o":"m 504 1004 l 408 1117 l 317 1004 l 190 1004 l 315 1204 l 503 1204 l 632 1004 m 428 -17 b 17 131 240 -17 110 42 l 143 310 b 439 188 210 243 313 188 b 571 264 521 188 571 219 b 46 646 571 390 46 289 b 415 940 46 801 178 940 b 792 811 564 940 693 896 l 661 640 b 390 736 583 704 482 736 b 290 669 321 736 290 708 b 814 293 290 551 814 638 b 428 -17 814 107 676 -17 "},"Ş":{"ha":842,"x_min":0,"x_max":0,"o":"m 407 -275 b 249 -229 338 -275 278 -253 l 288 -149 b 401 -190 324 -175 364 -190 b 467 -151 435 -190 467 -178 b 432 -121 467 -132 454 -121 b 392 -139 415 -121 401 -129 l 318 -97 l 350 -12 b 17 131 203 1 96 54 l 143 310 b 439 188 210 243 313 188 b 571 264 521 188 571 219 b 46 646 571 390 46 289 b 415 940 46 801 178 940 b 792 811 564 940 693 896 l 661 640 b 390 736 583 704 482 736 b 290 669 321 736 290 708 b 814 293 290 551 814 638 b 446 -17 814 111 683 -10 l 425 -68 b 472 -54 439 -60 454 -54 b 567 -154 524 -54 567 -96 b 407 -275 567 -231 494 -275 "},"Ș":{"ha":842,"x_min":0,"x_max":0,"o":"m 525 -193 b 403 -411 525 -281 476 -358 l 335 -357 b 425 -250 369 -337 414 -290 b 401 -254 421 -253 411 -254 b 319 -167 356 -254 319 -219 b 417 -68 319 -112 364 -68 b 525 -193 474 -68 525 -114 m 428 -17 b 17 131 240 -17 110 42 l 143 310 b 439 188 210 243 313 188 b 571 264 521 188 571 219 b 46 646 571 390 46 289 b 415 940 46 801 178 940 b 792 811 564 940 693 896 l 661 640 b 390 736 583 704 482 736 b 290 669 321 736 290 708 b 814 293 290 551 814 638 b 428 -17 814 107 676 -17 "},"Ṡ":{"ha":842,"x_min":0,"x_max":0,"o":"m 428 -17 b 17 131 240 -17 110 42 l 143 310 b 439 188 210 243 313 188 b 571 264 521 188 571 219 b 46 646 571 390 46 289 b 415 940 46 801 178 940 b 792 811 564 940 693 896 l 661 640 b 390 736 583 704 482 736 b 290 669 321 736 290 708 b 814 293 290 551 814 638 b 428 -17 814 107 676 -17 m 421 976 b 313 1086 361 976 313 1025 b 421 1194 313 1146 361 1194 b 529 1086 481 1194 529 1146 b 421 976 529 1025 481 976 "},"Ŧ":{"ha":818,"x_min":0,"x_max":0,"o":"m 290 0 l 290 342 l 117 342 l 117 460 l 290 460 l 290 718 l 31 718 l 31 926 l 788 926 l 788 718 l 529 718 l 529 460 l 704 460 l 704 342 l 529 342 l 529 0 "},"Ť":{"ha":818,"x_min":0,"x_max":0,"o":"m 318 1004 l 189 1204 l 315 1204 l 411 1092 l 503 1204 l 631 1204 l 506 1004 m 290 0 l 290 718 l 31 718 l 31 926 l 788 926 l 788 718 l 529 718 l 529 0 "},"Ţ":{"ha":818,"x_min":0,"x_max":0,"o":"m 517 -193 b 394 -411 517 -281 468 -358 l 326 -357 b 417 -250 361 -337 406 -290 b 393 -254 413 -253 403 -254 b 311 -167 347 -254 311 -219 b 408 -68 311 -112 356 -68 b 517 -193 465 -68 517 -114 m 290 0 l 290 718 l 31 718 l 31 926 l 788 926 l 788 718 l 529 718 l 529 0 "},"Ț":{"ha":818,"x_min":0,"x_max":0,"o":"m 517 -193 b 394 -411 517 -281 468 -358 l 326 -357 b 417 -250 361 -337 406 -290 b 393 -254 413 -253 403 -254 b 311 -167 347 -254 311 -219 b 408 -68 311 -112 356 -68 b 517 -193 465 -68 517 -114 m 290 0 l 290 718 l 31 718 l 31 926 l 788 926 l 788 718 l 529 718 l 529 0 "},"Ṫ":{"ha":818,"x_min":0,"x_max":0,"o":"m 290 0 l 290 718 l 31 718 l 31 926 l 788 926 l 788 718 l 529 718 l 529 0 m 408 976 b 300 1086 349 976 300 1025 b 408 1194 300 1146 349 1194 b 517 1086 468 1194 517 1146 b 408 976 517 1025 468 976 "},"Ú":{"ha":1042,"x_min":0,"x_max":0,"o":"m 574 1004 l 429 1004 l 606 1204 l 794 1204 m 522 -17 b 83 375 224 -17 83 147 l 83 926 l 326 926 l 326 383 b 522 194 326 274 392 194 b 717 383 650 194 717 274 l 717 926 l 958 926 l 958 376 b 522 -17 958 146 818 -17 "},"Ŭ":{"ha":1042,"x_min":0,"x_max":0,"o":"m 522 -17 b 83 375 224 -17 83 147 l 83 926 l 326 926 l 326 383 b 522 194 326 274 392 194 b 717 383 650 194 717 274 l 717 926 l 958 926 l 958 376 b 522 -17 958 146 818 -17 m 768 1088 b 525 965 713 1013 625 965 b 281 1088 426 965 338 1013 l 372 1163 b 525 1082 407 1115 458 1082 b 676 1163 589 1082 642 1111 l 768 1088 "},"Û":{"ha":1042,"x_min":0,"x_max":0,"o":"m 622 1004 l 526 1117 l 435 1004 l 308 1004 l 433 1204 l 621 1204 l 750 1004 m 522 -17 b 83 375 224 -17 83 147 l 83 926 l 326 926 l 326 383 b 522 194 326 274 392 194 b 717 383 650 194 717 274 l 717 926 l 958 926 l 958 376 b 522 -17 958 146 818 -17 "},"Ü":{"ha":1042,"x_min":0,"x_max":0,"o":"m 783 1086 b 674 976 783 1024 735 976 b 565 1086 614 976 565 1024 b 674 1194 565 1146 614 1194 b 783 1086 735 1194 783 1146 m 486 1086 b 376 976 486 1024 438 976 b 268 1086 315 976 268 1024 b 376 1194 268 1146 315 1194 b 486 1086 438 1194 486 1146 m 522 -17 b 83 375 224 -17 83 147 l 83 926 l 326 926 l 326 383 b 522 194 326 274 392 194 b 717 383 650 194 717 274 l 717 926 l 958 926 l 958 376 b 522 -17 958 146 818 -17 "},"Ù":{"ha":1042,"x_min":0,"x_max":0,"o":"m 522 -17 b 83 375 224 -17 83 147 l 83 926 l 326 926 l 326 383 b 522 194 326 274 392 194 b 717 383 650 194 717 274 l 717 926 l 958 926 l 958 376 b 522 -17 958 146 818 -17 m 468 1004 l 247 1204 l 436 1204 l 613 1004 "},"Ű":{"ha":1042,"x_min":0,"x_max":0,"o":"m 522 -17 b 83 375 224 -17 83 147 l 83 926 l 326 926 l 326 383 b 522 194 326 274 392 194 b 717 383 650 194 717 274 l 717 926 l 958 926 l 958 376 b 522 -17 958 146 818 -17 m 467 1004 l 346 1004 l 463 1204 l 626 1204 m 679 1004 l 558 1004 l 674 1204 l 839 1204 "},"Ū":{"ha":1042,"x_min":0,"x_max":0,"o":"m 522 -17 b 83 375 224 -17 83 147 l 83 926 l 326 926 l 326 383 b 522 194 326 274 392 194 b 717 383 650 194 717 274 l 717 926 l 958 926 l 958 376 b 522 -17 958 146 818 -17 m 272 1004 l 272 1122 l 776 1122 l 776 1004 "},"Ų":{"ha":1042,"x_min":0,"x_max":0,"o":"m 760 -182 b 624 -258 732 -228 688 -258 b 478 -131 547 -258 478 -221 b 521 -17 478 -87 493 -50 b 83 375 222 -15 83 147 l 83 926 l 326 926 l 326 383 b 522 194 326 274 392 194 b 717 383 650 194 717 274 l 717 926 l 958 926 l 958 376 b 672 0 958 189 865 46 b 578 -121 604 -35 578 -76 b 624 -174 578 -161 601 -174 b 678 -131 651 -174 668 -156 "},"Ů":{"ha":1042,"x_min":0,"x_max":0,"o":"m 525 961 b 374 1111 442 961 374 1029 b 525 1263 374 1194 442 1263 b 672 1111 607 1263 672 1194 b 525 961 672 1029 607 961 m 525 1056 b 579 1111 556 1056 579 1081 b 525 1168 579 1143 556 1168 b 468 1111 493 1168 468 1143 b 525 1056 468 1081 493 1056 m 522 -17 b 83 375 224 -17 83 147 l 83 926 l 326 926 l 326 383 b 522 194 326 274 392 194 b 717 383 650 194 717 274 l 717 926 l 958 926 l 958 376 b 522 -17 958 146 818 -17 "},"Ũ":{"ha":1042,"x_min":0,"x_max":0,"o":"m 522 -17 b 83 375 224 -17 83 147 l 83 926 l 326 926 l 326 383 b 522 194 326 274 392 194 b 717 383 650 194 717 274 l 717 926 l 958 926 l 958 376 b 522 -17 958 146 818 -17 m 599 1001 b 442 1078 508 1001 486 1078 b 400 1010 419 1078 400 1057 l 292 1010 b 449 1196 292 1133 346 1196 b 606 1119 538 1196 561 1119 b 647 1188 628 1119 647 1140 l 756 1188 b 599 1001 756 1065 701 1001 "},"Ụ":{"ha":1042,"x_min":0,"x_max":0,"o":"m 522 -17 b 83 375 224 -17 83 147 l 83 926 l 326 926 l 326 383 b 522 194 326 274 392 194 b 717 383 650 194 717 274 l 717 926 l 958 926 l 958 376 b 522 -17 958 146 818 -17 m 525 -282 b 417 -172 465 -282 417 -233 b 525 -64 417 -112 465 -64 b 633 -172 585 -64 633 -112 b 525 -282 633 -233 585 -282 "},"Ư":{"ha":1042,"x_min":0,"x_max":0,"o":"m 1107 1008 b 958 789 1107 929 1058 839 l 958 376 b 522 -17 958 146 818 -17 b 83 375 224 -17 83 147 l 83 926 l 326 926 l 326 383 b 522 194 326 274 392 194 b 717 383 650 194 717 274 l 717 926 l 958 926 l 958 875 b 1019 957 986 896 1011 928 b 997 954 1015 956 1007 954 b 925 1032 957 954 925 985 b 1011 1118 925 1079 964 1118 b 1107 1008 1061 1118 1107 1078 "},"Ủ":{"ha":1042,"x_min":0,"x_max":0,"o":"m 522 -17 b 83 375 224 -17 83 147 l 83 926 l 326 926 l 326 383 b 522 194 326 274 392 194 b 717 383 650 194 717 274 l 717 926 l 958 926 l 958 376 b 522 -17 958 146 818 -17 m 406 1060 b 521 1139 424 1113 469 1139 b 638 1036 582 1139 638 1108 b 618 968 638 1010 629 990 l 532 968 b 557 1032 550 988 557 1010 b 521 1072 557 1061 539 1072 b 478 1036 499 1072 485 1056 "},"Ứ":{"ha":1042,"x_min":0,"x_max":0,"o":"m 574 1004 l 429 1004 l 606 1204 l 794 1204 m 1107 1008 b 958 789 1107 929 1058 839 l 958 376 b 522 -17 958 146 818 -17 b 83 375 224 -17 83 147 l 83 926 l 326 926 l 326 383 b 522 194 326 274 392 194 b 717 383 650 194 717 274 l 717 926 l 958 926 l 958 875 b 1019 957 986 896 1011 928 b 997 954 1015 956 1007 954 b 925 1032 957 954 925 985 b 1011 1118 925 1079 964 1118 b 1107 1008 1061 1118 1107 1078 "},"Ừ":{"ha":1042,"x_min":0,"x_max":0,"o":"m 468 1004 l 247 1204 l 436 1204 l 613 1004 m 1107 1008 b 958 789 1107 929 1058 839 l 958 376 b 522 -17 958 146 818 -17 b 83 375 224 -17 83 147 l 83 926 l 326 926 l 326 383 b 522 194 326 274 392 194 b 717 383 650 194 717 274 l 717 926 l 958 926 l 958 875 b 1019 957 986 896 1011 928 b 997 954 1015 956 1007 954 b 925 1032 957 954 925 985 b 1011 1118 925 1079 964 1118 b 1107 1008 1061 1118 1107 1078 "},"Ử":{"ha":1042,"x_min":0,"x_max":0,"o":"m 406 1060 b 521 1139 424 1113 469 1139 b 638 1036 582 1139 638 1108 b 618 968 638 1010 629 990 l 532 968 b 557 1032 550 988 557 1010 b 521 1072 557 1061 539 1072 b 478 1036 499 1072 485 1056 m 1107 1008 b 958 789 1107 929 1058 839 l 958 376 b 522 -17 958 146 818 -17 b 83 375 224 -17 83 147 l 83 926 l 326 926 l 326 383 b 522 194 326 274 392 194 b 717 383 650 194 717 274 l 717 926 l 958 926 l 958 875 b 1019 957 986 896 1011 928 b 997 954 1015 956 1007 954 b 925 1032 957 954 925 985 b 1011 1118 925 1079 964 1118 b 1107 1008 1061 1118 1107 1078 "},"Ữ":{"ha":1042,"x_min":0,"x_max":0,"o":"m 1107 1008 b 958 789 1107 929 1058 839 l 958 376 b 522 -17 958 146 818 -17 b 83 375 224 -17 83 147 l 83 926 l 326 926 l 326 383 b 522 194 326 274 392 194 b 717 383 650 194 717 274 l 717 926 l 958 926 l 958 875 b 1019 957 986 896 1011 928 b 997 954 1015 956 1007 954 b 925 1032 957 954 925 985 b 1011 1118 925 1079 964 1118 b 1107 1008 1061 1118 1107 1078 m 596 1001 b 439 1078 506 1001 483 1078 b 397 1010 417 1078 397 1057 l 289 1010 b 446 1196 289 1133 343 1196 b 603 1119 535 1196 558 1119 b 644 1188 625 1119 644 1140 l 753 1188 b 596 1001 753 1065 699 1001 "},"Ự":{"ha":1042,"x_min":0,"x_max":0,"o":"m 525 -282 b 417 -172 465 -282 417 -233 b 525 -64 417 -112 465 -64 b 633 -172 585 -64 633 -112 b 525 -282 633 -233 585 -282 m 1107 1008 b 958 789 1107 929 1058 839 l 958 376 b 522 -17 958 146 818 -17 b 83 375 224 -17 83 147 l 83 926 l 326 926 l 326 383 b 522 194 326 274 392 194 b 717 383 650 194 717 274 l 717 926 l 958 926 l 958 875 b 1019 957 986 896 1011 928 b 997 954 1015 956 1007 954 b 925 1032 957 954 925 985 b 1011 1118 925 1079 964 1118 b 1107 1008 1061 1118 1107 1078 "},"Ẃ":{"ha":1300,"x_min":0,"x_max":0,"o":"m 703 1004 l 558 1004 l 735 1204 l 924 1204 m 790 0 l 650 581 l 510 0 l 257 0 l -8 926 l 260 926 l 400 308 l 558 926 l 742 926 l 900 308 l 1039 926 l 1308 926 l 1043 0 "},"Ŵ":{"ha":1300,"x_min":0,"x_max":0,"o":"m 744 1004 l 649 1117 l 557 1004 l 431 1004 l 556 1204 l 743 1204 l 872 1004 m 790 0 l 650 581 l 510 0 l 257 0 l -8 926 l 260 926 l 400 308 l 558 926 l 742 926 l 900 308 l 1039 926 l 1308 926 l 1043 0 "},"Ẅ":{"ha":1300,"x_min":0,"x_max":0,"o":"m 907 1086 b 797 976 907 1024 858 976 b 689 1086 738 976 689 1024 b 797 1194 689 1146 738 1194 b 907 1086 858 1194 907 1146 m 610 1086 b 500 976 610 1024 561 976 b 392 1086 439 976 392 1024 b 500 1194 392 1146 439 1194 b 610 1086 561 1194 610 1146 m 790 0 l 650 581 l 510 0 l 257 0 l -8 926 l 260 926 l 400 308 l 558 926 l 742 926 l 900 308 l 1039 926 l 1308 926 l 1043 0 "},"Ẁ":{"ha":1300,"x_min":0,"x_max":0,"o":"m 790 0 l 650 581 l 510 0 l 257 0 l -8 926 l 260 926 l 400 308 l 558 926 l 742 926 l 900 308 l 1039 926 l 1308 926 l 1043 0 m 599 1004 l 378 1204 l 567 1204 l 743 1004 "},"Ý":{"ha":910,"x_min":0,"x_max":0,"o":"m 336 0 l 336 374 l -15 926 l 254 926 l 456 585 l 654 926 l 925 926 l 575 374 l 575 0 m 507 1004 l 363 1004 l 539 1204 l 728 1204 "},"Ŷ":{"ha":910,"x_min":0,"x_max":0,"o":"m 551 1004 l 456 1117 l 364 1004 l 238 1004 l 363 1204 l 550 1204 l 679 1004 m 336 0 l 336 374 l -15 926 l 254 926 l 456 585 l 654 926 l 925 926 l 575 374 l 575 0 "},"Ÿ":{"ha":910,"x_min":0,"x_max":0,"o":"m 714 1086 b 604 976 714 1024 665 976 b 496 1086 544 976 496 1024 b 604 1194 496 1146 544 1194 b 714 1086 665 1194 714 1146 m 417 1086 b 307 976 417 1024 368 976 b 199 1086 246 976 199 1024 b 307 1194 199 1146 246 1194 b 417 1086 368 1194 417 1146 m 336 0 l 336 374 l -15 926 l 254 926 l 456 585 l 654 926 l 925 926 l 575 374 l 575 0 "},"Ỳ":{"ha":910,"x_min":0,"x_max":0,"o":"m 336 0 l 336 374 l -15 926 l 254 926 l 456 585 l 654 926 l 925 926 l 575 374 l 575 0 m 404 1004 l 183 1204 l 372 1204 l 549 1004 "},"Ź":{"ha":828,"x_min":0,"x_max":0,"o":"m 421 1004 l 276 1004 l 453 1204 l 642 1204 m 54 0 l 54 190 l 449 718 l 54 718 l 54 926 l 764 926 l 764 736 l 368 208 l 774 208 l 774 0 "},"Ž":{"ha":828,"x_min":0,"x_max":0,"o":"m 321 1004 l 192 1204 l 318 1204 l 414 1092 l 506 1204 l 633 1204 l 508 1004 m 54 0 l 54 190 l 449 718 l 54 718 l 54 926 l 764 926 l 764 736 l 368 208 l 774 208 l 774 0 "},"Ż":{"ha":828,"x_min":0,"x_max":0,"o":"m 54 0 l 54 190 l 449 718 l 54 718 l 54 926 l 764 926 l 764 736 l 368 208 l 774 208 l 774 0 m 404 976 b 296 1086 344 976 296 1025 b 404 1194 296 1146 344 1194 b 513 1086 464 1194 513 1146 b 404 976 513 1025 464 976 "},"Ð":{"ha":1042,"x_min":0,"x_max":0,"o":"m 115 0 l 115 369 l 11 369 l 11 551 l 115 551 l 115 926 l 504 926 b 1006 464 796 926 1006 751 b 506 0 1006 176 796 0 m 504 208 b 761 464 667 208 761 326 b 506 718 761 607 675 718 l 354 718 l 354 551 l 549 551 l 549 369 l 354 369 l 354 208 l 504 208 "},"Þ":{"ha":893,"x_min":0,"x_max":0,"o":"m 83 0 l 83 926 l 322 926 l 322 785 l 547 785 b 869 475 756 785 869 643 b 547 169 869 307 756 169 l 322 169 l 322 0 m 511 379 b 626 476 574 379 626 414 b 511 576 626 539 574 576 l 322 576 l 322 379 l 511 379 "},"á":{"ha":765,"x_min":0,"x_max":0,"o":"m 474 0 l 474 67 b 265 -17 432 17 351 -17 b 35 204 163 -17 35 53 b 265 419 35 367 163 419 b 474 342 354 419 433 392 l 474 422 b 338 519 474 481 424 519 b 147 449 271 519 201 494 l 71 583 b 375 688 157 657 272 688 b 688 419 536 688 688 628 l 688 0 m 354 124 b 474 172 401 124 451 140 l 474 232 b 354 279 451 263 401 279 b 247 201 297 279 247 254 b 354 124 247 149 297 124 m 428 772 l 283 772 l 460 972 l 649 972 "},"ă":{"ha":765,"x_min":0,"x_max":0,"o":"m 474 0 l 474 67 b 265 -17 432 17 351 -17 b 35 204 163 -17 35 53 b 265 419 35 367 163 419 b 474 342 354 419 433 392 l 474 422 b 338 519 474 481 424 519 b 147 449 271 519 201 494 l 71 583 b 375 688 157 657 272 688 b 688 419 536 688 688 628 l 688 0 m 354 124 b 474 172 401 124 451 140 l 474 232 b 354 279 451 263 401 279 b 247 201 297 279 247 254 b 354 124 247 149 297 124 m 622 856 b 379 733 567 781 479 733 b 135 856 281 733 192 781 l 226 931 b 379 850 261 883 313 850 b 531 931 443 850 496 879 l 622 856 "},"â":{"ha":765,"x_min":0,"x_max":0,"o":"m 474 0 l 474 67 b 265 -17 432 17 351 -17 b 35 204 163 -17 35 53 b 265 419 35 367 163 419 b 474 342 354 419 433 392 l 474 422 b 338 519 474 481 424 519 b 147 449 271 519 201 494 l 71 583 b 375 688 157 657 272 688 b 688 419 536 688 688 628 l 688 0 m 354 124 b 474 172 401 124 451 140 l 474 232 b 354 279 451 263 401 279 b 247 201 297 279 247 254 b 354 124 247 149 297 124 m 475 772 l 379 885 l 288 772 l 161 772 l 286 972 l 474 972 l 603 772 "},"ä":{"ha":765,"x_min":0,"x_max":0,"o":"m 474 0 l 474 67 b 265 -17 432 17 351 -17 b 35 204 163 -17 35 53 b 265 419 35 367 163 419 b 474 342 354 419 433 392 l 474 422 b 338 519 474 481 424 519 b 147 449 271 519 201 494 l 71 583 b 375 688 157 657 272 688 b 688 419 536 688 688 628 l 688 0 m 354 124 b 474 172 401 124 451 140 l 474 232 b 354 279 451 263 401 279 b 247 201 297 279 247 254 b 354 124 247 149 297 124 m 635 854 b 525 744 635 792 586 744 b 417 854 465 744 417 792 b 525 963 417 914 465 963 b 635 854 586 963 635 914 m 338 854 b 228 744 338 792 289 744 b 119 854 167 744 119 792 b 228 963 119 914 167 963 b 338 854 289 963 338 914 "},"à":{"ha":765,"x_min":0,"x_max":0,"o":"m 474 0 l 474 67 b 265 -17 432 17 351 -17 b 35 204 163 -17 35 53 b 265 419 35 367 163 419 b 474 342 354 419 433 392 l 474 422 b 338 519 474 481 424 519 b 147 449 271 519 201 494 l 71 583 b 375 688 157 657 272 688 b 688 419 536 688 688 628 l 688 0 m 354 124 b 474 172 401 124 451 140 l 474 232 b 354 279 451 263 401 279 b 247 201 297 279 247 254 b 354 124 247 149 297 124 m 324 772 l 103 972 l 292 972 l 468 772 "},"ā":{"ha":765,"x_min":0,"x_max":0,"o":"m 474 0 l 474 67 b 265 -17 432 17 351 -17 b 35 204 163 -17 35 53 b 265 419 35 367 163 419 b 474 342 354 419 433 392 l 474 422 b 338 519 474 481 424 519 b 147 449 271 519 201 494 l 71 583 b 375 688 157 657 272 688 b 688 419 536 688 688 628 l 688 0 m 354 124 b 474 172 401 124 451 140 l 474 232 b 354 279 451 263 401 279 b 247 201 297 279 247 254 b 354 124 247 149 297 124 m 126 772 l 126 890 l 631 890 l 631 772 "},"ą":{"ha":765,"x_min":0,"x_max":0,"o":"m 775 -182 b 639 -258 747 -228 703 -258 b 493 -131 563 -258 493 -221 b 551 0 493 -81 513 -36 l 474 0 l 474 67 b 265 -17 432 17 351 -17 b 35 204 163 -17 35 53 b 265 419 35 367 163 419 b 474 342 354 419 433 392 l 474 422 b 338 519 474 481 424 519 b 147 449 271 519 201 494 l 71 583 b 375 688 157 657 272 688 b 688 419 536 688 688 628 l 688 0 b 593 -121 619 -35 593 -76 b 639 -174 593 -161 617 -174 b 693 -131 667 -174 683 -156 m 354 124 b 474 172 401 124 451 140 l 474 232 b 354 279 451 263 401 279 b 247 201 297 279 247 254 b 354 124 247 149 297 124 "},"å":{"ha":765,"x_min":0,"x_max":0,"o":"m 474 0 l 474 67 b 265 -17 432 17 351 -17 b 35 204 163 -17 35 53 b 265 419 35 367 163 419 b 474 342 354 419 433 392 l 474 422 b 338 519 474 481 424 519 b 147 449 271 519 201 494 l 71 583 b 375 688 157 657 272 688 b 688 419 536 688 688 628 l 688 0 m 354 124 b 474 172 401 124 451 140 l 474 232 b 354 279 451 263 401 279 b 247 201 297 279 247 254 b 354 124 247 149 297 124 m 381 729 b 229 879 297 729 229 797 b 381 1031 229 963 297 1031 b 528 879 463 1031 528 963 b 381 729 528 797 463 729 m 381 824 b 435 879 411 824 435 849 b 381 936 435 911 411 936 b 324 879 349 936 324 911 b 381 824 324 849 349 824 "},"ã":{"ha":765,"x_min":0,"x_max":0,"o":"m 474 0 l 474 67 b 265 -17 432 17 351 -17 b 35 204 163 -17 35 53 b 265 419 35 367 163 419 b 474 342 354 419 433 392 l 474 422 b 338 519 474 481 424 519 b 147 449 271 519 201 494 l 71 583 b 375 688 157 657 272 688 b 688 419 536 688 688 628 l 688 0 m 354 124 b 474 172 401 124 451 140 l 474 232 b 354 279 451 263 401 279 b 247 201 297 279 247 254 b 354 124 247 149 297 124 m 454 769 b 297 846 364 769 342 846 b 256 778 275 846 256 825 l 147 778 b 304 964 147 901 201 964 b 461 888 393 964 417 888 b 503 956 483 888 503 908 l 611 956 b 454 769 611 833 557 769 "},"ạ":{"ha":765,"x_min":0,"x_max":0,"o":"m 474 0 l 474 67 b 265 -17 432 17 351 -17 b 35 204 163 -17 35 53 b 265 419 35 367 163 419 b 474 342 354 419 433 392 l 474 422 b 338 519 474 481 424 519 b 147 449 271 519 201 494 l 71 583 b 375 688 157 657 272 688 b 688 419 536 688 688 628 l 688 0 m 354 124 b 474 172 401 124 451 140 l 474 232 b 354 279 451 263 401 279 b 247 201 297 279 247 254 b 354 124 247 149 297 124 m 383 -282 b 275 -172 324 -282 275 -233 b 383 -64 275 -112 324 -64 b 492 -172 443 -64 492 -112 b 383 -282 492 -233 443 -282 "},"ả":{"ha":765,"x_min":0,"x_max":0,"o":"m 474 0 l 474 67 b 265 -17 432 17 351 -17 b 35 204 163 -17 35 53 b 265 419 35 367 163 419 b 474 342 354 419 433 392 l 474 422 b 338 519 474 481 424 519 b 147 449 271 519 201 494 l 71 583 b 375 688 157 657 272 688 b 688 419 536 688 688 628 l 688 0 m 354 124 b 474 172 401 124 451 140 l 474 232 b 354 279 451 263 401 279 b 247 201 297 279 247 254 b 354 124 247 149 297 124 m 267 824 b 382 903 285 876 331 903 b 499 800 443 903 499 872 b 479 732 499 774 490 754 l 393 732 b 418 796 411 751 418 774 b 382 836 418 825 400 836 b 339 800 360 836 346 819 "},"ấ":{"ha":765,"x_min":0,"x_max":0,"o":"m 474 0 l 474 67 b 265 -17 432 17 351 -17 b 35 204 163 -17 35 53 b 265 419 35 367 163 419 b 474 342 354 419 433 392 l 474 422 b 338 519 474 481 424 519 b 147 449 271 519 201 494 l 71 583 b 375 688 157 657 272 688 b 688 419 536 688 688 628 l 688 0 m 354 124 b 474 172 401 124 451 140 l 474 232 b 354 279 451 263 401 279 b 247 201 297 279 247 254 b 354 124 247 149 297 124 m 475 772 l 379 885 l 288 772 l 161 772 l 286 972 l 474 972 l 603 772 m 690 869 l 546 869 l 722 1069 l 911 1069 "},"ậ":{"ha":765,"x_min":0,"x_max":0,"o":"m 474 0 l 474 67 b 265 -17 432 17 351 -17 b 35 204 163 -17 35 53 b 265 419 35 367 163 419 b 474 342 354 419 433 392 l 474 422 b 338 519 474 481 424 519 b 147 449 271 519 201 494 l 71 583 b 375 688 157 657 272 688 b 688 419 536 688 688 628 l 688 0 m 354 124 b 474 172 401 124 451 140 l 474 232 b 354 279 451 263 401 279 b 247 201 297 279 247 254 b 354 124 247 149 297 124 m 476 772 l 381 885 l 289 772 l 163 772 l 288 972 l 475 972 l 604 772 m 383 -282 b 275 -172 324 -282 275 -233 b 383 -64 275 -112 324 -64 b 492 -172 443 -64 492 -112 b 383 -282 492 -233 443 -282 "},"ầ":{"ha":765,"x_min":0,"x_max":0,"o":"m 474 0 l 474 67 b 265 -17 432 17 351 -17 b 35 204 163 -17 35 53 b 265 419 35 367 163 419 b 474 342 354 419 433 392 l 474 422 b 338 519 474 481 424 519 b 147 449 271 519 201 494 l 71 583 b 375 688 157 657 272 688 b 688 419 536 688 688 628 l 688 0 m 354 124 b 474 172 401 124 451 140 l 474 232 b 354 279 451 263 401 279 b 247 201 297 279 247 254 b 354 124 247 149 297 124 m 475 772 l 379 885 l 288 772 l 161 772 l 286 972 l 474 972 l 603 772 m 67 869 l -154 1069 l 35 1069 l 211 869 "},"ẩ":{"ha":765,"x_min":0,"x_max":0,"o":"m 474 0 l 474 67 b 265 -17 432 17 351 -17 b 35 204 163 -17 35 53 b 265 419 35 367 163 419 b 474 342 354 419 433 392 l 474 422 b 338 519 474 481 424 519 b 147 449 271 519 201 494 l 71 583 b 375 688 157 657 272 688 b 688 419 536 688 688 628 l 688 0 m 354 124 b 474 172 401 124 451 140 l 474 232 b 354 279 451 263 401 279 b 247 201 297 279 247 254 b 354 124 247 149 297 124 m 475 772 l 379 885 l 288 772 l 161 772 l 286 972 l 474 972 l 603 772 m 419 1018 b 535 1097 438 1071 483 1097 b 651 994 596 1097 651 1067 b 632 926 651 968 643 949 l 546 926 b 571 990 564 946 571 968 b 535 1031 571 1019 553 1031 b 492 994 513 1031 499 1014 "},"ắ":{"ha":765,"x_min":0,"x_max":0,"o":"m 474 0 l 474 67 b 265 -17 432 17 351 -17 b 35 204 163 -17 35 53 b 265 419 35 367 163 419 b 474 342 354 419 433 392 l 474 422 b 338 519 474 481 424 519 b 147 449 271 519 201 494 l 71 583 b 375 688 157 657 272 688 b 688 419 536 688 688 628 l 688 0 m 354 124 b 474 172 401 124 451 140 l 474 232 b 354 279 451 263 401 279 b 247 201 297 279 247 254 b 354 124 247 149 297 124 m 438 889 l 293 889 l 469 1089 l 658 1089 m 622 836 b 379 714 567 761 479 714 b 135 836 281 714 192 761 l 226 911 b 379 831 261 864 313 831 b 531 911 443 831 496 860 l 622 836 "},"ẫ":{"ha":765,"x_min":0,"x_max":0,"o":"m 474 0 l 474 67 b 265 -17 432 17 351 -17 b 35 204 163 -17 35 53 b 265 419 35 367 163 419 b 474 342 354 419 433 392 l 474 422 b 338 519 474 481 424 519 b 147 449 271 519 201 494 l 71 583 b 375 688 157 657 272 688 b 688 419 536 688 688 628 l 688 0 m 354 124 b 474 172 401 124 451 140 l 474 232 b 354 279 451 263 401 279 b 247 201 297 279 247 254 b 354 124 247 149 297 124 m 475 726 l 379 839 l 288 726 l 161 726 l 286 926 l 474 926 l 603 726 m 457 947 b 300 1024 367 947 344 1024 b 258 956 278 1024 258 1003 l 150 956 b 307 1142 150 1079 204 1142 b 464 1065 396 1142 419 1065 b 506 1133 486 1065 506 1086 l 614 1133 b 457 947 614 1011 560 947 "},"ằ":{"ha":765,"x_min":0,"x_max":0,"o":"m 474 0 l 474 67 b 265 -17 432 17 351 -17 b 35 204 163 -17 35 53 b 265 419 35 367 163 419 b 474 342 354 419 433 392 l 474 422 b 338 519 474 481 424 519 b 147 449 271 519 201 494 l 71 583 b 375 688 157 657 272 688 b 688 419 536 688 688 628 l 688 0 m 354 124 b 474 172 401 124 451 140 l 474 232 b 354 279 451 263 401 279 b 247 201 297 279 247 254 b 354 124 247 149 297 124 m 322 889 l 101 1089 l 290 1089 l 467 889 m 622 838 b 379 715 567 763 479 715 b 135 838 281 715 192 763 l 226 913 b 379 832 261 865 313 832 b 531 913 443 832 496 861 l 622 838 "},"ẳ":{"ha":765,"x_min":0,"x_max":0,"o":"m 474 0 l 474 67 b 265 -17 432 17 351 -17 b 35 204 163 -17 35 53 b 265 419 35 367 163 419 b 474 342 354 419 433 392 l 474 422 b 338 519 474 481 424 519 b 147 449 271 519 201 494 l 71 583 b 375 688 157 657 272 688 b 688 419 536 688 688 628 l 688 0 m 354 124 b 474 172 401 124 451 140 l 474 232 b 354 279 451 263 401 279 b 247 201 297 279 247 254 b 354 124 247 149 297 124 m 264 992 b 379 1071 282 1044 328 1071 b 496 968 440 1071 496 1040 b 476 900 496 942 488 922 l 390 900 b 415 964 408 919 415 942 b 379 1004 415 993 397 1004 b 336 968 357 1004 343 988 m 622 838 b 379 715 567 763 479 715 b 135 838 281 715 192 763 l 226 913 b 379 832 261 865 313 832 b 531 913 443 832 496 861 l 622 838 "},"ẵ":{"ha":765,"x_min":0,"x_max":0,"o":"m 474 0 l 474 67 b 265 -17 432 17 351 -17 b 35 204 163 -17 35 53 b 265 419 35 367 163 419 b 474 342 354 419 433 392 l 474 422 b 338 519 474 481 424 519 b 147 449 271 519 201 494 l 71 583 b 375 688 157 657 272 688 b 688 419 536 688 688 628 l 688 0 m 354 124 b 474 172 401 124 451 140 l 474 232 b 354 279 451 263 401 279 b 247 201 297 279 247 254 b 354 124 247 149 297 124 m 622 838 b 379 715 567 763 479 715 b 135 838 281 715 192 763 l 226 913 b 379 832 261 865 313 832 b 531 913 443 832 496 861 l 622 838 m 449 915 b 292 992 358 915 336 992 b 250 924 269 992 250 971 l 142 924 b 299 1110 142 1047 196 1110 b 456 1033 388 1110 411 1033 b 497 1101 478 1033 497 1054 l 606 1101 b 449 915 606 979 551 915 "},"ặ":{"ha":765,"x_min":0,"x_max":0,"o":"m 474 0 l 474 67 b 265 -17 432 17 351 -17 b 35 204 163 -17 35 53 b 265 419 35 367 163 419 b 474 342 354 419 433 392 l 474 422 b 338 519 474 481 424 519 b 147 449 271 519 201 494 l 71 583 b 375 688 157 657 272 688 b 688 419 536 688 688 628 l 688 0 m 354 124 b 474 172 401 124 451 140 l 474 232 b 354 279 451 263 401 279 b 247 201 297 279 247 254 b 354 124 247 149 297 124 m 383 -282 b 275 -172 324 -282 275 -233 b 383 -64 275 -112 324 -64 b 492 -172 443 -64 492 -112 b 383 -282 492 -233 443 -282 m 622 856 b 379 733 567 781 479 733 b 135 856 281 733 192 781 l 226 931 b 379 850 261 883 313 850 b 531 931 443 850 496 879 l 622 856 "},"æ":{"ha":1194,"x_min":0,"x_max":0,"o":"m 708 268 b 871 153 724 208 775 153 b 1021 210 925 153 986 175 l 1115 72 b 850 -17 1049 13 936 -17 b 600 90 747 -17 663 14 b 322 -17 542 29 440 -17 b 35 201 167 -17 35 50 b 274 419 35 350 144 419 b 493 344 361 419 447 393 l 493 422 b 349 519 493 479 439 519 b 147 447 278 519 206 494 l 71 583 b 378 688 157 657 274 688 b 603 589 492 688 563 651 b 843 688 653 643 722 688 b 1167 314 1028 688 1167 542 l 1167 268 m 963 407 b 833 522 957 454 925 522 b 706 407 749 522 714 457 m 493 231 b 363 279 468 261 414 279 b 247 210 301 279 247 257 b 351 140 247 161 300 140 b 493 224 431 140 493 186 "},"ǽ":{"ha":1194,"x_min":0,"x_max":0,"o":"m 638 772 l 493 772 l 669 972 l 858 972 m 708 268 b 871 153 724 208 775 153 b 1021 210 925 153 986 175 l 1115 72 b 850 -17 1049 13 936 -17 b 600 90 747 -17 663 14 b 322 -17 542 29 440 -17 b 35 201 167 -17 35 50 b 274 419 35 350 144 419 b 493 344 361 419 447 393 l 493 422 b 349 519 493 479 439 519 b 147 447 278 519 206 494 l 71 583 b 378 688 157 657 274 688 b 603 589 492 688 563 651 b 843 688 653 643 722 688 b 1167 314 1028 688 1167 542 l 1167 268 m 963 407 b 833 522 957 454 925 522 b 706 407 749 522 714 457 m 493 231 b 363 279 468 261 414 279 b 247 210 301 279 247 257 b 351 140 247 161 300 140 b 493 224 431 140 493 186 "},"ḃ":{"ha":821,"x_min":0,"x_max":0,"o":"m 292 232 b 419 172 318 196 374 172 b 568 336 504 172 568 235 b 419 499 568 436 504 499 b 292 438 374 499 318 474 l 292 232 m 78 0 l 78 926 l 292 926 l 292 592 b 490 688 344 658 417 688 b 786 336 657 688 786 556 b 490 -17 786 108 656 -17 b 292 78 415 -17 347 14 l 292 0 m 419 976 b 311 1086 360 976 311 1025 b 419 1194 311 1146 360 1194 b 528 1086 479 1194 528 1146 b 419 976 528 1025 479 976 "},"ć":{"ha":694,"x_min":0,"x_max":0,"o":"m 453 772 l 308 772 l 485 972 l 674 972 m 400 -17 b 33 336 190 -17 33 125 b 400 688 33 546 190 688 b 675 564 544 688 635 624 l 536 435 b 410 499 510 474 467 499 b 253 336 321 499 253 438 b 410 172 253 235 321 172 b 536 238 467 172 510 200 l 675 107 b 400 -17 635 49 544 -17 "},"ç":{"ha":694,"x_min":0,"x_max":0,"o":"m 406 -272 b 247 -226 336 -272 276 -250 l 286 -146 b 400 -187 322 -172 363 -187 b 465 -149 433 -187 465 -175 b 431 -118 465 -129 453 -118 b 390 -136 414 -118 400 -126 l 317 -94 l 347 -14 b 33 336 164 7 33 143 b 400 688 33 546 190 688 b 675 564 544 688 635 624 l 536 435 b 410 499 510 474 467 499 b 253 336 321 499 253 438 b 410 172 253 235 321 172 b 536 238 467 172 510 200 l 675 107 b 444 -14 639 54 563 -3 l 424 -65 b 471 -51 438 -57 453 -51 b 565 -151 522 -51 565 -93 b 406 -272 565 -228 493 -272 "},"ĉ":{"ha":694,"x_min":0,"x_max":0,"o":"m 503 772 l 407 885 l 315 772 l 189 772 l 314 972 l 501 972 l 631 772 m 400 -17 b 33 336 190 -17 33 125 b 400 688 33 546 190 688 b 675 564 544 688 635 624 l 536 435 b 410 499 510 474 467 499 b 253 336 321 499 253 438 b 410 172 253 235 321 172 b 536 238 467 172 510 200 l 675 107 b 400 -17 635 49 544 -17 "},"ċ":{"ha":694,"x_min":0,"x_max":0,"o":"m 400 -17 b 33 336 190 -17 33 125 b 400 688 33 546 190 688 b 675 564 544 688 635 624 l 536 435 b 410 499 510 474 467 499 b 253 336 321 499 253 438 b 410 172 253 235 321 172 b 536 238 467 172 510 200 l 675 107 b 400 -17 635 49 544 -17 m 399 744 b 290 854 339 744 290 793 b 399 963 290 914 339 963 b 507 854 458 963 507 914 b 399 744 507 793 458 744 "},"č":{"ha":694,"x_min":0,"x_max":0,"o":"m 318 772 l 189 972 l 315 972 l 411 860 l 503 972 l 631 972 l 506 772 m 400 -17 b 33 336 190 -17 33 125 b 400 688 33 546 190 688 b 675 564 544 688 635 624 l 536 435 b 410 499 510 474 467 499 b 253 336 321 499 253 438 b 410 172 253 235 321 172 b 536 238 467 172 510 200 l 675 107 b 400 -17 635 49 544 -17 "},"ď":{"ha":990,"x_min":0,"x_max":0,"o":"m 997 818 b 875 600 997 731 949 653 l 807 654 b 897 761 842 674 886 721 b 874 757 893 758 883 757 b 792 844 828 757 792 792 b 889 943 792 899 836 943 b 997 818 946 943 997 897 m 529 0 l 529 78 b 331 -17 474 14 406 -17 b 33 336 165 -17 33 108 b 331 688 33 556 163 688 b 529 592 404 688 475 658 l 529 926 l 742 926 l 742 0 m 400 172 b 529 233 446 172 501 197 l 529 439 b 400 499 501 475 446 499 b 253 336 315 499 253 436 b 400 172 253 236 315 172 "},"đ":{"ha":828,"x_min":0,"x_max":0,"o":"m 529 0 l 529 78 b 331 -17 474 14 406 -17 b 33 336 165 -17 33 108 b 331 688 33 556 163 688 b 529 592 404 688 475 658 l 529 728 l 335 728 l 335 846 l 529 846 l 529 926 l 742 926 l 742 846 l 817 846 l 817 728 l 742 728 l 742 0 m 400 172 b 529 233 446 172 501 197 l 529 439 b 400 499 501 475 446 499 b 253 336 315 499 253 436 b 400 172 253 236 315 172 "},"ḋ":{"ha":821,"x_min":0,"x_max":0,"o":"m 529 0 l 529 78 b 331 -17 474 14 406 -17 b 33 336 165 -17 33 108 b 331 688 33 556 163 688 b 529 592 404 688 475 658 l 529 926 l 742 926 l 742 0 m 400 172 b 529 233 446 172 501 197 l 529 439 b 400 499 501 475 446 499 b 253 336 315 499 253 436 b 400 172 253 236 315 172 m 403 976 b 294 1086 343 976 294 1025 b 403 1194 294 1146 343 1194 b 511 1086 463 1194 511 1146 b 403 976 511 1025 463 976 "},"é":{"ha":761,"x_min":0,"x_max":0,"o":"m 442 772 l 297 772 l 474 972 l 663 972 m 400 -17 b 33 336 193 -17 33 118 b 390 688 33 531 181 688 b 733 314 589 688 733 542 l 733 268 l 256 268 b 424 149 268 206 326 149 b 590 206 471 149 553 169 l 681 72 b 400 -17 614 13 503 -17 m 529 407 b 390 522 524 454 489 522 b 253 407 297 522 261 456 l 529 407 "},"ĕ":{"ha":761,"x_min":0,"x_max":0,"o":"m 400 -17 b 33 336 193 -17 33 118 b 390 688 33 531 181 688 b 733 314 589 688 733 542 l 733 268 l 256 268 b 424 149 268 206 326 149 b 590 206 471 149 553 169 l 681 72 b 400 -17 614 13 503 -17 m 529 407 b 390 522 524 454 489 522 b 253 407 297 522 261 456 l 529 407 m 636 856 b 393 733 581 781 493 733 b 149 856 294 733 206 781 l 240 931 b 393 850 275 883 326 850 b 544 931 457 850 510 879 l 636 856 "},"ê":{"ha":761,"x_min":0,"x_max":0,"o":"m 485 772 l 389 885 l 297 772 l 171 772 l 296 972 l 483 972 l 613 772 m 400 -17 b 33 336 193 -17 33 118 b 390 688 33 531 181 688 b 733 314 589 688 733 542 l 733 268 l 256 268 b 424 149 268 206 326 149 b 590 206 471 149 553 169 l 681 72 b 400 -17 614 13 503 -17 m 529 407 b 390 522 524 454 489 522 b 253 407 297 522 261 456 l 529 407 "},"ë":{"ha":761,"x_min":0,"x_max":0,"o":"m 650 854 b 540 744 650 792 601 744 b 432 854 481 744 432 792 b 540 963 432 914 481 963 b 650 854 601 963 650 914 m 353 854 b 243 744 353 792 304 744 b 135 854 182 744 135 792 b 243 963 135 914 182 963 b 353 854 304 963 353 914 m 400 -17 b 33 336 193 -17 33 118 b 390 688 33 531 181 688 b 733 314 589 688 733 542 l 733 268 l 256 268 b 424 149 268 206 326 149 b 590 206 471 149 553 169 l 681 72 b 400 -17 614 13 503 -17 m 529 407 b 390 522 524 454 489 522 b 253 407 297 522 261 456 l 529 407 "},"ė":{"ha":761,"x_min":0,"x_max":0,"o":"m 400 -17 b 33 336 193 -17 33 118 b 390 688 33 531 181 688 b 733 314 589 688 733 542 l 733 268 l 256 268 b 424 149 268 206 326 149 b 590 206 471 149 553 169 l 681 72 b 400 -17 614 13 503 -17 m 529 407 b 390 522 524 454 489 522 b 253 407 297 522 261 456 l 529 407 m 393 744 b 285 854 333 744 285 793 b 393 963 285 914 333 963 b 501 854 453 963 501 914 b 393 744 501 793 453 744 "},"è":{"ha":761,"x_min":0,"x_max":0,"o":"m 400 -17 b 33 336 193 -17 33 118 b 390 688 33 531 181 688 b 733 314 589 688 733 542 l 733 268 l 256 268 b 424 149 268 206 326 149 b 590 206 471 149 553 169 l 681 72 b 400 -17 614 13 503 -17 m 529 407 b 390 522 524 454 489 522 b 253 407 297 522 261 456 l 529 407 m 338 772 l 117 972 l 306 972 l 482 772 "},"ē":{"ha":761,"x_min":0,"x_max":0,"o":"m 400 -17 b 33 336 193 -17 33 118 b 390 688 33 531 181 688 b 733 314 589 688 733 542 l 733 268 l 256 268 b 424 149 268 206 326 149 b 590 206 471 149 553 169 l 681 72 b 400 -17 614 13 503 -17 m 529 407 b 390 522 524 454 489 522 b 253 407 297 522 261 456 l 529 407 m 133 772 l 133 890 l 638 890 l 638 772 "},"ę":{"ha":761,"x_min":0,"x_max":0,"o":"m 622 -182 b 486 -258 594 -228 550 -258 b 340 -131 410 -258 340 -221 b 383 -17 340 -87 356 -50 b 33 336 185 -10 33 124 b 390 688 33 531 181 688 b 733 314 589 688 733 542 l 733 268 l 256 268 b 424 149 268 206 326 149 b 590 206 471 149 553 169 l 681 72 b 535 0 643 39 590 14 b 440 -121 467 -35 440 -76 b 486 -174 440 -161 464 -174 b 540 -131 514 -174 531 -156 m 529 407 b 390 522 524 454 489 522 b 253 407 297 522 261 456 l 529 407 "},"ě":{"ha":761,"x_min":0,"x_max":0,"o":"m 297 772 l 168 972 l 294 972 l 390 860 l 482 972 l 610 972 l 485 772 m 400 -17 b 33 336 193 -17 33 118 b 390 688 33 531 181 688 b 733 314 589 688 733 542 l 733 268 l 256 268 b 424 149 268 206 326 149 b 590 206 471 149 553 169 l 681 72 b 400 -17 614 13 503 -17 m 529 407 b 390 522 524 454 489 522 b 253 407 297 522 261 456 l 529 407 "},"ẹ":{"ha":761,"x_min":0,"x_max":0,"o":"m 400 -17 b 33 336 193 -17 33 118 b 390 688 33 531 181 688 b 733 314 589 688 733 542 l 733 268 l 256 268 b 424 149 268 206 326 149 b 590 206 471 149 553 169 l 681 72 b 400 -17 614 13 503 -17 m 529 407 b 390 522 524 454 489 522 b 253 407 297 522 261 456 l 529 407 m 393 -282 b 285 -172 333 -282 285 -233 b 393 -64 285 -112 333 -64 b 501 -172 453 -64 501 -112 b 393 -282 501 -233 453 -282 "},"ẻ":{"ha":761,"x_min":0,"x_max":0,"o":"m 400 -17 b 33 336 193 -17 33 118 b 390 688 33 531 181 688 b 733 314 589 688 733 542 l 733 268 l 256 268 b 424 149 268 206 326 149 b 590 206 471 149 553 169 l 681 72 b 400 -17 614 13 503 -17 m 529 407 b 390 522 524 454 489 522 b 253 407 297 522 261 456 l 529 407 m 267 824 b 382 903 285 876 331 903 b 499 800 443 903 499 872 b 479 732 499 774 490 754 l 393 732 b 418 796 411 751 418 774 b 382 836 418 825 400 836 b 339 800 360 836 346 819 "},"ẽ":{"ha":761,"x_min":0,"x_max":0,"o":"m 400 -17 b 33 336 193 -17 33 118 b 390 688 33 531 181 688 b 733 314 589 688 733 542 l 733 268 l 256 268 b 424 149 268 206 326 149 b 590 206 471 149 553 169 l 681 72 b 400 -17 614 13 503 -17 m 529 407 b 390 522 524 454 489 522 b 253 407 297 522 261 456 l 529 407 m 458 769 b 301 846 368 769 346 846 b 260 778 279 846 260 825 l 151 778 b 308 964 151 901 206 964 b 465 888 397 964 421 888 b 507 956 488 888 507 908 l 615 956 b 458 769 615 833 561 769 "},"ế":{"ha":761,"x_min":0,"x_max":0,"o":"m 483 772 l 388 885 l 296 772 l 169 772 l 294 972 l 482 972 l 611 772 m 697 869 l 553 869 l 729 1069 l 918 1069 m 400 -17 b 33 336 193 -17 33 118 b 390 688 33 531 181 688 b 733 314 589 688 733 542 l 733 268 l 256 268 b 424 149 268 206 326 149 b 590 206 471 149 553 169 l 681 72 b 400 -17 614 13 503 -17 m 529 407 b 390 522 524 454 489 522 b 253 407 297 522 261 456 l 529 407 "},"ề":{"ha":761,"x_min":0,"x_max":0,"o":"m 483 772 l 388 885 l 296 772 l 169 772 l 294 972 l 482 972 l 611 772 m 400 -17 b 33 336 193 -17 33 118 b 390 688 33 531 181 688 b 733 314 589 688 733 542 l 733 268 l 256 268 b 424 149 268 206 326 149 b 590 206 471 149 553 169 l 681 72 b 400 -17 614 13 503 -17 m 529 407 b 390 522 524 454 489 522 b 253 407 297 522 261 456 l 529 407 m 75 869 l -146 1069 l 43 1069 l 219 869 "},"ể":{"ha":761,"x_min":0,"x_max":0,"o":"m 483 772 l 388 885 l 296 772 l 169 772 l 294 972 l 482 972 l 611 772 m 400 -17 b 33 336 193 -17 33 118 b 390 688 33 531 181 688 b 733 314 589 688 733 542 l 733 268 l 256 268 b 424 149 268 206 326 149 b 590 206 471 149 553 169 l 681 72 b 400 -17 614 13 503 -17 m 529 407 b 390 522 524 454 489 522 b 253 407 297 522 261 456 l 529 407 m 428 1018 b 543 1097 446 1071 492 1097 b 660 994 604 1097 660 1067 b 640 926 660 968 651 949 l 554 926 b 579 990 572 946 579 968 b 543 1031 579 1019 561 1031 b 500 994 521 1031 507 1014 "},"ễ":{"ha":761,"x_min":0,"x_max":0,"o":"m 483 726 l 388 839 l 296 726 l 169 726 l 294 926 l 482 926 l 611 726 m 400 -17 b 33 336 193 -17 33 118 b 390 688 33 531 181 688 b 733 314 589 688 733 542 l 733 268 l 256 268 b 424 149 268 206 326 149 b 590 206 471 149 553 169 l 681 72 b 400 -17 614 13 503 -17 m 529 407 b 390 522 524 454 489 522 b 253 407 297 522 261 456 l 529 407 m 465 947 b 308 1024 375 947 353 1024 b 267 956 286 1024 267 1003 l 158 956 b 315 1142 158 1079 213 1142 b 472 1065 404 1142 428 1065 b 514 1133 494 1065 514 1086 l 622 1133 b 465 947 622 1011 568 947 "},"ệ":{"ha":761,"x_min":0,"x_max":0,"o":"m 486 772 l 390 885 l 299 772 l 172 772 l 297 972 l 485 972 l 614 772 m 400 -17 b 33 336 193 -17 33 118 b 390 688 33 531 181 688 b 733 314 589 688 733 542 l 733 268 l 256 268 b 424 149 268 206 326 149 b 590 206 471 149 553 169 l 681 72 b 400 -17 614 13 503 -17 m 529 407 b 390 522 524 454 489 522 b 253 407 297 522 261 456 l 529 407 m 393 -282 b 285 -172 333 -282 285 -233 b 393 -64 285 -112 333 -64 b 501 -172 453 -64 501 -112 b 393 -282 501 -233 453 -282 "},"ﬀ":{"ha":969,"x_min":0,"x_max":0,"o":"m 124 0 l 124 485 l 13 485 l 13 671 l 124 671 l 124 704 b 364 940 124 846 224 940 b 557 874 436 940 511 921 l 478 751 b 411 778 461 769 442 778 b 338 704 371 778 338 751 l 338 671 l 474 671 l 474 485 l 338 485 l 338 0 m 608 0 l 608 485 l 497 485 l 497 671 l 608 671 l 608 704 b 849 940 608 846 708 940 b 1042 874 921 940 996 921 l 963 751 b 896 778 946 769 926 778 b 822 704 856 778 822 751 l 822 671 l 958 671 l 958 485 l 822 485 l 822 0 "},"ﬁ":{"ha":854,"x_min":0,"x_max":0,"o":"m 124 0 l 124 485 l 13 485 l 13 671 l 124 671 l 124 704 b 364 940 124 847 225 940 b 506 910 422 940 472 928 l 465 761 b 408 778 453 771 432 778 b 338 704 367 778 338 750 l 338 671 l 474 671 l 474 485 l 338 485 l 338 0 m 669 731 b 547 854 601 731 547 786 b 669 976 547 922 601 976 b 792 854 738 976 792 922 b 669 731 792 786 738 731 m 563 0 l 563 671 l 776 671 l 776 0 "},"":{"ha":854,"x_min":0,"x_max":0,"o":"m 124 0 l 124 485 l 13 485 l 13 671 l 124 671 l 124 704 b 364 940 124 847 225 940 b 506 910 422 940 472 928 l 465 761 b 408 778 453 771 432 778 b 338 704 367 778 338 750 l 338 671 l 474 671 l 474 485 l 338 485 l 338 0 m 669 731 b 547 854 601 731 547 786 b 669 976 547 922 601 976 b 792 854 738 976 792 922 b 669 731 792 786 738 731 m 517 -272 b 340 -225 424 -272 392 -258 l 394 -68 b 481 -97 421 -89 440 -97 b 563 6 531 -97 563 -64 l 563 671 l 776 671 l 776 6 b 517 -272 776 -157 696 -272 "},"ﬂ":{"ha":854,"x_min":0,"x_max":0,"o":"m 124 0 l 124 485 l 13 485 l 13 671 l 124 671 l 124 704 b 364 940 124 847 225 940 b 506 910 422 940 472 928 l 465 761 b 408 778 453 771 432 778 b 338 704 367 778 338 750 l 338 671 l 474 671 l 474 485 l 338 485 l 338 0 m 563 0 l 563 926 l 776 926 l 776 0 "},"ﬃ":{"ha":1340,"x_min":0,"x_max":0,"o":"m 608 0 l 608 485 l 497 485 l 497 671 l 608 671 l 608 704 b 849 940 608 847 710 940 b 990 910 907 940 957 928 l 950 761 b 893 778 938 771 917 778 b 822 704 851 778 822 750 l 822 671 l 958 671 l 958 485 l 822 485 l 822 0 m 1154 731 b 1032 854 1086 731 1032 786 b 1154 976 1032 922 1086 976 b 1276 854 1222 976 1276 922 b 1154 731 1276 786 1222 731 m 1047 0 l 1047 671 l 1261 671 l 1261 0 m 124 0 l 124 485 l 13 485 l 13 671 l 124 671 l 124 704 b 364 940 124 846 224 940 b 557 874 436 940 511 921 l 478 751 b 411 778 461 769 442 778 b 338 704 371 778 338 751 l 338 671 l 474 671 l 474 485 l 338 485 l 338 0 "},"":{"ha":1340,"x_min":0,"x_max":0,"o":"m 608 0 l 608 485 l 497 485 l 497 671 l 608 671 l 608 704 b 849 940 608 847 710 940 b 990 910 907 940 957 928 l 950 761 b 893 778 938 771 917 778 b 822 704 851 778 822 750 l 822 671 l 958 671 l 958 485 l 822 485 l 822 0 m 1154 731 b 1032 854 1086 731 1032 786 b 1154 976 1032 922 1086 976 b 1276 854 1222 976 1276 922 b 1154 731 1276 786 1222 731 m 1001 -272 b 825 -225 908 -272 876 -258 l 879 -68 b 965 -97 906 -89 925 -97 b 1047 6 1015 -97 1047 -64 l 1047 671 l 1261 671 l 1261 6 b 1001 -272 1261 -157 1181 -272 m 124 0 l 124 485 l 13 485 l 13 671 l 124 671 l 124 704 b 364 940 124 846 224 940 b 557 874 436 940 511 921 l 478 751 b 411 778 461 769 442 778 b 338 704 371 778 338 751 l 338 671 l 474 671 l 474 485 l 338 485 l 338 0 "},"ﬄ":{"ha":1340,"x_min":0,"x_max":0,"o":"m 608 0 l 608 485 l 497 485 l 497 671 l 608 671 l 608 704 b 849 940 608 847 710 940 b 990 910 907 940 957 928 l 950 761 b 893 778 938 771 917 778 b 822 704 851 778 822 750 l 822 671 l 958 671 l 958 485 l 822 485 l 822 0 m 1047 0 l 1047 926 l 1261 926 l 1261 0 m 124 0 l 124 485 l 13 485 l 13 671 l 124 671 l 124 704 b 364 940 124 846 224 940 b 557 874 436 940 511 921 l 478 751 b 411 778 461 769 442 778 b 338 704 371 778 338 751 l 338 671 l 474 671 l 474 485 l 338 485 l 338 0 "},"ḟ":{"ha":485,"x_min":0,"x_max":0,"o":"m 365 976 b 257 1086 306 976 257 1025 b 365 1194 257 1146 306 1194 b 474 1086 425 1194 474 1146 b 365 976 474 1025 425 976 m 124 0 l 124 485 l 13 485 l 13 671 l 124 671 l 124 704 b 364 940 124 846 224 940 b 557 874 436 940 511 921 l 478 751 b 411 778 461 769 442 778 b 338 704 371 778 338 751 l 338 671 l 474 671 l 474 485 l 338 485 l 338 0 "},"ĝ":{"ha":819,"x_min":0,"x_max":0,"o":"m 513 772 l 417 885 l 325 772 l 199 772 l 324 972 l 511 972 l 640 772 m 357 -272 b 60 -172 242 -272 146 -243 l 153 -19 b 357 -97 204 -75 279 -97 b 528 57 428 -97 528 -68 l 528 108 b 329 11 472 43 406 11 b 33 350 165 11 33 124 b 329 688 33 571 161 688 b 528 592 404 688 474 658 l 528 671 l 740 671 l 740 60 b 357 -272 740 -214 524 -272 m 400 200 b 528 260 444 200 501 224 l 528 439 b 400 499 501 475 444 499 b 253 350 315 499 253 447 b 400 200 253 251 315 200 "},"ğ":{"ha":819,"x_min":0,"x_max":0,"o":"m 357 -272 b 60 -172 242 -272 146 -243 l 153 -19 b 357 -97 204 -75 279 -97 b 528 57 428 -97 528 -68 l 528 108 b 329 11 472 43 406 11 b 33 350 165 11 33 124 b 329 688 33 571 161 688 b 528 592 404 688 474 658 l 528 671 l 740 671 l 740 60 b 357 -272 740 -214 524 -272 m 400 200 b 528 260 444 200 501 224 l 528 439 b 400 499 501 475 444 499 b 253 350 315 499 253 447 b 400 200 253 251 315 200 m 651 856 b 408 733 596 781 508 733 b 164 856 310 733 221 781 l 256 931 b 408 850 290 883 342 850 b 560 931 472 850 525 879 l 651 856 "},"ġ":{"ha":819,"x_min":0,"x_max":0,"o":"m 357 -272 b 60 -172 242 -272 146 -243 l 153 -19 b 357 -97 204 -75 279 -97 b 528 57 428 -97 528 -68 l 528 108 b 329 11 472 43 406 11 b 33 350 165 11 33 124 b 329 688 33 571 161 688 b 528 592 404 688 474 658 l 528 671 l 740 671 l 740 60 b 357 -272 740 -214 524 -272 m 400 200 b 528 260 444 200 501 224 l 528 439 b 400 499 501 475 444 499 b 253 350 315 499 253 447 b 400 200 253 251 315 200 m 419 744 b 311 854 360 744 311 793 b 419 963 311 914 360 963 b 528 854 479 963 528 914 b 419 744 528 793 479 744 "},"ģ":{"ha":819,"x_min":0,"x_max":0,"o":"m 307 850 b 425 1075 307 940 346 1021 l 493 1021 b 404 924 463 1007 411 963 b 413 925 406 924 408 925 b 507 832 458 925 507 886 b 407 733 507 779 463 733 b 307 850 368 733 307 757 m 357 -272 b 60 -172 242 -272 146 -243 l 153 -19 b 357 -97 204 -75 279 -97 b 528 57 428 -97 528 -68 l 528 108 b 329 11 472 43 406 11 b 33 350 165 11 33 124 b 329 688 33 571 161 688 b 528 592 404 688 474 658 l 528 671 l 740 671 l 740 60 b 357 -272 740 -214 524 -272 m 400 200 b 528 260 444 200 501 224 l 528 439 b 400 499 501 475 444 499 b 253 350 315 499 253 447 b 400 200 253 251 315 200 "},"ħ":{"ha":831,"x_min":0,"x_max":0,"o":"m 299 728 l 299 589 b 531 688 339 636 418 688 b 753 478 683 688 753 601 l 753 0 l 539 0 l 539 390 b 428 499 539 472 496 499 b 299 433 365 499 324 464 l 299 0 l 85 0 l 85 728 l 11 728 l 11 846 l 85 846 l 85 926 l 299 926 l 299 846 l 493 846 l 493 728 "},"ĥ":{"ha":825,"x_min":0,"x_max":0,"o":"m 507 1004 l 411 1117 l 319 1004 l 193 1004 l 318 1204 l 506 1204 l 635 1004 m 533 0 l 533 390 b 422 499 533 472 490 499 b 293 433 360 499 318 464 l 293 0 l 79 0 l 79 926 l 293 926 l 293 589 b 525 688 333 636 413 688 b 747 478 678 688 747 601 l 747 0 "},"ḣ":{"ha":825,"x_min":0,"x_max":0,"o":"m 533 0 l 533 390 b 422 499 533 472 490 499 b 293 433 360 499 318 464 l 293 0 l 79 0 l 79 926 l 293 926 l 293 589 b 525 688 333 636 413 688 b 747 478 678 688 747 601 l 747 0 m 413 976 b 304 1086 353 976 304 1025 b 413 1194 304 1146 353 1194 b 521 1086 472 1194 521 1146 b 413 976 521 1025 472 976 "},"ı":{"ha":369,"x_min":0,"x_max":0,"o":"m 78 0 l 78 671 l 292 671 l 292 0 "},"í":{"ha":369,"x_min":0,"x_max":0,"o":"m 238 772 l 93 772 l 269 972 l 458 972 m 78 0 l 78 671 l 292 671 l 292 0 "},"ĭ":{"ha":369,"x_min":0,"x_max":0,"o":"m 78 0 l 78 671 l 292 671 l 292 0 m 431 856 b 188 733 375 781 288 733 b -57 856 89 733 0 781 l 35 931 b 188 850 69 883 121 850 b 339 931 251 850 304 879 l 431 856 "},"î":{"ha":369,"x_min":0,"x_max":0,"o":"m 279 772 l 183 885 l 92 772 l -35 772 l 90 972 l 278 972 l 407 772 m 78 0 l 78 671 l 292 671 l 292 0 "},"ï":{"ha":369,"x_min":0,"x_max":0,"o":"m 443 854 b 333 744 443 792 394 744 b 225 854 274 744 225 792 b 333 963 225 914 274 963 b 443 854 394 963 443 914 m 146 854 b 36 744 146 792 97 744 b -72 854 -25 744 -72 792 b 36 963 -72 914 -25 963 b 146 854 97 963 146 914 m 78 0 l 78 671 l 292 671 l 292 0 "},"ì":{"ha":369,"x_min":0,"x_max":0,"o":"m 78 0 l 78 671 l 292 671 l 292 0 m 133 772 l -87 972 l 101 972 l 278 772 "},"ī":{"ha":369,"x_min":0,"x_max":0,"o":"m 78 0 l 78 671 l 292 671 l 292 0 m -67 772 l -67 890 l 438 890 l 438 772 "},"į":{"ha":369,"x_min":0,"x_max":0,"o":"m 379 -182 b 243 -258 351 -228 307 -258 b 97 -131 167 -258 97 -221 b 156 0 97 -81 117 -36 l 78 0 l 78 671 l 292 671 l 292 0 b 197 -121 224 -35 197 -76 b 243 -174 197 -161 221 -174 b 297 -131 271 -174 288 -156 m 185 731 b 63 854 117 731 63 786 b 185 976 63 922 117 976 b 307 854 253 976 307 922 b 185 731 307 786 253 731 "},"ĩ":{"ha":369,"x_min":0,"x_max":0,"o":"m 78 0 l 78 671 l 292 671 l 292 0 m 261 769 b 104 846 171 769 149 846 b 63 778 82 846 63 825 l -46 778 b 111 964 -46 901 8 964 b 268 888 200 964 224 888 b 310 956 290 888 310 908 l 418 956 b 261 769 418 833 364 769 "},"ỉ":{"ha":369,"x_min":0,"x_max":0,"o":"m 78 0 l 78 671 l 292 671 l 292 0 m 69 824 b 185 903 88 876 133 903 b 301 800 246 903 301 872 b 282 732 301 774 293 754 l 196 732 b 221 796 214 751 221 774 b 185 836 221 825 203 836 b 142 800 163 836 149 819 "},"ị":{"ha":369,"x_min":0,"x_max":0,"o":"m 185 731 b 63 854 117 731 63 786 b 185 976 63 922 117 976 b 307 854 253 976 307 922 b 185 731 307 786 253 731 m 78 0 l 78 671 l 292 671 l 292 0 m 188 -282 b 79 -172 128 -282 79 -233 b 188 -64 79 -112 128 -64 b 296 -172 247 -64 296 -112 b 188 -282 296 -233 247 -282 "},"ĳ":{"ha":740,"x_min":0,"x_max":0,"o":"m 185 731 b 63 854 117 731 63 786 b 185 976 63 922 117 976 b 307 854 253 976 307 922 b 185 731 307 786 253 731 m 78 0 l 78 671 l 292 671 l 292 0 m 554 731 b 432 854 486 731 432 786 b 554 976 432 922 486 976 b 676 854 622 976 676 922 b 554 731 676 786 622 731 m 401 -272 b 225 -225 308 -272 276 -258 l 279 -68 b 365 -97 306 -89 325 -97 b 447 6 415 -97 447 -64 l 447 671 l 661 671 l 661 6 b 401 -272 661 -157 581 -272 "},"ȷ":{"ha":369,"x_min":0,"x_max":0,"o":"m 32 -272 b -144 -225 -61 -272 -93 -258 l -90 -57 b -4 -87 -64 -78 -44 -87 b 78 6 46 -87 78 -53 l 78 671 l 292 671 l 292 6 b 32 -272 292 -157 211 -272 "},"ĵ":{"ha":369,"x_min":0,"x_max":0,"o":"m 282 772 l 186 885 l 94 772 l -32 772 l 93 972 l 281 972 l 410 772 m 32 -272 b -144 -225 -61 -272 -93 -258 l -90 -57 b -4 -87 -64 -78 -44 -87 b 78 6 46 -87 78 -53 l 78 671 l 292 671 l 292 6 b 32 -272 292 -157 211 -272 "},"ķ":{"ha":758,"x_min":0,"x_max":0,"o":"m 488 -193 b 365 -411 488 -281 439 -358 l 297 -357 b 388 -250 332 -337 376 -290 b 364 -254 383 -253 374 -254 b 282 -167 318 -254 282 -219 b 379 -68 282 -112 326 -68 b 488 -193 436 -68 488 -114 m 503 0 l 356 238 l 292 161 l 292 0 l 78 0 l 78 926 l 292 926 l 292 403 l 496 671 l 754 671 l 507 365 l 767 0 "},"ĸ":{"ha":758,"x_min":0,"x_max":0,"o":"m 503 0 l 356 238 l 292 161 l 292 0 l 78 0 l 78 671 l 292 671 l 292 403 l 496 671 l 754 671 l 507 365 l 767 0 "},"ĺ":{"ha":369,"x_min":0,"x_max":0,"o":"m 238 1004 l 93 1004 l 269 1204 l 458 1204 m 78 0 l 78 926 l 292 926 l 292 0 "},"ļ":{"ha":369,"x_min":0,"x_max":0,"o":"m 294 -193 b 172 -411 294 -281 246 -358 l 104 -357 b 194 -250 139 -337 183 -290 b 171 -254 190 -253 181 -254 b 89 -167 125 -254 89 -219 b 186 -68 89 -112 133 -68 b 294 -193 243 -68 294 -114 m 78 0 l 78 926 l 292 926 l 292 0 "},"ľ":{"ha":536,"x_min":0,"x_max":0,"o":"m 560 821 b 438 603 560 733 511 656 l 369 657 b 460 764 404 676 449 724 b 436 760 456 761 446 760 b 354 847 390 760 354 794 b 451 946 354 901 399 946 b 560 821 508 946 560 900 m 78 0 l 78 926 l 292 926 l 292 0 "},"ŀ":{"ha":588,"x_min":0,"x_max":0,"o":"m 78 0 l 78 926 l 292 926 l 292 0 m 608 339 b 478 210 608 269 549 210 b 349 339 407 210 349 269 b 478 469 349 410 407 469 b 608 339 549 469 608 410 "},"ł":{"ha":443,"x_min":0,"x_max":0,"o":"m 11 418 l 114 476 l 114 926 l 328 926 l 328 600 l 432 661 l 432 510 l 328 449 l 328 0 l 114 0 l 114 325 l 11 267 "},"ń":{"ha":824,"x_min":0,"x_max":0,"o":"m 464 772 l 319 772 l 496 972 l 685 972 m 532 0 l 532 388 b 422 499 532 469 489 499 b 292 433 358 499 317 464 l 292 0 l 78 0 l 78 671 l 292 671 l 292 589 b 524 688 332 636 411 688 b 746 475 676 688 746 599 l 746 0 "},"ŉ":{"ha":824,"x_min":0,"x_max":0,"o":"m 253 951 b 131 733 253 864 204 786 l 63 788 b 153 894 97 807 142 854 b 129 890 149 892 139 890 b 47 978 83 890 47 925 b 144 1076 47 1032 92 1076 b 253 951 201 1076 253 1031 m 532 0 l 532 388 b 422 499 532 469 489 499 b 292 433 358 499 317 464 l 292 0 l 78 0 l 78 671 l 292 671 l 292 589 b 524 688 332 636 411 688 b 746 475 676 688 746 599 l 746 0 "},"ň":{"ha":824,"x_min":0,"x_max":0,"o":"m 321 772 l 192 972 l 318 972 l 414 860 l 506 972 l 633 972 l 508 772 m 532 0 l 532 388 b 422 499 532 469 489 499 b 292 433 358 499 317 464 l 292 0 l 78 0 l 78 671 l 292 671 l 292 589 b 524 688 332 636 411 688 b 746 475 676 688 746 599 l 746 0 "},"ņ":{"ha":824,"x_min":0,"x_max":0,"o":"m 518 -193 b 396 -411 518 -281 469 -358 l 328 -357 b 418 -250 363 -337 407 -290 b 394 -254 414 -253 404 -254 b 313 -167 349 -254 313 -219 b 410 -68 313 -112 357 -68 b 518 -193 467 -68 518 -114 m 532 0 l 532 388 b 422 499 532 469 489 499 b 292 433 358 499 317 464 l 292 0 l 78 0 l 78 671 l 292 671 l 292 589 b 524 688 332 636 411 688 b 746 475 676 688 746 599 l 746 0 "},"ñ":{"ha":824,"x_min":0,"x_max":0,"o":"m 532 0 l 532 388 b 422 499 532 469 489 499 b 292 433 358 499 317 464 l 292 0 l 78 0 l 78 671 l 292 671 l 292 589 b 524 688 332 636 411 688 b 746 475 676 688 746 599 l 746 0 m 489 769 b 332 846 399 769 376 846 b 290 778 310 846 290 825 l 182 778 b 339 964 182 901 236 964 b 496 888 428 964 451 888 b 538 956 518 888 538 908 l 646 956 b 489 769 646 833 592 769 "},"ŋ":{"ha":824,"x_min":0,"x_max":0,"o":"m 746 6 b 486 -272 746 -157 665 -272 b 310 -225 393 -272 361 -258 l 364 -53 b 450 -83 390 -75 410 -83 b 532 6 500 -83 532 -50 l 532 388 b 422 499 532 469 489 499 b 292 433 358 499 317 464 l 292 0 l 78 0 l 78 671 l 292 671 l 292 589 b 524 688 332 636 411 688 b 746 475 676 688 746 599 "},"ó":{"ha":800,"x_min":0,"x_max":0,"o":"m 451 772 l 307 772 l 483 972 l 672 972 m 399 -17 b 33 336 171 -17 33 147 b 399 688 33 525 171 688 b 765 336 629 688 765 525 b 399 -17 765 147 629 -17 m 399 172 b 546 336 493 172 546 246 b 399 499 546 425 493 499 b 254 336 306 499 254 425 b 399 172 254 246 306 172 "},"ŏ":{"ha":800,"x_min":0,"x_max":0,"o":"m 399 -17 b 33 336 171 -17 33 147 b 399 688 33 525 171 688 b 765 336 629 688 765 525 b 399 -17 765 147 629 -17 m 399 172 b 546 336 493 172 546 246 b 399 499 546 425 493 499 b 254 336 306 499 254 425 b 399 172 254 246 306 172 m 642 856 b 399 733 586 781 499 733 b 154 856 300 733 211 781 l 246 931 b 399 850 281 883 332 850 b 550 931 463 850 515 879 l 642 856 "},"ô":{"ha":800,"x_min":0,"x_max":0,"o":"m 494 772 l 399 885 l 307 772 l 181 772 l 306 972 l 493 972 l 622 772 m 399 -17 b 33 336 171 -17 33 147 b 399 688 33 525 171 688 b 765 336 629 688 765 525 b 399 -17 765 147 629 -17 m 399 172 b 546 336 493 172 546 246 b 399 499 546 425 493 499 b 254 336 306 499 254 425 b 399 172 254 246 306 172 "},"ö":{"ha":800,"x_min":0,"x_max":0,"o":"m 657 854 b 547 744 657 792 608 744 b 439 854 488 744 439 792 b 547 963 439 914 488 963 b 657 854 608 963 657 914 m 360 854 b 250 744 360 792 311 744 b 142 854 189 744 142 792 b 250 963 142 914 189 963 b 360 854 311 963 360 914 m 399 -17 b 33 336 171 -17 33 147 b 399 688 33 525 171 688 b 765 336 629 688 765 525 b 399 -17 765 147 629 -17 m 399 172 b 546 336 493 172 546 246 b 399 499 546 425 493 499 b 254 336 306 499 254 425 b 399 172 254 246 306 172 "},"ò":{"ha":800,"x_min":0,"x_max":0,"o":"m 399 -17 b 33 336 171 -17 33 147 b 399 688 33 525 171 688 b 765 336 629 688 765 525 b 399 -17 765 147 629 -17 m 399 172 b 546 336 493 172 546 246 b 399 499 546 425 493 499 b 254 336 306 499 254 425 b 399 172 254 246 306 172 m 347 772 l 126 972 l 315 972 l 492 772 "},"ő":{"ha":800,"x_min":0,"x_max":0,"o":"m 342 772 l 221 772 l 338 972 l 501 972 m 554 772 l 433 772 l 549 972 l 714 972 m 399 -17 b 33 336 171 -17 33 147 b 399 688 33 525 171 688 b 765 336 629 688 765 525 b 399 -17 765 147 629 -17 m 399 172 b 546 336 493 172 546 246 b 399 499 546 425 493 499 b 254 336 306 499 254 425 b 399 172 254 246 306 172 "},"ō":{"ha":800,"x_min":0,"x_max":0,"o":"m 147 772 l 147 890 l 651 890 l 651 772 m 399 -17 b 33 336 171 -17 33 147 b 399 688 33 525 171 688 b 765 336 629 688 765 525 b 399 -17 765 147 629 -17 m 399 172 b 546 336 493 172 546 246 b 399 499 546 425 493 499 b 254 336 306 499 254 425 b 399 172 254 246 306 172 "},"ø":{"ha":800,"x_min":0,"x_max":0,"o":"m 40 0 l 124 96 b 33 336 65 160 33 244 b 399 688 33 525 171 688 b 599 636 476 688 544 668 l 629 671 l 757 671 l 674 576 b 765 336 733 513 765 428 b 399 -17 765 147 629 -17 b 197 36 319 -17 251 3 l 165 0 m 399 172 b 546 336 493 172 546 246 b 531 414 546 364 540 390 l 331 188 b 399 172 350 176 372 172 m 254 336 b 268 260 254 308 258 282 l 465 483 b 399 499 446 493 424 499 b 254 336 306 499 254 425 "},"ǿ":{"ha":800,"x_min":0,"x_max":0,"o":"m 451 772 l 307 772 l 483 972 l 672 972 m 40 0 l 124 96 b 33 336 65 160 33 244 b 399 688 33 525 171 688 b 599 636 476 688 544 668 l 629 671 l 757 671 l 674 576 b 765 336 733 513 765 428 b 399 -17 765 147 629 -17 b 197 36 319 -17 251 3 l 165 0 m 399 172 b 546 336 493 172 546 246 b 531 414 546 364 540 390 l 331 188 b 399 172 350 176 372 172 m 254 336 b 268 260 254 308 258 282 l 465 483 b 399 499 446 493 424 499 b 254 336 306 499 254 425 "},"õ":{"ha":800,"x_min":0,"x_max":0,"o":"m 399 -17 b 33 336 171 -17 33 147 b 399 688 33 525 171 688 b 765 336 629 688 765 525 b 399 -17 765 147 629 -17 m 399 172 b 546 336 493 172 546 246 b 399 499 546 425 493 499 b 254 336 306 499 254 425 b 399 172 254 246 306 172 m 475 769 b 318 846 385 769 363 846 b 276 778 296 846 276 825 l 168 778 b 325 964 168 901 222 964 b 482 888 414 964 438 888 b 524 956 504 888 524 908 l 632 956 b 475 769 632 833 578 769 "},"ọ":{"ha":800,"x_min":0,"x_max":0,"o":"m 399 -17 b 33 336 171 -17 33 147 b 399 688 33 525 171 688 b 765 336 629 688 765 525 b 399 -17 765 147 629 -17 m 399 172 b 546 336 493 172 546 246 b 399 499 546 425 493 499 b 254 336 306 499 254 425 b 399 172 254 246 306 172 m 401 -282 b 293 -172 342 -282 293 -233 b 401 -64 293 -112 342 -64 b 510 -172 461 -64 510 -112 b 401 -282 510 -233 461 -282 "},"ỏ":{"ha":800,"x_min":0,"x_max":0,"o":"m 399 -17 b 33 336 171 -17 33 147 b 399 688 33 525 171 688 b 765 336 629 688 765 525 b 399 -17 765 147 629 -17 m 399 172 b 546 336 493 172 546 246 b 399 499 546 425 493 499 b 254 336 306 499 254 425 b 399 172 254 246 306 172 m 285 824 b 400 903 303 876 349 903 b 517 800 461 903 517 872 b 497 732 517 774 508 754 l 411 732 b 436 796 429 751 436 774 b 400 836 436 825 418 836 b 357 800 378 836 364 819 "},"ố":{"ha":800,"x_min":0,"x_max":0,"o":"m 493 772 l 397 885 l 306 772 l 179 772 l 304 972 l 492 972 l 621 772 m 708 869 l 564 869 l 740 1069 l 929 1069 m 399 -17 b 33 336 171 -17 33 147 b 399 688 33 525 171 688 b 765 336 629 688 765 525 b 399 -17 765 147 629 -17 m 399 172 b 546 336 493 172 546 246 b 399 499 546 425 493 499 b 254 336 306 499 254 425 b 399 172 254 246 306 172 "},"ồ":{"ha":800,"x_min":0,"x_max":0,"o":"m 493 772 l 397 885 l 306 772 l 179 772 l 304 972 l 492 972 l 621 772 m 399 -17 b 33 336 171 -17 33 147 b 399 688 33 525 171 688 b 765 336 629 688 765 525 b 399 -17 765 147 629 -17 m 399 172 b 546 336 493 172 546 246 b 399 499 546 425 493 499 b 254 336 306 499 254 425 b 399 172 254 246 306 172 m 85 869 l -136 1069 l 53 1069 l 229 869 "},"ổ":{"ha":800,"x_min":0,"x_max":0,"o":"m 492 772 l 396 885 l 304 772 l 178 772 l 303 972 l 490 972 l 619 772 m 399 -17 b 33 336 171 -17 33 147 b 399 688 33 525 171 688 b 765 336 629 688 765 525 b 399 -17 765 147 629 -17 m 399 172 b 546 336 493 172 546 246 b 399 499 546 425 493 499 b 254 336 306 499 254 425 b 399 172 254 246 306 172 m 438 1018 b 553 1097 456 1071 501 1097 b 669 994 614 1097 669 1067 b 650 926 669 968 661 949 l 564 926 b 589 990 582 946 589 968 b 553 1031 589 1019 571 1031 b 510 994 531 1031 517 1014 "},"ỗ":{"ha":800,"x_min":0,"x_max":0,"o":"m 492 726 l 396 839 l 304 726 l 178 726 l 303 926 l 490 926 l 619 726 m 399 -17 b 33 336 171 -17 33 147 b 399 688 33 525 171 688 b 765 336 629 688 765 525 b 399 -17 765 147 629 -17 m 399 172 b 546 336 493 172 546 246 b 399 499 546 425 493 499 b 254 336 306 499 254 425 b 399 172 254 246 306 172 m 475 947 b 318 1024 385 947 363 1024 b 276 956 296 1024 276 1003 l 168 956 b 325 1142 168 1079 222 1142 b 482 1065 414 1142 438 1065 b 524 1133 504 1065 524 1086 l 632 1133 b 475 947 632 1011 578 947 "},"ộ":{"ha":800,"x_min":0,"x_max":0,"o":"m 493 772 l 397 885 l 306 772 l 179 772 l 304 972 l 492 972 l 621 772 m 399 -17 b 33 336 171 -17 33 147 b 399 688 33 525 171 688 b 765 336 629 688 765 525 b 399 -17 765 147 629 -17 m 399 172 b 546 336 493 172 546 246 b 399 499 546 425 493 499 b 254 336 306 499 254 425 b 399 172 254 246 306 172 m 401 -282 b 293 -172 342 -282 293 -233 b 401 -64 293 -112 342 -64 b 510 -172 461 -64 510 -112 b 401 -282 510 -233 461 -282 "},"ơ":{"ha":800,"x_min":0,"x_max":0,"o":"m 783 740 b 690 557 783 668 747 603 b 765 336 739 496 765 418 b 399 -17 765 147 629 -17 b 33 336 171 -17 33 147 b 399 688 33 525 171 688 b 638 610 496 688 578 657 b 696 690 664 631 688 663 b 675 686 693 688 683 686 b 601 764 633 686 601 717 b 688 850 601 811 640 850 b 783 740 739 850 783 810 m 399 172 b 546 336 493 172 546 246 b 399 499 546 425 493 499 b 254 336 306 499 254 425 b 399 172 254 246 306 172 "},"ớ":{"ha":800,"x_min":0,"x_max":0,"o":"m 451 772 l 307 772 l 483 972 l 672 972 m 783 740 b 690 557 783 668 747 603 b 765 336 739 496 765 418 b 399 -17 765 147 629 -17 b 33 336 171 -17 33 147 b 399 688 33 525 171 688 b 638 610 496 688 578 657 b 696 690 664 631 688 663 b 675 686 693 688 683 686 b 601 764 633 686 601 717 b 688 850 601 811 640 850 b 783 740 739 850 783 810 m 399 172 b 546 336 493 172 546 246 b 399 499 546 425 493 499 b 254 336 306 499 254 425 b 399 172 254 246 306 172 "},"ờ":{"ha":800,"x_min":0,"x_max":0,"o":"m 783 740 b 690 557 783 668 747 603 b 765 336 739 496 765 418 b 399 -17 765 147 629 -17 b 33 336 171 -17 33 147 b 399 688 33 525 171 688 b 638 610 496 688 578 657 b 696 690 664 631 688 663 b 675 686 693 688 683 686 b 601 764 633 686 601 717 b 688 850 601 811 640 850 b 783 740 739 850 783 810 m 399 172 b 546 336 493 172 546 246 b 399 499 546 425 493 499 b 254 336 306 499 254 425 b 399 172 254 246 306 172 m 347 772 l 126 972 l 315 972 l 492 772 "},"ở":{"ha":800,"x_min":0,"x_max":0,"o":"m 783 740 b 690 557 783 668 747 603 b 765 336 739 496 765 418 b 399 -17 765 147 629 -17 b 33 336 171 -17 33 147 b 399 688 33 525 171 688 b 638 610 496 688 578 657 b 696 690 664 631 688 663 b 675 686 693 688 683 686 b 601 764 633 686 601 717 b 688 850 601 811 640 850 b 783 740 739 850 783 810 m 399 172 b 546 336 493 172 546 246 b 399 499 546 425 493 499 b 254 336 306 499 254 425 b 399 172 254 246 306 172 m 283 824 b 399 903 301 876 347 903 b 515 800 460 903 515 872 b 496 732 515 774 507 754 l 410 732 b 435 796 428 751 435 774 b 399 836 435 825 417 836 b 356 800 376 836 363 819 "},"ỡ":{"ha":800,"x_min":0,"x_max":0,"o":"m 783 740 b 690 557 783 668 747 603 b 765 336 739 496 765 418 b 399 -17 765 147 629 -17 b 33 336 171 -17 33 147 b 399 688 33 525 171 688 b 638 610 496 688 578 657 b 696 690 664 631 688 663 b 675 686 693 688 683 686 b 601 764 633 686 601 717 b 688 850 601 811 640 850 b 783 740 739 850 783 810 m 399 172 b 546 336 493 172 546 246 b 399 499 546 425 493 499 b 254 336 306 499 254 425 b 399 172 254 246 306 172 m 457 769 b 300 846 367 769 344 846 b 258 778 278 846 258 825 l 150 778 b 307 964 150 901 204 964 b 464 888 396 964 419 888 b 506 956 486 888 506 908 l 614 956 b 457 769 614 833 560 769 "},"ợ":{"ha":800,"x_min":0,"x_max":0,"o":"m 783 740 b 690 557 783 668 747 603 b 765 336 739 496 765 418 b 399 -17 765 147 629 -17 b 33 336 171 -17 33 147 b 399 688 33 525 171 688 b 638 610 496 688 578 657 b 696 690 664 631 688 663 b 675 686 693 688 683 686 b 601 764 633 686 601 717 b 688 850 601 811 640 850 b 783 740 739 850 783 810 m 399 172 b 546 336 493 172 546 246 b 399 499 546 425 493 499 b 254 336 306 499 254 425 b 399 172 254 246 306 172 m 401 -282 b 293 -172 342 -282 293 -233 b 401 -64 293 -112 342 -64 b 510 -172 461 -64 510 -112 b 401 -282 510 -233 461 -282 "},"œ":{"ha":1272,"x_min":0,"x_max":0,"o":"m 767 268 b 940 149 783 208 838 149 b 1099 204 997 149 1060 169 l 1193 72 b 911 -17 1125 13 1014 -17 b 653 110 776 -17 706 50 b 399 -17 603 50 526 -17 b 33 336 171 -17 33 147 b 399 688 33 525 171 688 b 654 560 526 688 601 618 b 903 688 701 619 776 688 b 1244 314 1101 688 1244 542 l 1244 268 m 1040 407 b 901 524 1035 454 1000 524 b 765 407 808 524 772 457 m 546 336 b 399 499 546 436 486 499 b 254 336 314 499 254 436 b 399 171 254 235 314 171 b 546 336 486 171 546 235 "},"ṗ":{"ha":818,"x_min":0,"x_max":0,"o":"m 490 -17 b 292 79 415 -17 347 13 l 292 -256 l 78 -256 l 78 671 l 292 671 l 292 593 b 490 688 344 657 414 688 b 785 336 658 688 785 563 b 490 -17 785 108 658 -17 m 419 172 b 567 336 503 172 567 235 b 419 499 567 436 503 499 b 292 438 374 499 318 474 l 292 233 b 419 172 318 199 374 172 m 419 744 b 311 854 360 744 311 793 b 419 963 311 914 360 963 b 528 854 479 963 528 914 b 419 744 528 793 479 744 "},"ŕ":{"ha":521,"x_min":0,"x_max":0,"o":"m 340 772 l 196 772 l 372 972 l 561 972 m 78 0 l 78 671 l 292 671 l 292 589 b 501 689 336 643 421 689 l 501 483 b 449 489 489 486 471 489 b 292 428 393 489 319 465 l 292 0 "},"ř":{"ha":521,"x_min":0,"x_max":0,"o":"m 197 772 l 68 972 l 194 972 l 290 860 l 382 972 l 510 972 l 385 772 m 78 0 l 78 671 l 292 671 l 292 589 b 501 689 336 643 421 689 l 501 483 b 449 489 489 486 471 489 b 292 428 393 489 319 465 l 292 0 "},"ŗ":{"ha":521,"x_min":0,"x_max":0,"o":"m 368 -193 b 246 -411 368 -281 319 -358 l 178 -357 b 268 -250 213 -337 257 -290 b 244 -254 264 -253 254 -254 b 163 -167 199 -254 163 -219 b 260 -68 163 -112 207 -68 b 368 -193 317 -68 368 -114 m 78 0 l 78 671 l 292 671 l 292 589 b 501 689 336 643 421 689 l 501 483 b 449 489 489 486 471 489 b 292 428 393 489 319 465 l 292 0 "},"ś":{"ha":672,"x_min":0,"x_max":0,"o":"m 388 772 l 243 772 l 419 972 l 608 972 m 335 -17 b 21 86 215 -17 92 24 l 110 233 b 346 144 160 189 267 144 b 436 196 410 144 436 165 b 46 467 436 283 46 197 b 333 688 46 585 147 688 b 614 599 446 688 542 651 l 532 457 b 335 531 492 496 415 531 b 250 482 285 531 250 510 b 640 206 250 404 640 481 b 335 -17 640 78 528 -17 "},"š":{"ha":672,"x_min":0,"x_max":0,"o":"m 244 772 l 115 972 l 242 972 l 338 860 l 429 972 l 557 972 l 432 772 m 335 -17 b 21 86 215 -17 92 24 l 110 233 b 346 144 160 189 267 144 b 436 196 410 144 436 165 b 46 467 436 283 46 197 b 333 688 46 585 147 688 b 614 599 446 688 542 651 l 532 457 b 335 531 492 496 415 531 b 250 482 285 531 250 510 b 640 206 250 404 640 481 b 335 -17 640 78 528 -17 "},"ŝ":{"ha":672,"x_min":0,"x_max":0,"o":"m 429 772 l 333 885 l 242 772 l 115 772 l 240 972 l 428 972 l 557 772 m 335 -17 b 21 86 215 -17 92 24 l 110 233 b 346 144 160 189 267 144 b 436 196 410 144 436 165 b 46 467 436 283 46 197 b 333 688 46 585 147 688 b 614 599 446 688 542 651 l 532 457 b 335 531 492 496 415 531 b 250 482 285 531 250 510 b 640 206 250 404 640 481 b 335 -17 640 78 528 -17 "},"ş":{"ha":672,"x_min":0,"x_max":0,"o":"m 333 -275 b 175 -229 264 -275 204 -253 l 214 -149 b 328 -190 250 -175 290 -190 b 393 -151 361 -190 393 -178 b 358 -121 393 -132 381 -121 b 318 -139 342 -121 328 -129 l 244 -97 l 276 -14 b 21 86 176 -3 79 33 l 110 233 b 346 144 160 189 267 144 b 436 196 410 144 436 165 b 46 467 436 283 46 197 b 333 688 46 585 147 688 b 614 599 446 688 542 651 l 532 457 b 335 531 492 496 415 531 b 250 482 285 531 250 510 b 640 206 250 404 640 481 b 374 -15 640 86 543 -3 l 351 -68 b 399 -54 365 -60 381 -54 b 493 -154 450 -54 493 -96 b 333 -275 493 -231 421 -275 "},"ș":{"ha":672,"x_min":0,"x_max":0,"o":"m 451 -193 b 329 -411 451 -281 403 -358 l 261 -357 b 351 -250 296 -337 340 -290 b 328 -254 347 -253 338 -254 b 246 -167 282 -254 246 -219 b 343 -68 246 -112 290 -68 b 451 -193 400 -68 451 -114 m 335 -17 b 21 86 215 -17 92 24 l 110 233 b 346 144 160 189 267 144 b 436 196 410 144 436 165 b 46 467 436 283 46 197 b 333 688 46 585 147 688 b 614 599 446 688 542 651 l 532 457 b 335 531 492 496 415 531 b 250 482 285 531 250 510 b 640 206 250 404 640 481 b 335 -17 640 78 528 -17 "},"ṡ":{"ha":672,"x_min":0,"x_max":0,"o":"m 335 -17 b 21 86 215 -17 92 24 l 110 233 b 346 144 160 189 267 144 b 436 196 410 144 436 165 b 46 467 436 283 46 197 b 333 688 46 585 147 688 b 614 599 446 688 542 651 l 532 457 b 335 531 492 496 415 531 b 250 482 285 531 250 510 b 640 206 250 404 640 481 b 335 -17 640 78 528 -17 m 336 744 b 228 854 276 744 228 793 b 336 963 228 914 276 963 b 444 854 396 963 444 914 b 336 744 444 793 396 744 "},"ß":{"ha":924,"x_min":0,"x_max":0,"o":"m 906 207 b 615 -17 906 74 786 -17 b 335 86 486 -17 404 25 l 419 233 b 615 144 457 186 540 144 b 700 196 672 144 700 169 b 357 469 700 281 357 211 b 513 694 357 610 513 647 b 419 751 513 733 468 751 b 293 643 346 751 293 713 l 293 0 l 79 0 l 79 643 b 424 940 79 803 204 940 b 731 726 582 940 731 860 b 561 478 731 569 561 546 b 906 207 561 406 906 481 "},"ſ":{"ha":485,"x_min":0,"x_max":0,"o":"m 124 0 l 124 485 l 13 485 l 13 671 l 124 671 l 124 704 b 364 940 124 846 224 940 b 557 874 436 940 511 921 l 478 747 b 408 775 461 765 439 775 b 338 704 371 775 338 747 l 338 0 "},"ŧ":{"ha":500,"x_min":0,"x_max":0,"o":"m 332 -17 b 122 181 196 -17 122 51 l 122 276 l 11 276 l 11 394 l 122 394 l 122 485 l 11 485 l 11 671 l 122 671 l 122 854 l 335 854 l 335 671 l 471 671 l 471 485 l 335 485 l 335 394 l 429 394 l 429 276 l 335 276 l 335 240 b 394 172 335 201 357 172 b 449 189 418 172 442 181 l 490 28 b 332 -17 464 3 411 -17 "},"ť":{"ha":574,"x_min":0,"x_max":0,"o":"m 611 951 b 489 733 611 864 563 786 l 421 788 b 511 894 456 807 500 854 b 488 890 507 892 497 890 b 406 978 442 890 406 925 b 503 1076 406 1032 450 1076 b 611 951 560 1076 611 1031 m 332 -17 b 122 181 196 -17 122 51 l 122 485 l 11 485 l 11 671 l 122 671 l 122 854 l 335 854 l 335 671 l 471 671 l 471 485 l 335 485 l 335 240 b 394 172 335 201 357 172 b 449 189 418 172 442 181 l 490 28 b 332 -17 464 3 411 -17 "},"ţ":{"ha":500,"x_min":0,"x_max":0,"o":"m 358 -193 b 236 -411 358 -281 310 -358 l 168 -357 b 258 -250 203 -337 247 -290 b 235 -254 254 -253 244 -254 b 153 -167 189 -254 153 -219 b 250 -68 153 -112 197 -68 b 358 -193 307 -68 358 -114 m 332 -17 b 122 181 196 -17 122 51 l 122 485 l 11 485 l 11 671 l 122 671 l 122 854 l 335 854 l 335 671 l 471 671 l 471 485 l 335 485 l 335 240 b 394 172 335 201 357 172 b 449 189 418 172 442 181 l 490 28 b 332 -17 464 3 411 -17 "},"ț":{"ha":500,"x_min":0,"x_max":0,"o":"m 358 -193 b 236 -411 358 -281 310 -358 l 168 -357 b 258 -250 203 -337 247 -290 b 235 -254 254 -253 244 -254 b 153 -167 189 -254 153 -219 b 250 -68 153 -112 197 -68 b 358 -193 307 -68 358 -114 m 332 -17 b 122 181 196 -17 122 51 l 122 485 l 11 485 l 11 671 l 122 671 l 122 854 l 335 854 l 335 671 l 471 671 l 471 485 l 335 485 l 335 240 b 394 172 335 201 357 172 b 449 189 418 172 442 181 l 490 28 b 332 -17 464 3 411 -17 "},"ṫ":{"ha":500,"x_min":0,"x_max":0,"o":"m 332 -17 b 122 181 196 -17 122 51 l 122 485 l 11 485 l 11 671 l 122 671 l 122 854 l 335 854 l 335 671 l 471 671 l 471 485 l 335 485 l 335 240 b 394 172 335 201 357 172 b 449 189 418 172 442 181 l 490 28 b 332 -17 464 3 411 -17 m 233 976 b 125 1086 174 976 125 1025 b 233 1194 125 1146 174 1194 b 342 1086 293 1194 342 1146 b 233 976 342 1025 293 976 "},"ú":{"ha":822,"x_min":0,"x_max":0,"o":"m 463 772 l 318 772 l 494 972 l 683 972 m 531 0 l 531 81 b 299 -17 489 33 411 -17 b 78 193 146 -17 78 69 l 78 671 l 292 671 l 292 281 b 403 172 292 200 333 172 b 531 238 464 172 506 206 l 531 671 l 744 671 l 744 0 "},"ŭ":{"ha":822,"x_min":0,"x_max":0,"o":"m 531 0 l 531 81 b 299 -17 489 33 411 -17 b 78 193 146 -17 78 69 l 78 671 l 292 671 l 292 281 b 403 172 292 200 333 172 b 531 238 464 172 506 206 l 531 671 l 744 671 l 744 0 m 657 856 b 414 733 601 781 514 733 b 169 856 315 733 226 781 l 261 931 b 414 850 296 883 347 850 b 565 931 478 850 531 879 l 657 856 "},"û":{"ha":822,"x_min":0,"x_max":0,"o":"m 507 772 l 411 885 l 319 772 l 193 772 l 318 972 l 506 972 l 635 772 m 531 0 l 531 81 b 299 -17 489 33 411 -17 b 78 193 146 -17 78 69 l 78 671 l 292 671 l 292 281 b 403 172 292 200 333 172 b 531 238 464 172 506 206 l 531 671 l 744 671 l 744 0 "},"ü":{"ha":822,"x_min":0,"x_max":0,"o":"m 671 854 b 561 744 671 792 622 744 b 453 854 501 744 453 792 b 561 963 453 914 501 963 b 671 854 622 963 671 914 m 374 854 b 264 744 374 792 325 744 b 156 854 203 744 156 792 b 264 963 156 914 203 963 b 374 854 325 963 374 914 m 531 0 l 531 81 b 299 -17 489 33 411 -17 b 78 193 146 -17 78 69 l 78 671 l 292 671 l 292 281 b 403 172 292 200 333 172 b 531 238 464 172 506 206 l 531 671 l 744 671 l 744 0 "},"ù":{"ha":822,"x_min":0,"x_max":0,"o":"m 531 0 l 531 81 b 299 -17 489 33 411 -17 b 78 193 146 -17 78 69 l 78 671 l 292 671 l 292 281 b 403 172 292 200 333 172 b 531 238 464 172 506 206 l 531 671 l 744 671 l 744 0 m 358 772 l 138 972 l 326 972 l 503 772 "},"ű":{"ha":822,"x_min":0,"x_max":0,"o":"m 531 0 l 531 81 b 299 -17 489 33 411 -17 b 78 193 146 -17 78 69 l 78 671 l 292 671 l 292 281 b 403 172 292 200 333 172 b 531 238 464 172 506 206 l 531 671 l 744 671 l 744 0 m 353 772 l 232 772 l 349 972 l 513 972 m 565 772 l 444 772 l 560 972 l 725 972 "},"ū":{"ha":822,"x_min":0,"x_max":0,"o":"m 531 0 l 531 81 b 299 -17 489 33 411 -17 b 78 193 146 -17 78 69 l 78 671 l 292 671 l 292 281 b 403 172 292 200 333 172 b 531 238 464 172 506 206 l 531 671 l 744 671 l 744 0 m 158 772 l 158 890 l 663 890 l 663 772 "},"ų":{"ha":822,"x_min":0,"x_max":0,"o":"m 744 0 b 650 -121 676 -35 650 -76 b 696 -174 650 -161 674 -174 b 750 -131 724 -174 740 -156 l 832 -182 b 696 -258 804 -228 760 -258 b 550 -131 619 -258 550 -221 b 608 0 550 -81 569 -36 l 531 0 l 531 81 b 299 -17 489 33 411 -17 b 78 193 146 -17 78 69 l 78 671 l 292 671 l 292 281 b 403 172 292 200 333 172 b 531 238 464 172 506 206 l 531 671 l 744 671 l 744 0 "},"ů":{"ha":822,"x_min":0,"x_max":0,"o":"m 414 729 b 263 879 331 729 263 797 b 414 1031 263 963 331 1031 b 561 879 496 1031 561 963 b 414 729 561 797 496 729 m 414 824 b 468 879 444 824 468 849 b 414 936 468 911 444 936 b 357 879 382 936 357 911 b 414 824 357 849 382 824 m 531 0 l 531 81 b 299 -17 489 33 411 -17 b 78 193 146 -17 78 69 l 78 671 l 292 671 l 292 281 b 403 172 292 200 333 172 b 531 238 464 172 506 206 l 531 671 l 744 671 l 744 0 "},"ũ":{"ha":822,"x_min":0,"x_max":0,"o":"m 531 0 l 531 81 b 299 -17 489 33 411 -17 b 78 193 146 -17 78 69 l 78 671 l 292 671 l 292 281 b 403 172 292 200 333 172 b 531 238 464 172 506 206 l 531 671 l 744 671 l 744 0 m 488 769 b 331 846 397 769 375 846 b 289 778 308 846 289 825 l 181 778 b 338 964 181 901 235 964 b 494 888 426 964 450 888 b 536 956 517 888 536 908 l 644 956 b 488 769 644 833 590 769 "},"ụ":{"ha":822,"x_min":0,"x_max":0,"o":"m 531 0 l 531 81 b 299 -17 489 33 411 -17 b 78 193 146 -17 78 69 l 78 671 l 292 671 l 292 281 b 403 172 292 200 333 172 b 531 238 464 172 506 206 l 531 671 l 744 671 l 744 0 m 414 -282 b 306 -172 354 -282 306 -233 b 414 -64 306 -112 354 -64 b 522 -172 474 -64 522 -112 b 414 -282 522 -233 474 -282 "},"ư":{"ha":822,"x_min":0,"x_max":0,"o":"m 531 0 l 531 81 b 299 -17 489 33 411 -17 b 78 193 146 -17 78 69 l 78 671 l 292 671 l 292 281 b 403 172 292 200 333 172 b 531 238 464 172 506 206 l 531 671 l 742 671 b 763 713 751 685 758 699 b 742 708 760 710 750 708 b 668 788 700 708 668 740 b 754 874 668 835 707 874 b 851 763 806 874 851 833 b 744 569 851 696 817 621 l 744 0 "},"ủ":{"ha":822,"x_min":0,"x_max":0,"o":"m 531 0 l 531 81 b 299 -17 489 33 411 -17 b 78 193 146 -17 78 69 l 78 671 l 292 671 l 292 281 b 403 172 292 200 333 172 b 531 238 464 172 506 206 l 531 671 l 744 671 l 744 0 m 296 824 b 411 903 314 876 360 903 b 528 800 472 903 528 872 b 508 732 528 774 519 754 l 422 732 b 447 796 440 751 447 774 b 411 836 447 825 429 836 b 368 800 389 836 375 819 "},"ứ":{"ha":822,"x_min":0,"x_max":0,"o":"m 463 772 l 318 772 l 494 972 l 683 972 m 531 0 l 531 81 b 299 -17 489 33 411 -17 b 78 193 146 -17 78 69 l 78 671 l 292 671 l 292 281 b 403 172 292 200 333 172 b 531 238 464 172 506 206 l 531 671 l 742 671 b 763 713 751 685 758 699 b 742 708 760 710 750 708 b 668 788 700 708 668 740 b 754 874 668 835 707 874 b 851 763 806 874 851 833 b 744 569 851 696 817 621 l 744 0 "},"ừ":{"ha":822,"x_min":0,"x_max":0,"o":"m 358 772 l 138 972 l 326 972 l 503 772 m 531 0 l 531 81 b 299 -17 489 33 411 -17 b 78 193 146 -17 78 69 l 78 671 l 292 671 l 292 281 b 403 172 292 200 333 172 b 531 238 464 172 506 206 l 531 671 l 742 671 b 763 713 751 685 758 699 b 742 708 760 710 750 708 b 668 788 700 708 668 740 b 754 874 668 835 707 874 b 851 763 806 874 851 833 b 744 569 851 696 817 621 l 744 0 "},"ử":{"ha":822,"x_min":0,"x_max":0,"o":"m 296 824 b 411 903 314 876 360 903 b 528 800 472 903 528 872 b 508 732 528 774 519 754 l 422 732 b 447 796 440 751 447 774 b 411 836 447 825 429 836 b 368 800 389 836 375 819 m 531 0 l 531 81 b 299 -17 489 33 411 -17 b 78 193 146 -17 78 69 l 78 671 l 292 671 l 292 281 b 403 172 292 200 333 172 b 531 238 464 172 506 206 l 531 671 l 742 671 b 763 713 751 685 758 699 b 742 708 760 710 750 708 b 668 788 700 708 668 740 b 754 874 668 835 707 874 b 851 763 806 874 851 833 b 744 569 851 696 817 621 l 744 0 "},"ữ":{"ha":822,"x_min":0,"x_max":0,"o":"m 531 0 l 531 81 b 299 -17 489 33 411 -17 b 78 193 146 -17 78 69 l 78 671 l 292 671 l 292 281 b 403 172 292 200 333 172 b 531 238 464 172 506 206 l 531 671 l 742 671 b 763 713 751 685 758 699 b 742 708 760 710 750 708 b 668 788 700 708 668 740 b 754 874 668 835 707 874 b 851 763 806 874 851 833 b 744 569 851 696 817 621 l 744 0 m 486 769 b 329 846 396 769 374 846 b 288 778 307 846 288 825 l 179 778 b 336 964 179 901 233 964 b 493 888 425 964 449 888 b 535 956 515 888 535 908 l 643 956 b 486 769 643 833 589 769 "},"ự":{"ha":822,"x_min":0,"x_max":0,"o":"m 414 -282 b 306 -172 354 -282 306 -233 b 414 -64 306 -112 354 -64 b 522 -172 474 -64 522 -112 b 414 -282 522 -233 474 -282 m 531 0 l 531 81 b 299 -17 489 33 411 -17 b 78 193 146 -17 78 69 l 78 671 l 292 671 l 292 281 b 403 172 292 200 333 172 b 531 238 464 172 506 206 l 531 671 l 742 671 b 763 713 751 685 758 699 b 742 708 760 710 750 708 b 668 788 700 708 668 740 b 754 874 668 835 707 874 b 851 763 806 874 851 833 b 744 569 851 696 817 621 l 744 0 "},"ẃ":{"ha":1093,"x_min":0,"x_max":0,"o":"m 597 772 l 453 772 l 629 972 l 818 972 m 672 0 l 546 415 l 421 0 l 190 0 l -8 671 l 211 671 l 319 260 l 451 671 l 642 671 l 774 260 l 881 671 l 1101 671 l 903 0 "},"ŵ":{"ha":1093,"x_min":0,"x_max":0,"o":"m 640 772 l 544 885 l 453 772 l 326 772 l 451 972 l 639 972 l 768 772 m 672 0 l 546 415 l 421 0 l 190 0 l -8 671 l 211 671 l 319 260 l 451 671 l 642 671 l 774 260 l 881 671 l 1101 671 l 903 0 "},"ẅ":{"ha":1093,"x_min":0,"x_max":0,"o":"m 804 854 b 694 744 804 792 756 744 b 586 854 635 744 586 792 b 694 963 586 914 635 963 b 804 854 756 963 804 914 m 507 854 b 397 744 507 792 458 744 b 289 854 336 744 289 792 b 397 963 289 914 336 963 b 507 854 458 963 507 914 m 672 0 l 546 415 l 421 0 l 190 0 l -8 671 l 211 671 l 319 260 l 451 671 l 642 671 l 774 260 l 881 671 l 1101 671 l 903 0 "},"ẁ":{"ha":1093,"x_min":0,"x_max":0,"o":"m 672 0 l 546 415 l 421 0 l 190 0 l -8 671 l 211 671 l 319 260 l 451 671 l 642 671 l 774 260 l 881 671 l 1101 671 l 903 0 m 492 772 l 271 972 l 460 972 l 636 772 "},"ý":{"ha":728,"x_min":0,"x_max":0,"o":"m 94 -71 b 147 -83 110 -79 131 -83 b 238 -46 196 -83 226 -74 l 253 -10 l -14 671 l 211 671 l 363 246 l 515 671 l 742 671 l 439 -96 b 156 -272 385 -237 283 -269 b 64 -261 136 -272 86 -268 m 415 772 l 271 772 l 447 972 l 636 972 "},"ŷ":{"ha":728,"x_min":0,"x_max":0,"o":"m 94 -71 b 147 -83 110 -79 131 -83 b 238 -46 196 -83 226 -74 l 253 -10 l -14 671 l 211 671 l 363 246 l 515 671 l 742 671 l 439 -96 b 156 -272 385 -237 283 -269 b 64 -261 136 -272 86 -268 m 457 772 l 361 885 l 269 772 l 143 772 l 268 972 l 456 972 l 585 772 "},"ÿ":{"ha":728,"x_min":0,"x_max":0,"o":"m 94 -71 b 147 -83 110 -79 131 -83 b 238 -46 196 -83 226 -74 l 253 -10 l -14 671 l 211 671 l 363 246 l 515 671 l 742 671 l 439 -96 b 156 -272 385 -237 283 -269 b 64 -261 136 -272 86 -268 m 621 854 b 511 744 621 792 572 744 b 403 854 451 744 403 792 b 511 963 403 914 451 963 b 621 854 572 963 621 914 m 324 854 b 214 744 324 792 275 744 b 106 854 153 744 106 792 b 214 963 106 914 153 963 b 324 854 275 963 324 914 "},"ỳ":{"ha":728,"x_min":0,"x_max":0,"o":"m 94 -71 b 147 -83 110 -79 131 -83 b 238 -46 196 -83 226 -74 l 253 -10 l -14 671 l 211 671 l 363 246 l 515 671 l 742 671 l 439 -96 b 156 -272 385 -237 283 -269 b 64 -261 136 -272 86 -268 m 310 772 l 89 972 l 278 972 l 454 772 "},"ź":{"ha":671,"x_min":0,"x_max":0,"o":"m 388 772 l 243 772 l 419 972 l 608 972 m 53 0 l 53 157 l 322 485 l 53 485 l 53 671 l 613 671 l 613 519 l 338 185 l 618 185 l 618 0 "},"ž":{"ha":671,"x_min":0,"x_max":0,"o":"m 238 772 l 108 972 l 235 972 l 331 860 l 422 972 l 550 972 l 425 772 m 53 0 l 53 157 l 322 485 l 53 485 l 53 671 l 613 671 l 613 519 l 338 185 l 618 185 l 618 0 "},"ż":{"ha":671,"x_min":0,"x_max":0,"o":"m 53 0 l 53 157 l 322 485 l 53 485 l 53 671 l 613 671 l 613 519 l 338 185 l 618 185 l 618 0 m 332 744 b 224 854 272 744 224 793 b 332 963 224 914 272 963 b 440 854 392 963 440 914 b 332 744 440 793 392 744 "},"ð":{"ha":800,"x_min":0,"x_max":0,"o":"m 90 726 l 233 789 l 157 835 l 272 1004 b 451 885 338 964 397 925 l 590 946 l 631 854 l 538 813 b 765 354 683 679 765 532 b 399 -17 765 132 629 -17 b 33 306 179 -17 33 117 b 328 625 33 496 164 625 b 550 494 426 625 500 578 b 335 722 519 574 433 651 l 129 631 m 399 172 b 546 306 493 172 546 231 b 399 438 546 379 493 438 b 254 306 306 438 254 379 b 399 172 254 231 306 172 "},"þ":{"ha":818,"x_min":0,"x_max":0,"o":"m 490 -17 b 292 79 415 -17 347 13 l 292 -256 l 78 -256 l 78 926 l 292 926 l 292 593 b 490 688 344 657 414 688 b 785 336 658 688 785 563 b 490 -17 785 108 658 -17 m 419 172 b 567 336 503 172 567 235 b 419 499 567 436 503 499 b 292 438 374 499 318 474 l 292 233 b 419 172 318 199 374 172 "},"":{"ha":846,"x_min":0,"x_max":0,"o":"m 474 842 l 329 842 l 506 1042 l 694 1042 m 558 764 l 861 0 l 614 0 l 575 106 l 271 106 l 233 0 l -15 0 l 289 764 m 424 543 l 333 297 l 513 297 "},"":{"ha":846,"x_min":0,"x_max":0,"o":"m 558 764 l 861 0 l 614 0 l 575 106 l 271 106 l 233 0 l -15 0 l 289 764 m 424 543 l 333 297 l 513 297 m 668 925 b 425 803 613 850 525 803 b 181 925 326 803 238 850 l 272 1000 b 425 919 307 953 358 919 b 576 1000 489 919 542 949 l 668 925 "},"":{"ha":846,"x_min":0,"x_max":0,"o":"m 518 842 l 422 954 l 331 842 l 204 842 l 329 1042 l 517 1042 l 646 842 m 558 764 l 861 0 l 614 0 l 575 106 l 271 106 l 233 0 l -15 0 l 289 764 m 424 543 l 333 297 l 513 297 "},"":{"ha":846,"x_min":0,"x_max":0,"o":"m 682 947 b 572 838 682 885 633 838 b 464 947 513 838 464 885 b 572 1056 464 1007 513 1056 b 682 947 633 1056 682 1007 m 385 947 b 275 838 385 885 336 838 b 167 947 214 838 167 885 b 275 1056 167 1007 214 1056 b 385 947 336 1056 385 1007 m 558 764 l 861 0 l 614 0 l 575 106 l 271 106 l 233 0 l -15 0 l 289 764 m 424 543 l 333 297 l 513 297 "},"":{"ha":846,"x_min":0,"x_max":0,"o":"m 558 764 l 861 0 l 614 0 l 575 106 l 271 106 l 233 0 l -15 0 l 289 764 m 424 543 l 333 297 l 513 297 m 371 842 l 150 1042 l 339 1042 l 515 842 "},"":{"ha":846,"x_min":0,"x_max":0,"o":"m 172 842 l 172 960 l 676 960 l 676 842 m 558 764 l 861 0 l 614 0 l 575 106 l 271 106 l 233 0 l -15 0 l 289 764 m 424 543 l 333 297 l 513 297 "},"":{"ha":846,"x_min":0,"x_max":0,"o":"m 558 764 l 861 0 b 767 -121 793 -35 767 -76 b 813 -174 767 -161 790 -174 b 867 -131 840 -174 857 -156 l 949 -182 b 813 -258 921 -228 876 -258 b 667 -131 736 -258 667 -221 b 725 0 667 -81 686 -36 l 614 0 l 575 106 l 271 106 l 233 0 l -15 0 l 289 764 m 424 543 l 333 297 l 513 297 "},"":{"ha":846,"x_min":0,"x_max":0,"o":"m 425 792 b 274 942 342 792 274 860 b 425 1093 274 1025 342 1093 b 572 942 507 1093 572 1025 b 425 792 572 860 507 792 m 425 886 b 479 942 456 886 479 911 b 425 999 479 974 456 999 b 368 942 393 999 368 974 b 425 886 368 911 393 886 m 558 764 l 861 0 l 614 0 l 575 106 l 271 106 l 233 0 l -15 0 l 289 764 m 424 543 l 333 297 l 513 297 "},"":{"ha":846,"x_min":0,"x_max":0,"o":"m 558 764 l 861 0 l 614 0 l 575 106 l 271 106 l 233 0 l -15 0 l 289 764 m 424 543 l 333 297 l 513 297 m 499 839 b 342 915 408 839 386 915 b 300 847 319 915 300 894 l 192 847 b 349 1033 192 971 246 1033 b 506 957 438 1033 461 957 b 547 1025 528 957 547 978 l 656 1025 b 499 839 656 903 601 839 "},"":{"ha":1190,"x_min":0,"x_max":0,"o":"m 539 0 l 539 106 l 293 106 l 232 0 l -17 0 l 453 764 l 1139 764 l 1139 578 l 760 578 l 760 481 l 1129 481 l 1129 294 l 760 294 l 760 186 l 1139 186 l 1139 0 m 539 543 l 396 297 l 539 297 "},"":{"ha":1190,"x_min":0,"x_max":0,"o":"m 701 842 l 557 842 l 733 1042 l 922 1042 m 539 0 l 539 106 l 293 106 l 232 0 l -17 0 l 453 764 l 1139 764 l 1139 578 l 760 578 l 760 481 l 1129 481 l 1129 294 l 760 294 l 760 186 l 1139 186 l 1139 0 m 539 543 l 396 297 l 539 297 "},"":{"ha":815,"x_min":0,"x_max":0,"o":"m 507 842 l 363 842 l 539 1042 l 728 1042 m 454 -17 b 33 382 211 -17 33 147 b 454 781 33 618 211 781 b 797 567 632 781 744 679 l 613 481 b 454 586 586 540 526 586 b 257 382 339 586 257 499 b 454 178 257 267 339 178 b 613 282 526 178 586 222 l 797 197 b 454 -17 746 86 632 -17 "},"":{"ha":815,"x_min":0,"x_max":0,"o":"m 365 842 l 236 1042 l 363 1042 l 458 929 l 550 1042 l 678 1042 l 553 842 m 454 -17 b 33 382 211 -17 33 147 b 454 781 33 618 211 781 b 797 567 632 781 744 679 l 613 481 b 454 586 586 540 526 586 b 257 382 339 586 257 499 b 454 178 257 267 339 178 b 613 282 526 178 586 222 l 797 197 b 454 -17 746 86 632 -17 "},"":{"ha":815,"x_min":0,"x_max":0,"o":"m 450 -275 b 292 -229 381 -275 321 -253 l 331 -149 b 444 -190 367 -175 407 -190 b 510 -151 478 -190 510 -178 b 475 -121 510 -132 497 -121 b 435 -139 458 -121 444 -129 l 361 -97 l 393 -12 b 33 382 182 11 33 167 b 454 781 33 618 211 781 b 797 567 632 781 744 679 l 613 481 b 454 586 586 540 526 586 b 257 382 339 586 257 499 b 454 178 257 267 339 178 b 613 282 526 178 586 222 l 797 197 b 490 -15 749 93 647 -1 l 468 -68 b 515 -54 482 -60 497 -54 b 610 -154 567 -54 610 -96 b 450 -275 610 -231 538 -275 "},"":{"ha":815,"x_min":0,"x_max":0,"o":"m 550 842 l 454 954 l 363 842 l 236 842 l 361 1042 l 549 1042 l 678 842 m 454 -17 b 33 382 211 -17 33 147 b 454 781 33 618 211 781 b 797 567 632 781 744 679 l 613 481 b 454 586 586 540 526 586 b 257 382 339 586 257 499 b 454 178 257 267 339 178 b 613 282 526 178 586 222 l 797 197 b 454 -17 746 86 632 -17 "},"":{"ha":815,"x_min":0,"x_max":0,"o":"m 454 -17 b 33 382 211 -17 33 147 b 454 781 33 618 211 781 b 797 567 632 781 744 679 l 613 481 b 454 586 586 540 526 586 b 257 382 339 586 257 499 b 454 178 257 267 339 178 b 613 282 526 178 586 222 l 797 197 b 454 -17 746 86 632 -17 m 456 814 b 347 924 396 814 347 863 b 456 1032 347 983 396 1032 b 564 924 515 1032 564 983 b 456 814 564 863 515 814 "},"":{"ha":876,"x_min":0,"x_max":0,"o":"m 343 842 l 214 1042 l 340 1042 l 436 929 l 528 1042 l 656 1042 l 531 842 m 72 0 l 72 764 l 415 764 b 838 382 671 764 838 619 b 417 0 838 146 671 0 m 415 192 b 614 382 549 192 614 281 b 417 572 614 488 558 572 l 294 572 l 294 192 l 415 192 "},"":{"ha":883,"x_min":0,"x_max":0,"o":"m 78 0 l 78 308 l 11 308 l 11 456 l 78 456 l 78 764 l 421 764 b 843 382 676 764 843 619 b 422 0 843 146 676 0 m 300 308 l 300 192 l 421 192 b 619 382 554 192 619 281 b 422 572 619 488 564 572 l 300 572 l 300 456 l 444 456 l 444 308 "},"":{"ha":729,"x_min":0,"x_max":0,"o":"m 431 842 l 286 842 l 463 1042 l 651 1042 m 78 0 l 78 764 l 678 764 l 678 578 l 300 578 l 300 481 l 669 481 l 669 294 l 300 294 l 300 186 l 678 186 l 678 0 "},"":{"ha":729,"x_min":0,"x_max":0,"o":"m 78 0 l 78 764 l 678 764 l 678 578 l 300 578 l 300 481 l 669 481 l 669 294 l 300 294 l 300 186 l 678 186 l 678 0 m 624 925 b 381 803 568 850 481 803 b 136 925 282 803 193 850 l 228 1000 b 381 919 263 953 314 919 b 532 1000 444 919 497 949 l 624 925 "},"":{"ha":729,"x_min":0,"x_max":0,"o":"m 288 842 l 158 1042 l 285 1042 l 381 929 l 472 1042 l 600 1042 l 475 842 m 78 0 l 78 764 l 678 764 l 678 578 l 300 578 l 300 481 l 669 481 l 669 294 l 300 294 l 300 186 l 678 186 l 678 0 "},"":{"ha":729,"x_min":0,"x_max":0,"o":"m 474 842 l 378 954 l 286 842 l 160 842 l 285 1042 l 472 1042 l 601 842 m 78 0 l 78 764 l 678 764 l 678 578 l 300 578 l 300 481 l 669 481 l 669 294 l 300 294 l 300 186 l 678 186 l 678 0 "},"":{"ha":729,"x_min":0,"x_max":0,"o":"m 638 924 b 528 814 638 861 589 814 b 419 924 468 814 419 861 b 528 1032 419 983 468 1032 b 638 924 589 1032 638 983 m 340 924 b 231 814 340 861 292 814 b 122 924 169 814 122 861 b 231 1032 122 983 169 1032 b 340 924 292 1032 340 983 m 78 0 l 78 764 l 678 764 l 678 578 l 300 578 l 300 481 l 669 481 l 669 294 l 300 294 l 300 186 l 678 186 l 678 0 "},"":{"ha":729,"x_min":0,"x_max":0,"o":"m 78 0 l 78 764 l 678 764 l 678 578 l 300 578 l 300 481 l 669 481 l 669 294 l 300 294 l 300 186 l 678 186 l 678 0 m 383 814 b 275 924 324 814 275 863 b 383 1032 275 983 324 1032 b 492 924 443 1032 492 983 b 383 814 492 863 443 814 "},"":{"ha":729,"x_min":0,"x_max":0,"o":"m 78 0 l 78 764 l 678 764 l 678 578 l 300 578 l 300 481 l 669 481 l 669 294 l 300 294 l 300 186 l 678 186 l 678 0 m 322 842 l 101 1042 l 290 1042 l 467 842 "},"":{"ha":729,"x_min":0,"x_max":0,"o":"m 78 0 l 78 764 l 678 764 l 678 578 l 300 578 l 300 481 l 669 481 l 669 294 l 300 294 l 300 186 l 678 186 l 678 0 m 128 842 l 128 960 l 632 960 l 632 842 "},"":{"ha":729,"x_min":0,"x_max":0,"o":"m 765 -182 b 629 -258 738 -228 693 -258 b 483 -131 553 -258 483 -221 b 542 0 483 -81 503 -36 l 78 0 l 78 764 l 678 764 l 678 578 l 300 578 l 300 481 l 669 481 l 669 294 l 300 294 l 300 186 l 678 186 l 678 0 b 583 -121 610 -35 583 -76 b 629 -174 583 -161 607 -174 b 683 -131 657 -174 674 -156 "},"":{"ha":849,"x_min":0,"x_max":0,"o":"m 458 -17 b 33 382 219 -17 33 140 b 458 781 33 626 219 781 b 782 606 615 781 728 694 l 601 504 b 458 585 574 550 524 585 b 258 382 339 585 258 499 b 458 176 258 267 339 176 b 581 218 514 176 556 197 l 581 272 l 426 272 l 426 446 l 801 446 l 801 135 b 458 -17 715 43 599 -17 m 704 925 b 461 803 649 850 561 803 b 217 925 363 803 274 850 l 308 1000 b 461 919 343 953 394 919 b 613 1000 525 919 578 949 l 704 925 "},"":{"ha":849,"x_min":0,"x_max":0,"o":"m 458 -17 b 33 382 219 -17 33 140 b 458 781 33 626 219 781 b 782 606 615 781 728 694 l 601 504 b 458 585 574 550 524 585 b 258 382 339 585 258 499 b 458 176 258 267 339 176 b 581 218 514 176 556 197 l 581 272 l 426 272 l 426 446 l 801 446 l 801 135 b 458 -17 715 43 599 -17 m 553 842 l 457 954 l 365 842 l 239 842 l 364 1042 l 551 1042 l 681 842 "},"":{"ha":849,"x_min":0,"x_max":0,"o":"m 458 -17 b 33 382 219 -17 33 140 b 458 781 33 626 219 781 b 782 606 615 781 728 694 l 601 504 b 458 585 574 550 524 585 b 258 382 339 585 258 499 b 458 176 258 267 339 176 b 581 218 514 176 556 197 l 581 272 l 426 272 l 426 446 l 801 446 l 801 135 b 458 -17 715 43 599 -17 m 565 -193 b 443 -411 565 -281 517 -358 l 375 -357 b 465 -250 410 -337 454 -290 b 442 -254 461 -253 451 -254 b 360 -167 396 -254 360 -219 b 457 -68 360 -112 404 -68 b 565 -193 514 -68 565 -114 "},"":{"ha":849,"x_min":0,"x_max":0,"o":"m 458 -17 b 33 382 219 -17 33 140 b 458 781 33 626 219 781 b 782 606 615 781 728 694 l 601 504 b 458 585 574 550 524 585 b 258 382 339 585 258 499 b 458 176 258 267 339 176 b 581 218 514 176 556 197 l 581 272 l 426 272 l 426 446 l 801 446 l 801 135 b 458 -17 715 43 599 -17 m 454 814 b 346 924 394 814 346 863 b 454 1032 346 983 394 1032 b 563 924 514 1032 563 983 b 454 814 563 863 514 814 "},"":{"ha":933,"x_min":0,"x_max":0,"o":"m 626 0 l 626 294 l 311 294 l 311 0 l 89 0 l 89 571 l 11 571 l 11 689 l 89 689 l 89 764 l 311 764 l 311 689 l 626 689 l 626 764 l 847 764 l 847 689 l 924 689 l 924 571 l 847 571 l 847 0 m 626 486 l 626 571 l 311 571 l 311 486 "},"":{"ha":914,"x_min":0,"x_max":0,"o":"m 550 842 l 454 954 l 363 842 l 236 842 l 361 1042 l 549 1042 l 678 842 m 615 0 l 615 294 l 300 294 l 300 0 l 78 0 l 78 764 l 300 764 l 300 486 l 615 486 l 615 764 l 836 764 l 836 0 "},"":{"ha":378,"x_min":0,"x_max":0,"o":"m 240 842 l 96 842 l 272 1042 l 461 1042 m 78 0 l 78 764 l 300 764 l 300 0 "},"":{"ha":378,"x_min":0,"x_max":0,"o":"m 78 0 l 78 764 l 300 764 l 300 0 m 435 925 b 192 803 379 850 292 803 b -53 925 93 803 4 850 l 39 1000 b 192 919 74 953 125 919 b 343 1000 256 919 308 949 l 435 925 "},"":{"ha":378,"x_min":0,"x_max":0,"o":"m 78 0 l 78 764 l 300 764 l 300 0 m 135 842 l -86 1042 l 103 1042 l 279 842 "},"":{"ha":378,"x_min":0,"x_max":0,"o":"m 281 842 l 185 954 l 93 842 l -33 842 l 92 1042 l 279 1042 l 408 842 m 78 0 l 78 764 l 300 764 l 300 0 "},"":{"ha":378,"x_min":0,"x_max":0,"o":"m 446 924 b 336 814 446 861 397 814 b 228 924 276 814 228 861 b 336 1032 228 983 276 1032 b 446 924 397 1032 446 983 m 149 924 b 39 814 149 861 100 814 b -69 924 -22 814 -69 861 b 39 1032 -69 983 -22 1032 b 149 924 100 1032 149 983 m 78 0 l 78 764 l 300 764 l 300 0 "},"":{"ha":378,"x_min":0,"x_max":0,"o":"m 78 0 l 78 764 l 300 764 l 300 0 m 189 814 b 81 924 129 814 81 863 b 189 1032 81 983 129 1032 b 297 924 249 1032 297 983 b 189 814 297 863 249 814 "},"":{"ha":378,"x_min":0,"x_max":0,"o":"m -61 842 l -61 960 l 443 960 l 443 842 m 78 0 l 78 764 l 300 764 l 300 0 "},"":{"ha":378,"x_min":0,"x_max":0,"o":"m 300 0 b 206 -121 232 -35 206 -76 b 251 -174 206 -161 229 -174 b 306 -131 279 -174 296 -156 l 388 -182 b 251 -258 360 -228 315 -258 b 106 -131 175 -258 106 -221 b 164 0 106 -81 125 -36 l 78 0 l 78 764 l 300 764 l 300 0 "},"":{"ha":378,"x_min":0,"x_max":0,"o":"m 78 0 l 78 764 l 300 764 l 300 0 m 267 839 b 110 915 176 839 154 915 b 68 847 88 915 68 894 l -40 847 b 117 1033 -40 971 14 1033 b 274 957 206 1033 229 957 b 315 1025 296 957 315 978 l 424 1025 b 267 839 424 903 369 839 "},"":{"ha":988,"x_min":0,"x_max":0,"o":"m 596 -17 b 381 60 518 -17 439 7 l 464 228 b 578 178 493 199 533 178 b 686 281 644 178 686 217 l 686 764 l 908 764 l 908 260 b 596 -17 908 68 786 -17 m 78 0 l 78 764 l 300 764 l 300 0 "},"":{"ha":608,"x_min":0,"x_max":0,"o":"m 513 842 l 417 954 l 325 842 l 199 842 l 324 1042 l 511 1042 l 640 842 m 218 -17 b 3 60 140 -17 61 7 l 86 228 b 200 178 115 199 156 178 b 308 281 267 178 308 217 l 308 764 l 531 764 l 531 260 b 218 -17 531 68 408 -17 "},"":{"ha":808,"x_min":0,"x_max":0,"o":"m 514 -193 b 392 -411 514 -281 465 -358 l 324 -357 b 414 -250 358 -337 403 -290 b 390 -254 410 -253 400 -254 b 308 -167 344 -254 308 -219 b 406 -68 308 -112 353 -68 b 514 -193 463 -68 514 -114 m 550 0 l 344 278 l 300 225 l 300 0 l 78 0 l 78 764 l 300 764 l 300 471 l 532 764 l 799 764 l 489 407 l 817 0 "},"":{"ha":658,"x_min":0,"x_max":0,"o":"m 78 0 l 78 764 l 300 764 l 300 192 l 619 192 l 619 0 m 400 842 l 256 842 l 432 1042 l 621 1042 "},"":{"ha":658,"x_min":0,"x_max":0,"o":"m 579 651 b 457 433 579 564 531 486 l 389 488 b 479 594 424 507 468 554 b 456 590 475 592 465 590 b 374 678 410 590 374 625 b 471 776 374 732 418 776 b 579 651 528 776 579 731 m 78 0 l 78 764 l 300 764 l 300 192 l 619 192 l 619 0 "},"":{"ha":658,"x_min":0,"x_max":0,"o":"m 456 -193 b 333 -411 456 -281 407 -358 l 265 -357 b 356 -250 300 -337 344 -290 b 332 -254 351 -253 342 -254 b 250 -167 286 -254 250 -219 b 347 -68 250 -112 294 -68 b 456 -193 404 -68 456 -114 m 78 0 l 78 764 l 300 764 l 300 192 l 619 192 l 619 0 "},"":{"ha":711,"x_min":0,"x_max":0,"o":"m 78 0 l 78 764 l 300 764 l 300 192 l 619 192 l 619 0 m 681 429 b 550 300 681 360 621 300 b 421 429 479 300 421 360 b 550 560 421 500 479 560 b 681 429 621 560 681 500 "},"":{"ha":665,"x_min":0,"x_max":0,"o":"m 11 364 l 85 407 l 85 764 l 307 764 l 307 535 l 408 594 l 408 401 l 307 343 l 307 192 l 626 192 l 626 0 l 85 0 l 85 214 l 11 172 "},"":{"ha":913,"x_min":0,"x_max":0,"o":"m 508 842 l 364 842 l 540 1042 l 729 1042 m 607 0 l 299 421 l 299 0 l 78 0 l 78 764 l 318 764 l 613 363 l 613 764 l 833 764 l 833 0 "},"":{"ha":913,"x_min":0,"x_max":0,"o":"m 363 842 l 233 1042 l 360 1042 l 456 929 l 547 1042 l 675 1042 l 550 842 m 607 0 l 299 421 l 299 0 l 78 0 l 78 764 l 318 764 l 613 363 l 613 764 l 833 764 l 833 0 "},"":{"ha":913,"x_min":0,"x_max":0,"o":"m 567 -193 b 444 -411 567 -281 518 -358 l 376 -357 b 467 -250 411 -337 456 -290 b 443 -254 463 -253 453 -254 b 361 -167 397 -254 361 -219 b 458 -68 361 -112 406 -68 b 567 -193 515 -68 567 -114 m 607 0 l 299 421 l 299 0 l 78 0 l 78 764 l 318 764 l 613 363 l 613 764 l 833 764 l 833 0 "},"":{"ha":913,"x_min":0,"x_max":0,"o":"m 607 0 l 299 421 l 299 0 l 78 0 l 78 764 l 318 764 l 613 363 l 613 764 l 833 764 l 833 0 m 532 839 b 375 915 442 839 419 915 b 333 847 353 915 333 894 l 225 847 b 382 1033 225 971 279 1033 b 539 957 471 1033 494 957 b 581 1025 561 957 581 978 l 689 1025 b 532 839 689 903 635 839 "},"":{"ha":913,"x_min":0,"x_max":0,"o":"m 522 -272 b 306 -196 443 -272 364 -249 l 390 -28 b 503 -78 418 -57 458 -78 b 608 -3 558 -78 597 -49 l 299 421 l 299 0 l 78 0 l 78 764 l 318 764 l 613 363 l 613 764 l 833 764 l 833 0 b 522 -272 831 -189 710 -272 "},"":{"ha":904,"x_min":0,"x_max":0,"o":"m 451 -17 b 33 382 207 -17 33 150 b 451 781 33 614 207 781 b 869 382 696 781 869 614 b 451 -17 869 150 696 -17 m 451 178 b 644 382 569 178 644 267 b 451 586 644 497 569 586 b 257 382 333 586 257 497 b 451 178 257 267 333 178 m 503 842 l 358 842 l 535 1042 l 724 1042 "},"":{"ha":904,"x_min":0,"x_max":0,"o":"m 451 -17 b 33 382 207 -17 33 150 b 451 781 33 614 207 781 b 869 382 696 781 869 614 b 451 -17 869 150 696 -17 m 451 178 b 644 382 569 178 644 267 b 451 586 644 497 569 586 b 257 382 333 586 257 497 b 451 178 257 267 333 178 m 697 925 b 454 803 642 850 554 803 b 210 925 356 803 267 850 l 301 1000 b 454 919 336 953 388 919 b 606 1000 518 919 571 949 l 697 925 "},"":{"ha":904,"x_min":0,"x_max":0,"o":"m 451 -17 b 33 382 207 -17 33 150 b 451 781 33 614 207 781 b 869 382 696 781 869 614 b 451 -17 869 150 696 -17 m 451 178 b 644 382 569 178 644 267 b 451 586 644 497 569 586 b 257 382 333 586 257 497 b 451 178 257 267 333 178 m 547 842 l 451 954 l 360 842 l 233 842 l 358 1042 l 546 1042 l 675 842 "},"":{"ha":904,"x_min":0,"x_max":0,"o":"m 451 -17 b 33 382 207 -17 33 150 b 451 781 33 614 207 781 b 869 382 696 781 869 614 b 451 -17 869 150 696 -17 m 451 178 b 644 382 569 178 644 267 b 451 586 644 497 569 586 b 257 382 333 586 257 497 b 451 178 257 267 333 178 m 713 924 b 603 814 713 861 664 814 b 494 924 543 814 494 861 b 603 1032 494 983 543 1032 b 713 924 664 1032 713 983 m 415 924 b 306 814 415 861 367 814 b 197 924 244 814 197 861 b 306 1032 197 983 244 1032 b 415 924 367 1032 415 983 "},"":{"ha":904,"x_min":0,"x_max":0,"o":"m 451 -17 b 33 382 207 -17 33 150 b 451 781 33 614 207 781 b 869 382 696 781 869 614 b 451 -17 869 150 696 -17 m 451 178 b 644 382 569 178 644 267 b 451 586 644 497 569 586 b 257 382 333 586 257 497 b 451 178 257 267 333 178 m 399 842 l 178 1042 l 367 1042 l 543 842 "},"":{"ha":904,"x_min":0,"x_max":0,"o":"m 451 -17 b 33 382 207 -17 33 150 b 451 781 33 614 207 781 b 869 382 696 781 869 614 b 451 -17 869 150 696 -17 m 451 178 b 644 382 569 178 644 267 b 451 586 644 497 569 586 b 257 382 333 586 257 497 b 451 178 257 267 333 178 m 396 842 l 275 842 l 392 1042 l 556 1042 m 608 842 l 488 842 l 603 1042 l 768 1042 "},"":{"ha":904,"x_min":0,"x_max":0,"o":"m 451 -17 b 33 382 207 -17 33 150 b 451 781 33 614 207 781 b 869 382 696 781 869 614 b 451 -17 869 150 696 -17 m 451 178 b 644 382 569 178 644 267 b 451 586 644 497 569 586 b 257 382 333 586 257 497 b 451 178 257 267 333 178 m 201 842 l 201 960 l 706 960 l 706 842 "},"":{"ha":904,"x_min":0,"x_max":0,"o":"m 451 -17 b 33 382 207 -17 33 150 b 451 781 33 614 207 781 b 869 382 696 781 869 614 b 451 -17 869 150 696 -17 m 451 178 b 644 382 569 178 644 267 b 451 586 644 497 569 586 b 257 382 333 586 257 497 b 451 178 257 267 333 178 m 531 839 b 374 915 440 839 418 915 b 332 847 351 915 332 894 l 224 847 b 381 1033 224 971 278 1033 b 538 957 469 1033 493 957 b 579 1025 560 957 579 978 l 688 1025 b 531 839 688 903 633 839 "},"":{"ha":904,"x_min":0,"x_max":0,"o":"m 451 -17 b 247 28 375 -17 306 0 l 224 0 l 57 0 l 142 104 b 33 382 72 174 33 271 b 451 781 33 614 207 781 b 653 736 526 781 594 764 l 676 764 l 843 764 l 760 661 b 869 382 829 590 869 493 b 451 -17 869 150 696 -17 m 451 178 b 644 382 569 178 644 267 b 619 488 644 421 635 457 l 378 190 b 451 178 400 182 425 178 m 257 382 b 281 276 257 343 265 307 l 522 574 b 451 586 500 582 476 586 b 257 382 333 586 257 497 "},"":{"ha":904,"x_min":0,"x_max":0,"o":"m 451 -17 b 247 28 375 -17 306 0 l 224 0 l 57 0 l 142 104 b 33 382 72 174 33 271 b 451 781 33 614 207 781 b 653 736 526 781 594 764 l 676 764 l 843 764 l 760 661 b 869 382 829 590 869 493 b 451 -17 869 150 696 -17 m 451 178 b 644 382 569 178 644 267 b 619 488 644 421 635 457 l 378 190 b 451 178 400 182 425 178 m 257 382 b 281 276 257 343 265 307 l 522 574 b 451 586 500 582 476 586 b 257 382 333 586 257 497 m 503 842 l 358 842 l 535 1042 l 724 1042 "},"":{"ha":1274,"x_min":0,"x_max":0,"o":"m 622 0 l 622 72 b 408 -17 568 11 493 -17 b 33 382 189 -17 33 149 b 408 781 33 615 189 781 b 622 692 490 781 568 753 l 622 764 l 1222 764 l 1222 572 l 844 572 l 844 483 l 1214 483 l 1214 292 l 844 292 l 844 192 l 1222 192 l 1222 0 m 622 485 b 454 586 590 553 528 586 b 257 382 333 586 257 497 b 454 178 257 267 333 178 b 622 281 529 178 590 213 "},"":{"ha":817,"x_min":0,"x_max":0,"o":"m 476 842 l 332 842 l 508 1042 l 697 1042 m 525 0 l 397 244 l 300 244 l 300 0 l 78 0 l 78 764 l 493 764 b 771 504 668 764 771 646 b 610 268 771 363 682 290 l 775 0 m 467 436 b 546 504 515 436 546 465 b 467 572 546 544 515 572 l 300 572 l 300 436 l 467 436 "},"":{"ha":817,"x_min":0,"x_max":0,"o":"m 306 842 l 176 1042 l 303 1042 l 399 929 l 490 1042 l 618 1042 l 493 842 m 525 0 l 397 244 l 300 244 l 300 0 l 78 0 l 78 764 l 493 764 b 771 504 668 764 771 646 b 610 268 771 363 682 290 l 775 0 m 467 436 b 546 504 515 436 546 465 b 467 572 546 544 515 572 l 300 572 l 300 436 l 467 436 "},"":{"ha":817,"x_min":0,"x_max":0,"o":"m 506 -193 b 383 -411 506 -281 457 -358 l 315 -357 b 406 -250 350 -337 394 -290 b 382 -254 401 -253 392 -254 b 300 -167 336 -254 300 -219 b 397 -68 300 -112 344 -68 b 506 -193 454 -68 506 -114 m 525 0 l 397 244 l 300 244 l 300 0 l 78 0 l 78 764 l 493 764 b 771 504 668 764 771 646 b 610 268 771 363 682 290 l 775 0 m 467 436 b 546 504 515 436 546 465 b 467 572 546 544 515 572 l 300 572 l 300 436 l 467 436 "},"":{"ha":725,"x_min":0,"x_max":0,"o":"m 413 842 l 268 842 l 444 1042 l 633 1042 m 358 -17 b 14 96 207 -17 85 33 l 111 260 b 367 164 165 208 267 164 b 478 225 440 164 478 189 b 40 533 478 321 40 239 b 361 781 40 663 161 781 b 688 671 496 781 606 740 l 586 519 b 360 600 528 569 431 600 b 265 544 297 600 265 575 b 701 239 265 456 701 532 b 358 -17 701 81 576 -17 "},"":{"ha":725,"x_min":0,"x_max":0,"o":"m 276 842 l 147 1042 l 274 1042 l 369 929 l 461 1042 l 589 1042 l 464 842 m 358 -17 b 14 96 207 -17 85 33 l 111 260 b 367 164 165 208 267 164 b 478 225 440 164 478 189 b 40 533 478 321 40 239 b 361 781 40 663 161 781 b 688 671 496 781 606 740 l 586 519 b 360 600 528 569 431 600 b 265 544 297 600 265 575 b 701 239 265 456 701 532 b 358 -17 701 81 576 -17 "},"":{"ha":725,"x_min":0,"x_max":0,"o":"m 461 842 l 365 954 l 274 842 l 147 842 l 272 1042 l 460 1042 l 589 842 m 358 -17 b 14 96 207 -17 85 33 l 111 260 b 367 164 165 208 267 164 b 478 225 440 164 478 189 b 40 533 478 321 40 239 b 361 781 40 663 161 781 b 688 671 496 781 606 740 l 586 519 b 360 600 528 569 431 600 b 265 544 297 600 265 575 b 701 239 265 456 701 532 b 358 -17 701 81 576 -17 "},"":{"ha":725,"x_min":0,"x_max":0,"o":"m 356 -275 b 197 -229 286 -275 226 -253 l 236 -149 b 350 -190 272 -175 313 -190 b 415 -151 383 -190 415 -178 b 381 -121 415 -132 403 -121 b 340 -139 364 -121 350 -129 l 267 -97 l 299 -14 b 14 96 175 -3 75 42 l 111 260 b 367 164 165 208 267 164 b 478 225 440 164 478 189 b 40 533 478 321 40 239 b 361 781 40 663 161 781 b 688 671 496 781 606 740 l 586 519 b 360 600 528 569 431 600 b 265 544 297 600 265 575 b 701 239 265 456 701 532 b 394 -15 701 89 590 -6 l 374 -68 b 421 -54 388 -60 403 -54 b 515 -154 472 -54 515 -96 b 356 -275 515 -231 443 -275 "},"":{"ha":725,"x_min":0,"x_max":0,"o":"m 472 -193 b 350 -411 472 -281 424 -358 l 282 -357 b 372 -250 317 -337 361 -290 b 349 -254 368 -253 358 -254 b 267 -167 303 -254 267 -219 b 364 -68 267 -112 311 -68 b 472 -193 421 -68 472 -114 m 358 -17 b 14 96 207 -17 85 33 l 111 260 b 367 164 165 208 267 164 b 478 225 440 164 478 189 b 40 533 478 321 40 239 b 361 781 40 663 161 781 b 688 671 496 781 606 740 l 586 519 b 360 600 528 569 431 600 b 265 544 297 600 265 575 b 701 239 265 456 701 532 b 358 -17 701 81 576 -17 "},"":{"ha":686,"x_min":0,"x_max":0,"o":"m 232 0 l 232 261 l 100 261 l 100 379 l 232 379 l 232 572 l 25 572 l 25 764 l 661 764 l 661 572 l 454 572 l 454 379 l 586 379 l 586 261 l 454 261 l 454 0 "},"":{"ha":686,"x_min":0,"x_max":0,"o":"m 253 842 l 124 1042 l 250 1042 l 346 929 l 438 1042 l 565 1042 l 440 842 m 232 0 l 232 572 l 25 572 l 25 764 l 661 764 l 661 572 l 454 572 l 454 0 "},"":{"ha":686,"x_min":0,"x_max":0,"o":"m 450 -193 b 328 -411 450 -281 401 -358 l 260 -357 b 350 -250 294 -337 339 -290 b 326 -254 346 -253 336 -254 b 244 -167 281 -254 244 -219 b 342 -68 244 -112 289 -68 b 450 -193 399 -68 450 -114 m 232 0 l 232 572 l 25 572 l 25 764 l 661 764 l 661 572 l 454 572 l 454 0 "},"":{"ha":913,"x_min":0,"x_max":0,"o":"m 510 842 l 365 842 l 542 1042 l 731 1042 m 457 -17 b 78 307 200 -17 78 118 l 78 764 l 301 764 l 301 328 b 457 178 301 240 357 178 b 611 328 556 178 611 240 l 611 764 l 835 764 l 835 308 b 457 -17 835 118 714 -17 "},"":{"ha":913,"x_min":0,"x_max":0,"o":"m 457 -17 b 78 307 200 -17 78 118 l 78 764 l 301 764 l 301 328 b 457 178 301 240 357 178 b 611 328 556 178 611 240 l 611 764 l 835 764 l 835 308 b 457 -17 835 118 714 -17 m 701 925 b 458 803 646 850 558 803 b 214 925 360 803 271 850 l 306 1000 b 458 919 340 953 392 919 b 610 1000 522 919 575 949 l 701 925 "},"":{"ha":913,"x_min":0,"x_max":0,"o":"m 551 842 l 456 954 l 364 842 l 238 842 l 363 1042 l 550 1042 l 679 842 m 457 -17 b 78 307 200 -17 78 118 l 78 764 l 301 764 l 301 328 b 457 178 301 240 357 178 b 611 328 556 178 611 240 l 611 764 l 835 764 l 835 308 b 457 -17 835 118 714 -17 "},"":{"ha":913,"x_min":0,"x_max":0,"o":"m 717 924 b 607 814 717 861 668 814 b 499 924 547 814 499 861 b 607 1032 499 983 547 1032 b 717 924 668 1032 717 983 m 419 924 b 310 814 419 861 371 814 b 201 924 249 814 201 861 b 310 1032 201 983 249 1032 b 419 924 371 1032 419 983 m 457 -17 b 78 307 200 -17 78 118 l 78 764 l 301 764 l 301 328 b 457 178 301 240 357 178 b 611 328 556 178 611 240 l 611 764 l 835 764 l 835 308 b 457 -17 835 118 714 -17 "},"":{"ha":913,"x_min":0,"x_max":0,"o":"m 457 -17 b 78 307 200 -17 78 118 l 78 764 l 301 764 l 301 328 b 457 178 301 240 357 178 b 611 328 556 178 611 240 l 611 764 l 835 764 l 835 308 b 457 -17 835 118 714 -17 m 404 842 l 183 1042 l 372 1042 l 549 842 "},"":{"ha":913,"x_min":0,"x_max":0,"o":"m 457 -17 b 78 307 200 -17 78 118 l 78 764 l 301 764 l 301 328 b 457 178 301 240 357 178 b 611 328 556 178 611 240 l 611 764 l 835 764 l 835 308 b 457 -17 835 118 714 -17 m 399 842 l 278 842 l 394 1042 l 558 1042 m 611 842 l 490 842 l 606 1042 l 771 1042 "},"":{"ha":913,"x_min":0,"x_max":0,"o":"m 457 -17 b 78 307 200 -17 78 118 l 78 764 l 301 764 l 301 328 b 457 178 301 240 357 178 b 611 328 556 178 611 240 l 611 764 l 835 764 l 835 308 b 457 -17 835 118 714 -17 m 204 842 l 204 960 l 708 960 l 708 842 "},"":{"ha":913,"x_min":0,"x_max":0,"o":"m 686 -182 b 550 -258 658 -228 614 -258 b 404 -131 474 -258 404 -221 b 447 -17 404 -87 419 -50 b 78 307 197 -12 78 121 l 78 764 l 301 764 l 301 328 b 457 178 301 240 357 178 b 611 328 556 178 611 240 l 611 764 l 835 764 l 835 308 b 597 0 835 157 758 40 b 504 -121 531 -35 504 -76 b 550 -174 504 -161 528 -174 b 604 -131 578 -174 594 -156 "},"":{"ha":913,"x_min":0,"x_max":0,"o":"m 457 -17 b 78 307 200 -17 78 118 l 78 764 l 301 764 l 301 328 b 457 178 301 240 357 178 b 611 328 556 178 611 240 l 611 764 l 835 764 l 835 308 b 457 -17 835 118 714 -17 m 460 792 b 308 942 376 792 308 860 b 460 1093 308 1025 376 1093 b 607 942 542 1093 607 1025 b 460 792 607 860 542 792 m 460 886 b 514 942 490 886 514 911 b 460 999 514 974 490 999 b 403 942 428 999 403 974 b 460 886 403 911 428 886 "},"":{"ha":913,"x_min":0,"x_max":0,"o":"m 457 -17 b 78 307 200 -17 78 118 l 78 764 l 301 764 l 301 328 b 457 178 301 240 357 178 b 611 328 556 178 611 240 l 611 764 l 835 764 l 835 308 b 457 -17 835 118 714 -17 m 533 839 b 376 915 443 839 421 915 b 335 847 354 915 335 894 l 226 847 b 383 1033 226 971 281 1033 b 540 957 472 1033 496 957 b 582 1025 563 957 582 978 l 690 1025 b 533 839 690 903 636 839 "},"":{"ha":1131,"x_min":0,"x_max":0,"o":"m 660 842 l 564 954 l 472 842 l 346 842 l 471 1042 l 658 1042 l 788 842 m 679 0 l 565 446 l 451 0 l 221 0 l -8 764 l 239 764 l 351 288 l 481 764 l 650 764 l 779 286 l 893 764 l 1140 764 l 910 0 "},"":{"ha":797,"x_min":0,"x_max":0,"o":"m 453 842 l 308 842 l 485 1042 l 674 1042 m 290 0 l 290 310 l -15 764 l 233 764 l 400 494 l 565 764 l 813 764 l 510 310 l 510 0 "},"":{"ha":797,"x_min":0,"x_max":0,"o":"m 494 842 l 399 954 l 307 842 l 181 842 l 306 1042 l 493 1042 l 622 842 m 290 0 l 290 310 l -15 764 l 233 764 l 400 494 l 565 764 l 813 764 l 510 310 l 510 0 "},"":{"ha":797,"x_min":0,"x_max":0,"o":"m 658 924 b 549 814 658 861 610 814 b 440 924 489 814 440 861 b 549 1032 440 983 489 1032 b 658 924 610 1032 658 983 m 361 924 b 251 814 361 861 313 814 b 143 924 190 814 143 861 b 251 1032 143 983 190 1032 b 361 924 313 1032 361 983 m 290 0 l 290 310 l -15 764 l 233 764 l 400 494 l 565 764 l 813 764 l 510 310 l 510 0 "},"":{"ha":732,"x_min":0,"x_max":0,"o":"m 418 842 l 274 842 l 450 1042 l 639 1042 m 47 0 l 47 158 l 368 569 l 47 569 l 47 764 l 676 764 l 676 606 l 356 194 l 685 194 l 685 0 "},"":{"ha":732,"x_min":0,"x_max":0,"o":"m 272 842 l 143 1042 l 269 1042 l 365 929 l 457 1042 l 585 1042 l 460 842 m 47 0 l 47 158 l 368 569 l 47 569 l 47 764 l 676 764 l 676 606 l 356 194 l 685 194 l 685 0 "},"":{"ha":732,"x_min":0,"x_max":0,"o":"m 47 0 l 47 158 l 368 569 l 47 569 l 47 764 l 676 764 l 676 606 l 356 194 l 685 194 l 685 0 m 378 814 b 269 924 318 814 269 863 b 378 1032 269 983 318 1032 b 486 924 438 1032 486 983 b 378 814 486 863 438 814 "},"":{"ha":888,"x_min":0,"x_max":0,"o":"m 78 0 l 78 308 l 11 308 l 11 456 l 78 456 l 78 764 l 421 764 b 843 382 676 764 843 619 b 422 0 843 146 676 0 m 300 308 l 300 192 l 421 192 b 619 382 554 192 619 281 b 422 572 619 488 564 572 l 300 572 l 300 456 l 444 456 l 444 308 "},"":{"ha":790,"x_min":0,"x_max":0,"o":"m 78 0 l 78 764 l 300 764 l 300 658 l 493 658 b 771 399 669 658 771 538 b 493 139 771 258 678 139 l 300 139 l 300 0 m 467 331 b 546 399 515 331 546 358 b 467 468 546 438 515 468 l 300 468 l 300 331 l 467 331 "},"´":{"ha":365,"x_min":0,"x_max":0,"o":"m 144 772 l 0 772 l 176 972 l 365 972 "},"¨":{"ha":425,"x_min":0,"x_max":0,"o":"m 471 854 b 361 744 471 792 422 744 b 253 854 301 744 253 792 b 361 963 253 914 301 963 b 471 854 422 963 471 914 m 174 854 b 64 744 174 792 125 744 b -44 854 3 744 -44 792 b 64 963 -44 914 3 963 b 174 854 125 963 174 914 "},"`":{"ha":365,"x_min":0,"x_max":0,"o":"m 221 772 l 0 972 l 189 972 l 365 772 "},"ˋ":{"ha":365,"x_min":0,"x_max":0,"o":"m 221 772 l 0 972 l 189 972 l 365 772 "},"ˆ":{"ha":442,"x_min":0,"x_max":0,"o":"m 314 772 l 218 885 l 126 772 l 0 772 l 125 972 l 313 972 l 442 772 "},"˜":{"ha":464,"x_min":0,"x_max":0,"o":"m 307 769 b 150 846 217 769 194 846 b 108 778 128 846 108 825 l 0 778 b 157 964 0 901 54 964 b 314 888 246 964 269 888 b 356 956 336 888 356 908 l 464 956 b 307 769 464 833 410 769 "},"¯":{"ha":504,"x_min":0,"x_max":0,"o":"m 0 772 l 0 890 l 504 890 l 504 772 "},"‾":{"ha":504,"x_min":0,"x_max":0,"o":"m 0 772 l 0 890 l 504 890 l 504 772 "},"˘":{"ha":488,"x_min":0,"x_max":0,"o":"m 488 856 b 244 733 432 781 344 733 b 0 856 146 733 57 781 l 92 931 b 244 850 126 883 178 850 b 396 931 308 850 361 879 l 488 856 "},"˙":{"ha":286,"x_min":0,"x_max":0,"o":"m 143 744 b 35 854 83 744 35 793 b 143 963 35 914 83 963 b 251 854 203 963 251 914 b 143 744 251 793 203 744 "},"˚":{"ha":299,"x_min":0,"x_max":0,"o":"m 151 729 b 0 879 68 729 0 797 b 151 1031 0 963 68 1031 b 299 879 233 1031 299 963 b 151 729 299 797 233 729 m 151 824 b 206 879 182 824 206 849 b 151 936 206 911 182 936 b 94 879 119 936 94 911 b 151 824 94 849 119 824 "},"¸":{"ha":318,"x_min":0,"x_max":0,"o":"m 158 -275 b 0 -229 89 -275 29 -253 l 39 -149 b 153 -190 75 -175 115 -190 b 218 -151 186 -190 218 -178 b 183 -121 218 -132 206 -121 b 143 -139 167 -121 153 -129 l 69 -97 l 113 15 l 211 15 l 176 -68 b 224 -54 190 -60 206 -54 b 318 -154 275 -54 318 -96 b 158 -275 318 -231 246 -275 "},"˝":{"ha":493,"x_min":0,"x_max":0,"o":"m 121 772 l 0 772 l 117 972 l 281 972 m 333 772 l 213 772 l 328 972 l 493 972 "},"˛":{"ha":282,"x_min":0,"x_max":0,"o":"m 282 -182 b 146 -258 254 -228 210 -258 b 0 -131 69 -258 0 -221 b 124 47 0 -57 44 3 l 194 0 b 100 -121 126 -35 100 -76 b 146 -174 100 -161 124 -174 b 200 -131 174 -174 190 -156 "},"ˇ":{"ha":442,"x_min":0,"x_max":0,"o":"m 129 772 l 0 972 l 126 972 l 222 860 l 314 972 l 442 972 l 317 772 "},"":{"ha":372,"x_min":0,"x_max":0,"o":"m 293 -193 b 171 -411 293 -281 244 -358 l 103 -357 b 193 -250 138 -337 182 -290 b 169 -254 189 -253 179 -254 b 88 -167 124 -254 88 -219 b 185 -68 88 -112 132 -68 b 293 -193 242 -68 293 -114 "},"ˉ":{"ha":504,"x_min":0,"x_max":0,"o":"m 0 821 l 0 939 l 504 939 l 504 821 "},"̉":{"ha":282,"x_min":0,"x_max":0,"o":"m 21 1018 b 136 1097 39 1071 85 1097 b 253 994 197 1097 253 1067 b 233 926 253 968 244 949 l 147 926 b 172 990 165 946 172 968 b 136 1031 172 1019 154 1031 b 93 994 114 1031 100 1014 "},"Α":{"ha":968,"x_min":0,"x_max":0,"o":"m 713 0 l 667 133 l 301 133 l 256 0 l -15 0 l 333 926 l 633 926 l 983 0 m 483 690 l 365 342 l 601 342 "},"Β":{"ha":944,"x_min":0,"x_max":0,"o":"m 83 0 l 83 926 l 608 926 b 879 690 792 926 879 807 b 721 478 879 575 808 497 b 897 251 819 463 897 368 b 625 0 897 117 807 0 m 554 571 b 636 649 603 571 636 603 b 554 725 636 693 603 725 l 322 725 l 322 571 l 554 571 m 563 201 b 654 285 619 201 654 235 b 563 368 654 331 621 368 l 322 368 l 322 201 l 563 201 "},"Γ":{"ha":808,"x_min":0,"x_max":0,"o":"m 83 0 l 83 926 l 763 926 l 763 718 l 322 718 l 322 0 "},"Δ":{"ha":968,"x_min":0,"x_max":0,"o":"m -15 0 l 333 926 l 633 926 l 983 0 m 483 690 l 321 208 l 647 208 "},"∆":{"ha":968,"x_min":0,"x_max":0,"o":"m -15 0 l 333 926 l 633 926 l 983 0 m 483 690 l 321 208 l 647 208 "},"Ε":{"ha":818,"x_min":0,"x_max":0,"o":"m 83 0 l 83 926 l 763 926 l 763 718 l 322 718 l 322 574 l 753 574 l 753 365 l 322 365 l 322 208 l 763 208 l 763 0 "},"Ζ":{"ha":828,"x_min":0,"x_max":0,"o":"m 54 0 l 54 190 l 449 718 l 54 718 l 54 926 l 764 926 l 764 736 l 368 208 l 774 208 l 774 0 "},"Η":{"ha":1029,"x_min":0,"x_max":0,"o":"m 707 0 l 707 372 l 322 372 l 322 0 l 83 0 l 83 926 l 322 926 l 322 581 l 707 581 l 707 926 l 946 926 l 946 0 "},"Θ":{"ha":1064,"x_min":0,"x_max":0,"o":"m 342 365 l 342 574 l 721 574 l 721 365 m 532 -17 b 36 463 249 -17 36 181 b 532 942 36 744 249 942 b 1026 463 815 942 1026 744 b 532 -17 1026 181 815 -17 m 532 194 b 783 463 685 194 783 313 b 532 731 783 614 685 731 b 279 463 378 731 279 614 b 532 194 279 313 378 194 "},"Ι":{"ha":406,"x_min":0,"x_max":0,"o":"m 83 0 l 83 926 l 322 926 l 322 0 "},"Κ":{"ha":908,"x_min":0,"x_max":0,"o":"m 628 0 l 385 349 l 322 271 l 322 0 l 83 0 l 83 926 l 322 926 l 322 546 l 607 926 l 901 926 l 542 493 l 921 0 "},"Λ":{"ha":968,"x_min":0,"x_max":0,"o":"m 713 0 l 483 690 l 256 0 l -15 0 l 333 926 l 633 926 l 983 0 "},"Μ":{"ha":1218,"x_min":0,"x_max":0,"o":"m 896 0 l 896 603 l 661 0 l 556 0 l 322 603 l 322 0 l 83 0 l 83 926 l 415 926 l 608 424 l 803 926 l 1135 926 l 1135 0 "},"Ν":{"ha":1028,"x_min":0,"x_max":0,"o":"m 714 0 l 322 536 l 322 0 l 83 0 l 83 926 l 329 926 l 704 417 l 704 926 l 944 926 l 944 0 "},"Ξ":{"ha":872,"x_min":0,"x_max":0,"o":"m 57 718 l 57 926 l 814 926 l 814 718 m 57 0 l 57 208 l 815 208 l 815 0 m 67 365 l 67 574 l 806 574 l 806 365 "},"Ο":{"ha":1064,"x_min":0,"x_max":0,"o":"m 532 -17 b 36 463 249 -17 36 181 b 532 942 36 744 249 942 b 1026 463 815 942 1026 744 b 532 -17 1026 181 815 -17 m 532 194 b 783 463 685 194 783 313 b 532 731 783 614 685 731 b 279 463 378 731 279 614 b 532 194 279 313 378 194 "},"Π":{"ha":1029,"x_min":0,"x_max":0,"o":"m 707 0 l 707 718 l 322 718 l 322 0 l 83 0 l 83 926 l 946 926 l 946 0 "},"Ρ":{"ha":893,"x_min":0,"x_max":0,"o":"m 83 0 l 83 926 l 547 926 b 869 618 756 926 869 786 b 547 311 869 451 756 311 l 322 311 l 322 0 m 515 519 b 626 618 579 519 626 556 b 515 718 626 682 579 718 l 322 718 l 322 519 l 515 519 "},"Σ":{"ha":821,"x_min":0,"x_max":0,"o":"m 613 474 l 346 208 l 764 208 l 764 0 l 57 0 l 57 208 l 319 472 l 58 718 l 58 926 l 764 926 l 764 718 l 357 718 "},"Τ":{"ha":818,"x_min":0,"x_max":0,"o":"m 290 0 l 290 718 l 31 718 l 31 926 l 788 926 l 788 718 l 529 718 l 529 0 "},"Υ":{"ha":910,"x_min":0,"x_max":0,"o":"m 336 0 l 336 374 l -15 926 l 254 926 l 456 585 l 654 926 l 925 926 l 575 374 l 575 0 "},"Φ":{"ha":1222,"x_min":0,"x_max":0,"o":"m 490 0 l 490 94 b 36 463 204 121 36 246 b 490 831 36 678 204 804 l 490 926 l 731 926 l 731 831 b 1185 463 1017 804 1185 678 b 731 94 1185 244 1017 121 l 731 0 m 942 463 b 731 618 942 547 871 600 l 731 307 b 942 463 871 325 942 376 m 279 463 b 490 307 279 376 350 325 l 490 618 b 279 463 350 600 279 547 "},"Χ":{"ha":939,"x_min":0,"x_max":0,"o":"m 671 0 l 469 311 l 268 0 l -15 0 l 308 475 l 6 926 l 288 926 l 469 636 l 649 926 l 932 926 l 631 476 l 953 0 "},"Ψ":{"ha":1253,"x_min":0,"x_max":0,"o":"m 507 0 l 507 178 b 83 564 219 210 83 363 l 83 926 l 326 926 l 326 572 b 507 393 326 479 386 417 l 507 926 l 746 926 l 746 393 b 925 572 864 417 925 479 l 925 926 l 1169 926 l 1169 565 b 746 178 1169 361 1033 210 l 746 0 "},"Ω":{"ha":1064,"x_min":0,"x_max":0,"o":"m 214 208 b 36 519 128 271 36 375 b 532 942 36 783 250 942 b 1026 519 815 942 1026 783 b 850 208 1026 375 938 271 l 1003 208 l 1003 0 l 610 0 l 610 208 b 783 465 722 242 783 351 b 532 729 783 582 717 729 b 279 465 346 729 279 582 b 454 208 279 351 340 242 l 454 0 l 60 0 l 60 208 "},"Ω":{"ha":1064,"x_min":0,"x_max":0,"o":"m 214 208 b 36 519 128 271 36 375 b 532 942 36 783 250 942 b 1026 519 815 942 1026 783 b 850 208 1026 375 938 271 l 1003 208 l 1003 0 l 610 0 l 610 208 b 783 465 722 242 783 351 b 532 729 783 582 717 729 b 279 465 346 729 279 582 b 454 208 279 351 340 242 l 454 0 l 60 0 l 60 208 "},"α":{"ha":840,"x_min":0,"x_max":0,"o":"m 833 -4 b 739 -17 810 -12 769 -17 b 543 100 639 -17 569 22 b 331 -17 497 26 419 -17 b 33 336 165 -17 33 108 b 331 688 33 556 163 688 b 528 592 404 688 475 658 l 528 671 l 742 671 l 742 225 b 794 172 742 190 764 172 b 821 176 804 172 813 174 m 400 172 b 529 233 446 172 501 197 l 529 438 b 400 497 501 474 446 497 b 253 336 315 497 253 436 b 400 172 253 236 315 172 "},"β":{"ha":821,"x_min":0,"x_max":0,"o":"m 292 232 b 438 172 325 196 374 172 b 568 274 522 172 568 215 b 436 372 568 333 519 372 l 378 372 l 378 563 l 429 563 b 546 656 506 563 546 600 b 435 750 546 715 500 750 b 292 618 349 750 292 697 m 292 -256 l 78 -256 l 78 618 b 435 940 78 854 275 940 b 765 686 653 940 765 839 b 569 478 765 578 679 496 b 786 232 668 468 786 392 b 514 -17 786 94 656 -17 b 292 78 415 -17 347 14 "},"γ":{"ha":728,"x_min":0,"x_max":0,"o":"m 257 -256 l 257 -126 b -28 671 257 183 133 489 l 211 671 b 390 242 297 563 375 369 b 494 671 444 331 494 525 l 707 671 b 469 7 707 449 601 174 l 469 -256 "},"δ":{"ha":800,"x_min":0,"x_max":0,"o":"m 413 -17 b 33 329 171 -17 33 147 b 178 585 33 451 100 539 b 111 722 138 615 111 657 b 399 943 111 840 214 943 b 679 854 513 943 607 907 l 597 703 b 400 776 557 742 481 776 b 317 731 350 776 317 757 b 765 321 317 656 765 703 b 413 -17 765 147 642 -17 m 560 321 b 369 504 560 433 469 471 b 254 329 293 468 254 397 b 406 172 254 246 308 172 b 560 321 504 172 560 246 "},"ε":{"ha":692,"x_min":0,"x_max":0,"o":"m 365 -17 b 33 186 161 -15 33 67 b 219 344 33 283 136 339 b 47 500 126 360 47 422 b 383 686 47 614 161 688 b 674 574 507 686 607 640 l 572 451 b 372 524 521 499 456 524 b 268 474 310 524 268 503 b 375 418 268 439 293 418 l 507 418 l 507 258 l 375 258 b 256 200 296 258 256 238 b 365 147 256 168 289 147 b 586 217 436 147 525 169 l 682 90 b 365 -17 618 28 506 -17 "},"ζ":{"ha":672,"x_min":0,"x_max":0,"o":"m 421 -39 b 393 -17 421 -24 414 -17 b 33 293 174 -17 33 103 b 347 740 33 475 156 640 l 56 740 l 56 926 l 622 926 l 622 775 b 253 311 440 679 253 496 b 421 172 253 211 315 172 b 640 14 583 172 640 117 b 560 -218 640 -50 611 -128 l 336 -218 b 421 -39 365 -178 421 -81 "},"η":{"ha":824,"x_min":0,"x_max":0,"o":"m 532 -256 l 532 388 b 422 499 532 469 489 499 b 292 433 358 499 317 464 l 292 0 l 78 0 l 78 671 l 292 671 l 292 589 b 524 688 332 636 411 688 b 746 475 676 688 746 599 l 746 -256 "},"θ":{"ha":800,"x_min":0,"x_max":0,"o":"m 399 -17 b 33 464 165 -17 33 206 b 399 943 33 722 165 943 b 765 464 635 943 765 722 b 399 -17 765 206 635 -17 m 399 172 b 542 372 485 172 529 238 l 258 372 b 399 172 271 238 314 172 m 399 754 b 258 558 315 754 271 688 l 542 558 b 399 754 528 688 483 754 "},"ι":{"ha":389,"x_min":0,"x_max":0,"o":"m 289 -17 b 78 181 151 -17 78 51 l 78 671 l 292 671 l 292 225 b 343 172 292 190 314 172 b 369 176 353 172 363 174 l 383 -4 b 289 -17 358 -12 319 -17 "},"κ":{"ha":758,"x_min":0,"x_max":0,"o":"m 503 0 l 356 238 l 292 161 l 292 0 l 78 0 l 78 671 l 292 671 l 292 403 l 496 671 l 754 671 l 507 365 l 767 0 "},"λ":{"ha":728,"x_min":0,"x_max":0,"o":"m 64 932 b 156 943 86 939 136 943 b 439 767 283 939 385 908 l 742 0 l 515 0 l 363 425 l 211 0 l -14 0 l 253 681 l 238 717 b 147 754 226 744 196 754 b 94 742 131 754 110 750 "},"μ":{"ha":842,"x_min":0,"x_max":0,"o":"m 292 -256 l 78 -256 l 78 671 l 292 671 l 292 281 b 403 172 292 203 333 172 b 531 238 464 172 506 206 l 531 671 l 744 671 l 744 225 b 796 172 744 190 767 172 b 822 176 806 172 815 174 l 836 -4 b 742 -17 811 -12 772 -17 b 543 104 636 -17 571 22 b 367 -17 508 35 446 -17 b 292 8 331 -17 304 -4 "},"µ":{"ha":842,"x_min":0,"x_max":0,"o":"m 292 -256 l 78 -256 l 78 671 l 292 671 l 292 281 b 403 172 292 203 333 172 b 531 238 464 172 506 206 l 531 671 l 744 671 l 744 225 b 796 172 744 190 767 172 b 822 176 806 172 815 174 l 836 -4 b 742 -17 811 -12 772 -17 b 543 104 636 -17 571 22 b 367 -17 508 35 446 -17 b 292 8 331 -17 304 -4 "},"ν":{"ha":728,"x_min":0,"x_max":0,"o":"m 250 0 l -14 671 l 211 671 l 374 213 b 494 671 453 338 494 525 l 707 671 b 464 0 707 446 599 165 "},"ξ":{"ha":672,"x_min":0,"x_max":0,"o":"m 393 -17 b 33 228 154 -17 33 83 b 190 431 33 340 106 404 b 49 578 118 443 49 492 b 174 740 49 649 101 713 l 64 740 l 64 926 l 619 926 l 619 740 l 354 740 b 269 646 303 728 269 692 b 408 560 269 590 322 560 l 614 560 l 614 376 l 408 376 b 254 272 310 376 254 342 b 421 172 254 207 314 172 b 640 14 583 172 640 117 b 560 -218 640 -50 611 -128 l 336 -218 b 421 -39 365 -178 421 -81 b 393 -17 421 -24 414 -17 "},"ο":{"ha":800,"x_min":0,"x_max":0,"o":"m 399 -17 b 33 336 171 -17 33 147 b 399 688 33 525 171 688 b 765 336 629 688 765 525 b 399 -17 765 147 629 -17 m 399 172 b 546 336 493 172 546 246 b 399 499 546 425 493 499 b 254 336 306 499 254 425 b 399 172 254 246 306 172 "},"π":{"ha":911,"x_min":0,"x_max":0,"o":"m 576 0 l 576 485 l 335 485 l 335 0 l 122 0 l 122 485 l 11 485 l 11 671 l 900 671 l 900 485 l 789 485 l 789 0 "},"ρ":{"ha":818,"x_min":0,"x_max":0,"o":"m 490 -17 b 292 79 415 -17 347 13 l 292 -256 l 78 -256 l 78 336 b 432 688 78 525 210 688 b 785 336 654 688 785 525 b 490 -17 785 108 658 -17 m 419 172 b 567 336 503 172 567 235 b 429 499 567 425 518 499 b 292 336 340 499 292 425 l 292 233 b 419 172 318 199 374 172 "},"ς":{"ha":690,"x_min":0,"x_max":0,"o":"m 410 -17 b 33 336 194 -17 33 121 b 400 688 33 546 190 688 b 675 564 544 688 635 624 l 536 435 b 410 499 510 474 467 499 b 253 336 321 499 253 438 b 419 172 253 228 326 172 b 654 14 582 172 654 117 b 574 -218 654 -50 625 -128 l 351 -218 b 436 -39 381 -178 436 -81 b 410 -17 436 -24 426 -17 "},"σ":{"ha":800,"x_min":0,"x_max":0,"o":"m 749 292 b 399 -17 749 125 629 -17 b 33 336 171 -17 33 147 b 404 671 33 522 171 671 l 775 671 l 775 482 l 668 482 b 749 292 726 431 749 368 m 546 335 b 469 482 546 397 518 450 l 404 482 b 254 336 306 482 254 411 b 399 172 254 246 306 172 b 546 335 493 172 546 246 "},"τ":{"ha":678,"x_min":0,"x_max":0,"o":"m 443 -17 b 232 181 307 -17 232 51 l 232 485 l 25 485 l 25 671 l 654 671 l 654 485 l 446 485 l 446 240 b 504 172 446 201 468 172 b 560 189 529 172 553 181 l 601 28 b 443 -17 575 3 522 -17 "},"υ":{"ha":811,"x_min":0,"x_max":0,"o":"m 411 -17 b 78 307 186 -17 78 118 l 78 671 l 292 671 l 292 311 b 411 172 292 231 336 172 b 558 367 506 172 558 246 b 486 606 558 446 533 538 l 682 688 b 778 367 749 590 778 468 b 411 -17 778 144 642 -17 "},"φ":{"ha":1139,"x_min":0,"x_max":0,"o":"m 1106 336 b 676 -11 1106 138 964 13 l 676 -256 l 463 -256 l 463 -11 b 33 356 175 13 33 140 b 297 688 33 524 151 628 l 385 521 b 254 356 296 486 254 419 b 463 178 254 256 314 196 l 463 688 l 568 688 b 1106 336 929 688 1106 557 m 885 336 b 676 493 885 435 796 485 l 676 178 b 885 336 824 194 885 253 "},"χ":{"ha":711,"x_min":0,"x_max":0,"o":"m 486 -256 l 356 22 l 225 -256 l -8 -256 l 221 221 l 6 671 l 240 671 l 356 421 l 471 671 l 704 671 l 490 221 l 719 -256 "},"ψ":{"ha":1139,"x_min":0,"x_max":0,"o":"m 463 -256 l 463 -11 b 78 344 201 17 78 150 l 78 671 l 292 671 l 292 346 b 463 181 292 256 357 201 l 463 926 l 676 926 l 676 181 b 847 346 782 201 847 256 l 847 671 l 1061 671 l 1061 344 b 676 -11 1061 150 936 17 l 676 -256 "},"ω":{"ha":1215,"x_min":0,"x_max":0,"o":"m 1179 336 b 868 -17 1179 147 1064 -17 b 607 167 735 -17 654 54 b 346 -17 558 54 479 -17 b 33 336 150 -17 33 147 b 183 688 33 492 99 611 l 346 568 b 254 336 279 496 254 417 b 376 172 254 246 299 172 b 500 336 457 172 500 246 l 500 504 l 714 504 l 714 336 b 838 172 714 246 757 172 b 960 336 915 172 960 246 b 867 568 960 417 935 496 l 1031 688 b 1179 336 1115 611 1179 492 "},"Ά":{"ha":968,"x_min":0,"x_max":0,"o":"m 126 760 l 156 1063 l 322 1063 l 217 760 m 713 0 l 667 133 l 301 133 l 256 0 l -15 0 l 333 926 l 633 926 l 983 0 m 483 690 l 365 342 l 601 342 "},"Έ":{"ha":883,"x_min":0,"x_max":0,"o":"m -28 760 l 1 1063 l 168 1063 l 63 760 m 147 0 l 147 926 l 826 926 l 826 718 l 386 718 l 386 574 l 817 574 l 817 365 l 386 365 l 386 208 l 826 208 l 826 0 "},"Ή":{"ha":1093,"x_min":0,"x_max":0,"o":"m -28 760 l 1 1063 l 168 1063 l 63 760 m 771 0 l 771 372 l 386 372 l 386 0 l 147 0 l 147 926 l 386 926 l 386 581 l 771 581 l 771 926 l 1010 926 l 1010 0 "},"Ί":{"ha":469,"x_min":0,"x_max":0,"o":"m -28 760 l 1 1063 l 168 1063 l 63 760 m 147 0 l 147 926 l 386 926 l 386 0 "},"Ό":{"ha":1064,"x_min":0,"x_max":0,"o":"m -15 760 l 14 1063 l 181 1063 l 75 760 m 532 -17 b 36 463 249 -17 36 181 b 532 942 36 744 249 942 b 1026 463 815 942 1026 744 b 532 -17 1026 181 815 -17 m 532 194 b 783 463 685 194 783 313 b 532 731 783 614 685 731 b 279 463 378 731 279 614 b 532 194 279 313 378 194 "},"Ύ":{"ha":1044,"x_min":0,"x_max":0,"o":"m -28 760 l 1 1063 l 168 1063 l 63 760 m 472 0 l 472 374 l 121 926 l 390 926 l 592 585 l 790 926 l 1061 926 l 711 374 l 711 0 "},"Ώ":{"ha":1079,"x_min":0,"x_max":0,"o":"m -15 760 l 14 1063 l 181 1063 l 75 760 m 231 208 b 53 519 144 271 53 375 b 549 942 53 783 267 942 b 1043 519 832 942 1043 783 b 867 208 1043 375 954 271 l 1019 208 l 1019 0 l 626 0 l 626 208 b 800 465 739 242 800 351 b 549 729 800 582 733 729 b 296 465 363 729 296 582 b 471 208 296 351 357 242 l 471 0 l 76 0 l 76 208 "},"Ϊ":{"ha":406,"x_min":0,"x_max":0,"o":"m 83 0 l 83 926 l 322 926 l 322 0 m 461 1110 b 351 1000 461 1047 413 1000 b 243 1110 292 1000 243 1047 b 351 1218 243 1169 292 1218 b 461 1110 413 1218 461 1169 m 164 1110 b 54 1000 164 1047 115 1000 b -54 1110 -7 1000 -54 1047 b 54 1218 -54 1169 -7 1218 b 164 1110 115 1218 164 1169 "},"Ϋ":{"ha":910,"x_min":0,"x_max":0,"o":"m 336 0 l 336 374 l -15 926 l 254 926 l 456 585 l 654 926 l 925 926 l 575 374 l 575 0 m 711 1110 b 601 1000 711 1047 663 1000 b 493 1110 542 1000 493 1047 b 601 1218 493 1169 542 1218 b 711 1110 663 1218 711 1169 m 414 1110 b 304 1000 414 1047 365 1000 b 196 1110 243 1000 196 1047 b 304 1218 196 1169 243 1218 b 414 1110 365 1218 414 1169 "},"ά":{"ha":840,"x_min":0,"x_max":0,"o":"m 360 760 l 389 1063 l 556 1063 l 450 760 m 833 -4 b 739 -17 810 -12 769 -17 b 543 100 639 -17 569 22 b 331 -17 497 26 419 -17 b 33 336 165 -17 33 108 b 331 688 33 556 163 688 b 528 592 404 688 475 658 l 528 671 l 742 671 l 742 225 b 794 172 742 190 764 172 b 821 176 804 172 813 174 m 400 172 b 529 233 446 172 501 197 l 529 438 b 400 497 501 474 446 497 b 253 336 315 497 253 436 b 400 172 253 236 315 172 "},"έ":{"ha":692,"x_min":0,"x_max":0,"o":"m 285 760 l 314 1063 l 481 1063 l 375 760 m 365 -17 b 33 186 161 -15 33 67 b 219 344 33 283 136 339 b 47 500 126 360 47 422 b 383 686 47 614 161 688 b 674 574 507 686 607 640 l 572 451 b 372 524 521 499 456 524 b 268 474 310 524 268 503 b 375 418 268 439 293 418 l 507 418 l 507 258 l 375 258 b 256 200 296 258 256 238 b 365 147 256 168 289 147 b 586 217 436 147 525 169 l 682 90 b 365 -17 618 28 506 -17 "},"ή":{"ha":824,"x_min":0,"x_max":0,"o":"m 351 760 l 381 1063 l 547 1063 l 442 760 m 532 -256 l 532 388 b 422 499 532 469 489 499 b 292 433 358 499 317 464 l 292 0 l 78 0 l 78 671 l 292 671 l 292 589 b 524 688 332 636 411 688 b 746 475 676 688 746 599 l 746 -256 "},"ί":{"ha":389,"x_min":0,"x_max":0,"o":"m 135 760 l 164 1063 l 331 1063 l 225 760 m 289 -17 b 78 181 151 -17 78 51 l 78 671 l 292 671 l 292 225 b 343 172 292 190 314 172 b 369 176 353 172 363 174 l 383 -4 b 289 -17 358 -12 319 -17 "},"ϊ":{"ha":389,"x_min":0,"x_max":0,"o":"m 453 854 b 343 744 453 792 404 744 b 235 854 283 744 235 792 b 343 963 235 914 283 963 b 453 854 404 963 453 914 m 156 854 b 46 744 156 792 107 744 b -62 854 -15 744 -62 792 b 46 963 -62 914 -15 963 b 156 854 107 963 156 914 m 289 -17 b 78 181 151 -17 78 51 l 78 671 l 292 671 l 292 225 b 343 172 292 190 314 172 b 369 176 353 172 363 174 l 383 -4 b 289 -17 358 -12 319 -17 "},"ΐ":{"ha":389,"x_min":0,"x_max":0,"o":"m 122 760 l 151 1063 l 318 1063 l 214 760 m 522 854 b 413 744 522 792 474 744 b 304 854 353 744 304 792 b 413 963 304 914 353 963 b 522 854 474 963 522 914 m 83 854 b -25 744 83 792 36 744 b -133 854 -86 744 -133 792 b -25 963 -133 914 -86 963 b 83 854 36 963 83 914 m 289 -17 b 78 181 151 -17 78 51 l 78 671 l 292 671 l 292 225 b 343 172 292 190 314 172 b 369 176 353 172 363 174 l 383 -4 b 289 -17 358 -12 319 -17 "},"ύ":{"ha":811,"x_min":0,"x_max":0,"o":"m 346 760 l 375 1063 l 542 1063 l 436 760 m 411 -17 b 78 307 186 -17 78 118 l 78 671 l 292 671 l 292 311 b 411 172 292 231 336 172 b 558 367 506 172 558 246 b 486 606 558 446 533 538 l 682 688 b 778 367 749 590 778 468 b 411 -17 778 144 642 -17 "},"ϋ":{"ha":811,"x_min":0,"x_max":0,"o":"m 663 854 b 553 744 663 792 614 744 b 444 854 493 744 444 792 b 553 963 444 914 493 963 b 663 854 614 963 663 914 m 365 854 b 256 744 365 792 317 744 b 147 854 194 744 147 792 b 256 963 147 914 194 963 b 365 854 317 963 365 914 m 411 -17 b 78 307 186 -17 78 118 l 78 671 l 292 671 l 292 311 b 411 172 292 231 336 172 b 558 367 506 172 558 246 b 486 606 558 446 533 538 l 682 688 b 778 367 749 590 778 468 b 411 -17 778 144 642 -17 "},"ΰ":{"ha":811,"x_min":0,"x_max":0,"o":"m 333 760 l 363 1063 l 529 1063 l 425 760 m 733 854 b 624 744 733 792 685 744 b 515 854 564 744 515 792 b 624 963 515 914 564 963 b 733 854 685 963 733 914 m 294 854 b 186 744 294 792 247 744 b 78 854 125 744 78 792 b 186 963 78 914 125 963 b 294 854 247 963 294 914 m 411 -17 b 78 307 186 -17 78 118 l 78 671 l 292 671 l 292 311 b 411 172 292 231 336 172 b 558 367 506 172 558 246 b 486 606 558 446 533 538 l 682 688 b 778 367 749 590 778 468 b 411 -17 778 144 642 -17 "},"ό":{"ha":800,"x_min":0,"x_max":0,"o":"m 339 760 l 368 1063 l 535 1063 l 429 760 m 399 -17 b 33 336 171 -17 33 147 b 399 688 33 525 171 688 b 765 336 629 688 765 525 b 399 -17 765 147 629 -17 m 399 172 b 546 336 493 172 546 246 b 399 499 546 425 493 499 b 254 336 306 499 254 425 b 399 172 254 246 306 172 "},"ώ":{"ha":1215,"x_min":0,"x_max":0,"o":"m 547 760 l 576 1063 l 743 1063 l 638 760 m 1179 336 b 868 -17 1179 147 1064 -17 b 607 167 735 -17 654 54 b 346 -17 558 54 479 -17 b 33 336 150 -17 33 147 b 183 688 33 492 99 611 l 346 568 b 254 336 279 496 254 417 b 376 172 254 246 299 172 b 500 336 457 172 500 246 l 500 504 l 714 504 l 714 336 b 838 172 714 246 757 172 b 960 336 915 172 960 246 b 867 568 960 417 935 496 l 1031 688 b 1179 336 1115 611 1179 492 "},"΄":{"ha":332,"x_min":0,"x_max":0,"o":"m 158 760 l 188 1063 l 354 1063 l 249 760 "},"΅":{"ha":824,"x_min":0,"x_max":0,"o":"m 339 760 l 368 1063 l 535 1063 l 431 760 m 739 854 b 629 744 739 792 690 744 b 521 854 569 744 521 792 b 629 963 521 914 569 963 b 739 854 690 963 739 914 m 300 854 b 192 744 300 792 253 744 b 83 854 131 744 83 792 b 192 963 83 914 131 963 b 300 854 253 963 300 914 "},"А":{"ha":968,"x_min":0,"x_max":0,"o":"m 713 0 l 667 133 l 301 133 l 256 0 l -15 0 l 333 926 l 633 926 l 983 0 m 483 690 l 365 342 l 601 342 "},"Б":{"ha":893,"x_min":0,"x_max":0,"o":"m 807 926 l 807 718 l 322 718 l 322 599 l 556 599 b 869 300 760 599 869 463 b 556 0 869 138 760 0 l 83 0 l 83 926 m 322 390 l 322 208 l 526 208 b 626 300 583 208 626 242 b 526 390 626 357 583 390 "},"В":{"ha":944,"x_min":0,"x_max":0,"o":"m 83 0 l 83 926 l 608 926 b 879 690 792 926 879 807 b 721 478 879 575 808 497 b 897 251 819 463 897 368 b 625 0 897 117 807 0 m 554 571 b 636 649 603 571 636 603 b 554 725 636 693 603 725 l 322 725 l 322 571 l 554 571 m 563 201 b 654 285 619 201 654 235 b 563 368 654 331 621 368 l 322 368 l 322 201 l 563 201 "},"Г":{"ha":808,"x_min":0,"x_max":0,"o":"m 83 0 l 83 926 l 763 926 l 763 718 l 322 718 l 322 0 "},"Д":{"ha":1049,"x_min":0,"x_max":0,"o":"m 32 194 b 200 457 121 208 174 246 l 256 926 l 946 926 l 946 208 l 1029 208 l 1029 -171 l 789 -171 l 789 0 l 271 0 l 271 -171 l 32 -171 m 438 439 b 336 208 425 335 389 261 l 707 208 l 707 718 l 471 718 l 438 439 "},"Е":{"ha":818,"x_min":0,"x_max":0,"o":"m 83 0 l 83 926 l 763 926 l 763 718 l 322 718 l 322 574 l 753 574 l 753 365 l 322 365 l 322 208 l 763 208 l 763 0 "},"Ё":{"ha":818,"x_min":0,"x_max":0,"o":"m 681 1086 b 571 976 681 1024 632 976 b 463 1086 511 976 463 1024 b 571 1194 463 1146 511 1194 b 681 1086 632 1194 681 1146 m 383 1086 b 274 976 383 1024 335 976 b 165 1086 213 976 165 1024 b 274 1194 165 1146 213 1194 b 383 1086 335 1194 383 1146 m 83 0 l 83 926 l 763 926 l 763 718 l 322 718 l 322 574 l 753 574 l 753 365 l 322 365 l 322 208 l 763 208 l 763 0 "},"Ж":{"ha":1349,"x_min":0,"x_max":0,"o":"m -12 0 l 367 493 l 7 926 l 300 926 l 556 585 l 556 926 l 794 926 l 794 586 l 1049 926 l 1342 926 l 983 493 l 1363 0 l 1069 0 l 825 349 l 794 310 l 794 0 l 556 0 l 556 307 l 524 349 l 279 0 "}}}
